<?xml version="1.0" encoding="UTF-8" standalone="no"?>
<svg width="483px" height="200px" viewBox="0 0 483 200" version="1.1" xmlns="http://www.w3.org/2000/svg" xmlns:xlink="http://www.w3.org/1999/xlink">
    <!-- Generator: Sketch 40.2 (33826) - http://www.bohemiancoding.com/sketch -->
    <title>Group 11</title>
    <desc>Created with Sketch.</desc>
    <defs></defs>
    <g id="Page-1" stroke="none" stroke-width="1" fill="none" fill-rule="evenodd">
        <g id="Help_alt" transform="translate(-479.000000, -101.000000)">
            <g id="Group-11" transform="translate(479.000000, 101.000000)">
                <g id="bg-ilustrasi" transform="translate(0.637695, 0.227269)">
                    <path d="M3.81958716,99.0166042 C3.81958716,99.0166042 4.56769825,100.194162 5.04118871,100.667652 C5.52925401,101.155717 6.70425444,101.901271 6.70425444,101.901271 C6.70425444,101.901271 5.50862763,102.689953 5.04118871,103.157392 C4.54707187,103.651509 3.81958716,104.785939 3.81958716,104.785939 C3.81958716,104.785939 3.08690323,103.61537 2.62892517,103.157392 C2.12534747,102.653815 0.934919869,101.901271 0.934919869,101.901271 C0.934919869,101.901271 2.13306105,101.163516 2.62892517,100.667652 C3.09461681,100.20196 3.81958716,99.0166042 3.81958716,99.0166042 Z" id="Polygon" fill="#DAE2E6"></path>
                    <path d="M464.224173,161.804065 C464.224173,161.804065 465.007643,163.037279 465.503513,163.533148 C466.014646,164.044282 467.245182,164.825074 467.245182,164.825074 C467.245182,164.825074 465.993045,165.651033 465.503513,166.140565 C464.986042,166.658036 464.224173,167.846084 464.224173,167.846084 C464.224173,167.846084 463.456859,166.620189 462.977235,166.140565 C462.449856,165.613186 461.203163,164.825074 461.203163,164.825074 C461.203163,164.825074 462.457934,164.052449 462.977235,163.533148 C463.464937,163.045446 464.224173,161.804065 464.224173,161.804065 Z" id="Polygon-Copy-9" fill="#DAE2E6"></path>
                    <path d="M425.032152,128.34572 C425.032152,128.34572 426.032258,129.919928 426.66524,130.55291 C427.317707,131.205376 428.888497,132.202064 428.888497,132.202064 C428.888497,132.202064 427.290132,133.256408 426.66524,133.8813 C426.004684,134.541856 425.032152,136.058409 425.032152,136.058409 C425.032152,136.058409 424.052669,134.493544 423.440425,133.8813 C422.767221,133.208096 421.175807,132.202064 421.175807,132.202064 C421.175807,132.202064 422.777533,131.215802 423.440425,130.55291 C424.062981,129.930354 425.032152,128.34572 425.032152,128.34572 Z" id="Polygon-Copy-4" fill="#DAE2E6"></path>
                    <path d="M409.167281,49.5617403 C409.167281,49.5617403 410.167387,51.1359487 410.800369,51.7689307 C411.452836,52.4213969 413.023626,53.418085 413.023626,53.418085 C413.023626,53.418085 411.425261,54.4724283 410.800369,55.0973204 C410.139813,55.7578766 409.167281,57.2744297 409.167281,57.2744297 C409.167281,57.2744297 408.187798,55.7095647 407.575554,55.0973204 C406.90235,54.4241165 405.310936,53.418085 405.310936,53.418085 C405.310936,53.418085 406.912662,52.4318227 407.575554,51.7689307 C408.19811,51.1463745 409.167281,49.5617403 409.167281,49.5617403 Z" id="Polygon-Copy-8" fill="#DAE2E6"></path>
                    <path d="M16.9906703,164.795608 C16.9906703,164.795608 17.6242075,165.792822 18.0251824,166.193797 C18.4385001,166.607114 19.433548,167.238486 19.433548,167.238486 C19.433548,167.238486 18.4210326,167.906381 18.0251824,168.302231 C17.6067401,168.720673 16.9906703,169.681364 16.9906703,169.681364 C16.9906703,169.681364 16.3701977,168.690069 15.9823594,168.302231 C15.5559051,167.875777 14.5477926,167.238486 14.5477926,167.238486 C14.5477926,167.238486 15.5624373,166.613719 15.9823594,166.193797 C16.3767299,165.799426 16.9906703,164.795608 16.9906703,164.795608 Z" id="Polygon-Copy-7" fill="#DAE2E6"></path>
                    <path d="M53.0027649,150.627977 C53.0027649,150.627977 53.750876,151.805534 54.2243664,152.279024 C54.7124317,152.76709 55.8874321,153.512644 55.8874321,153.512644 C55.8874321,153.512644 54.6918053,154.301326 54.2243664,154.768765 C53.7302496,155.262882 53.0027649,156.397311 53.0027649,156.397311 C53.0027649,156.397311 52.2700809,155.226743 51.8121029,154.768765 C51.3085252,154.265187 50.1180976,153.512644 50.1180976,153.512644 C50.1180976,153.512644 51.3162388,152.774889 51.8121029,152.279024 C52.2777945,151.813333 53.0027649,150.627977 53.0027649,150.627977 Z" id="Polygon-Copy" fill="#DAE2E6"></path>
                    <path d="M280.177306,26.1058394 C280.177306,26.1058394 280.925417,27.2833968 281.398907,27.7568873 C281.886972,28.2449526 283.061973,28.9905067 283.061973,28.9905067 C283.061973,28.9905067 281.866346,29.7791887 281.398907,30.2466276 C280.90479,30.7407444 280.177306,31.875174 280.177306,31.875174 C280.177306,31.875174 279.444622,30.7046057 278.986644,30.2466276 C278.483066,29.7430499 277.292638,28.9905067 277.292638,28.9905067 C277.292638,28.9905067 278.49078,28.2527514 278.986644,27.7568873 C279.452335,27.2911956 280.177306,26.1058394 280.177306,26.1058394 Z" id="Polygon-Copy-3" fill="#DAE2E6"></path>
                    <path d="M361.054866,44.218913 C361.054866,44.218913 361.802977,45.3964704 362.276468,45.8699609 C362.764533,46.3580262 363.939533,47.1035803 363.939533,47.1035803 C363.939533,47.1035803 362.743907,47.8922623 362.276468,48.3597012 C361.782351,48.8538181 361.054866,49.9882476 361.054866,49.9882476 C361.054866,49.9882476 360.322182,48.8176793 359.864204,48.3597012 C359.360627,47.8561235 358.170199,47.1035803 358.170199,47.1035803 C358.170199,47.1035803 359.36834,46.365825 359.864204,45.8699609 C360.329896,45.4042693 361.054866,44.218913 361.054866,44.218913 Z" id="Polygon-Copy-6" fill="#DAE2E6"></path>
                    <path d="M158.265153,39.9168832 C158.265153,39.9168832 158.859135,40.8518345 159.235074,41.2277741 C159.622586,41.6152858 160.555507,42.2072371 160.555507,42.2072371 C160.555507,42.2072371 159.606209,42.833431 159.235074,43.2045658 C158.842758,43.5968823 158.265153,44.4975911 158.265153,44.4975911 C158.265153,44.4975911 157.68342,43.568189 157.319797,43.2045658 C156.919969,42.8047377 155.974799,42.2072371 155.974799,42.2072371 C155.974799,42.2072371 156.926093,41.6214778 157.319797,41.2277741 C157.689545,40.8580265 158.265153,39.9168832 158.265153,39.9168832 Z" id="Polygon-Copy-2" fill="#DAE2E6"></path>
                    <path d="M275.002284,106.994387 C275.002284,106.994387 275.596266,107.929339 275.972206,108.305278 C276.359717,108.69279 277.292638,109.284741 277.292638,109.284741 C277.292638,109.284741 276.34334,109.910935 275.972206,110.28207 C275.579889,110.674386 275.002284,111.575095 275.002284,111.575095 C275.002284,111.575095 274.420552,110.645693 274.056929,110.28207 C273.6571,109.882242 272.711931,109.284741 272.711931,109.284741 C272.711931,109.284741 273.663225,108.698982 274.056929,108.305278 C274.426676,107.935531 275.002284,106.994387 275.002284,106.994387 Z" id="Polygon-Copy-5" fill="#DAE2E6"></path>
                    <path d="M43.9811877,24.5276627 L43.9811877,14.3909266" id="Path-63" stroke="#DAE2E6" stroke-width="2" stroke-linecap="round" fill="#DAE2E6"></path>
                    <path d="M53.4961948,30.1421761 L59.800243,23.8381279" id="Path-64" stroke="#DAE2E6" stroke-width="2" stroke-linecap="round" fill="#DAE2E6"></path>
                    <path d="M32.8959946,28.9835148 L27.6997341,23.7872543" id="Path-65" stroke="#DAE2E6" stroke-width="2" stroke-linecap="round" fill="#DAE2E6"></path>
                    <path d="M438.789058,101.259013 L443.706391,97.3145566" id="Path-66" stroke="#DAE2E6" stroke-width="2" stroke-linecap="round" fill="#DAE2E6"></path>
                    <path d="M196.855569,58.3625726 L191.337353,52.8443563" id="Path-67" stroke="#DAE2E6" stroke-width="2" stroke-linecap="round" fill="#DAE2E6"></path>
                    <path d="M25.9745827,131.312292 L20.4563664,125.794076" id="Path-67-Copy" stroke="#DAE2E6" stroke-width="2" stroke-linecap="round" fill="#DAE2E6"></path>
                    <path d="M63.0151973,182.144565 L55.7475937,186.414631" id="Path-68" stroke="#DAE2E6" stroke-width="2" stroke-linecap="round" fill="#DAE2E6"></path>
                    <path d="M420.328386,185.066189 L425.114815,185.066189" id="Path-69" stroke="#DAE2E6" stroke-width="2" stroke-linecap="round" fill="#DAE2E6"></path>
                    <path d="M64.7100772,167.798073 C66.0210272,165.601749 66.7742544,163.033994 66.7742544,160.290313 C66.7742544,152.188544 60.2064723,145.620761 52.1047024,145.620761 C45.8155201,145.620761 40.4507176,149.578502 38.3650097,155.139268" id="Oval-22" stroke="#DAE2E6" stroke-width="2" stroke-linecap="round" stroke-linejoin="round"></path>
                    <path d="M478.362809,181.015803 C479.673759,178.819478 480.426986,176.251723 480.426986,173.508043 C480.426986,165.406273 473.859204,158.838491 465.757434,158.838491 C459.468252,158.838491 454.10345,162.796231 452.017742,168.356997" id="Oval-22-Copy-10" stroke="#DAE2E6" stroke-width="2" stroke-linecap="round" stroke-linejoin="round"></path>
                    <path d="M179.36868,24.5801479 C179.36868,26.7787639 181.151011,28.5610944 183.349627,28.5610944 L183.349627,28.5610944 C185.548243,28.5610944 187.330573,26.7787639 187.330573,24.5801479 C187.330573,22.3815318 185.548243,20.5992013 183.349627,20.5992013" id="Oval-22-Copy-3" stroke="#DAE2E6" stroke-width="2" stroke-linecap="round" stroke-linejoin="round"></path>
                    <ellipse id="Oval-22-Copy-8" stroke="#DAE2E6" stroke-width="2" stroke-linecap="round" stroke-linejoin="round" cx="429.013099" cy="168.565798" rx="3.98094654" ry="3.98094654"></ellipse>
                    <ellipse id="Oval-22-Copy-7" stroke="#DAE2E6" stroke-width="2" stroke-linecap="round" stroke-linejoin="round" cx="305.733189" cy="3.7271939" rx="2.76830173" ry="2.76830173"></ellipse>
                    <path d="M442.836382,124.355376 C442.836382,120.757506 439.919733,117.840856 436.321863,117.840856 C432.723993,117.840856 429.807343,120.757506 429.807343,124.355376" id="Oval-22-Copy-4" stroke="#DAE2E6" stroke-width="2" stroke-linecap="round" stroke-linejoin="round"></path>
                    <path d="M53.0027649,175.863322 C53.0027649,171.915095 51.9656779,168.209093 50.1490567,165.002868 M46.393676,160.116798 C42.4132096,156.20984 36.9578699,153.800311 30.9397547,153.800311 C19.4952809,153.800311 10.0860012,162.514013 8.98451302,173.668818" id="Oval-22-Copy" stroke="#DAE2E6" stroke-width="2" stroke-linecap="round" stroke-linejoin="round"></path>
                    <path d="M420.040234,64.3092951 C420.22982,63.1456931 420.328386,61.9515235 420.328386,60.7343324 C420.328386,48.5492684 410.45044,38.6713223 398.265376,38.6713223 C388.300813,38.6713223 379.879125,45.2771546 377.140639,54.3484914" id="Oval-22-Copy-6" stroke="#DAE2E6" stroke-width="2" stroke-linecap="round" stroke-linejoin="round"></path>
                    <path d="M424.380705,70.0375842 C424.380705,66.9662872 421.890926,64.476509 418.819629,64.476509 C415.748332,64.476509 413.258554,66.9662872 413.258554,70.0375842" id="Oval-22-Copy-9" stroke="#DAE2E6" stroke-width="2" stroke-linecap="round" stroke-linejoin="round"></path>
                    <path d="M17.9938435,178.376218 C16.3526362,175.796443 13.4683139,174.084876 10.184234,174.084876 C5.07597884,174.084876 0.934919869,178.225935 0.934919869,183.33419" id="Oval-22-Copy-2" stroke="#DAE2E6" stroke-width="2" stroke-linecap="round" stroke-linejoin="round"></path>
                    <path d="M452.847485,138.59321 C454.08337,137.020702 454.820491,135.037672 454.820491,132.882478 C454.820491,127.774223 450.679432,123.633164 445.571177,123.633164 C442.174047,123.633164 439.204671,125.464595 437.596532,128.193973" id="Oval-22-Copy-5" stroke="#DAE2E6" stroke-width="2" stroke-linecap="round" stroke-linejoin="round"></path>
                    <path d="M30.7035276,198.182036 L443.90315,198.182036" id="Path-70" stroke="#404F54" stroke-width="2" stroke-linecap="round" fill="#404F54"></path>
                </g>
                <g id="Group-8" transform="translate(20.071243, 31.934637)">
                    <g id="Group-7">
                        <path d="M93.0764669,100.584147 C93.0764669,98.3739197 94.870826,96.5821767 97.0787625,96.5821767 L106.557596,96.5821767 C110.9748,96.5821767 114.555652,100.164559 114.555652,104.577994 L114.555652,165.696567 L93.0764669,165.696567 L93.0764669,100.584147 Z" id="Rectangle-3-Copy" stroke="#404F54" stroke-width="2" stroke-linecap="round" fill="#F5F6F7"></path>
                        <rect id="Rectangle-9-Copy-6" fill="#E6EBEE" x="106.373105" y="97.1677402" width="2.17548662" height="69.1143908"></rect>
                        <rect id="Rectangle-9-Copy-5" fill="#E6EBEE" x="110.464378" y="97.1677402" width="2.17548662" height="69.1143908"></rect>
                        <path d="M93.0764669,100.584147 C93.0764669,98.3739197 94.870826,96.5821767 97.0787625,96.5821767 L106.557596,96.5821767 C110.9748,96.5821767 114.555652,100.164559 114.555652,104.577994 L114.555652,165.696567 L93.0764669,165.696567 L93.0764669,100.584147 Z" id="Rectangle-3-Copy-3" stroke="#404F54" stroke-width="2" stroke-linecap="round"></path>
                        <rect id="Rectangle-8" stroke="#404F54" stroke-width="2" stroke-linecap="round" fill="#F5F6F7" x="16.8489341" y="96.5821767" width="43.4973467" height="12.079784" rx="4"></rect>
                        <rect id="Rectangle-8-Copy" stroke="#404F54" stroke-width="2" stroke-linecap="round" fill="#F5F6F7" transform="translate(22.812344, 72.207507) rotate(-270.000000) translate(-22.812344, -72.207507) " x="-13.4977058" y="66.1676152" width="72.6201006" height="12.079784" rx="4"></rect>
                        <rect id="Rectangle-3" fill="#F5F6F7" x="52.1637342" y="96.5821767" width="52.1637342" height="69.1143908" rx="4"></rect>
                        <path d="M57.6621337,97.0886821 C57.911447,97.0402324 58.1689919,97.0148495 58.4324404,97.0148495 L96.9670524,97.0148495 C97.339244,97.0148495 97.6995907,97.0654027 98.0415593,97.1600141 C95.5463179,104.936415 87.457047,110.63269 77.863203,110.63269 C68.2400486,110.63269 60.1306746,104.901556 57.6621337,97.0886821 Z" id="Combined-Shape" fill="#E6EDF1"></path>
                        <rect id="Rectangle-9" fill="#E6EBEE" x="19.433548" y="35.7986411" width="2.17548662" height="72.6201006"></rect>
                        <rect id="Rectangle-9-Copy-4" fill="#E6EBEE" x="23.5248213" y="35.7986411" width="2.17548662" height="72.6201006"></rect>
                        <rect id="Rectangle-9-Copy-8" fill="#E6EBEE" transform="translate(40.847808, 104.635113) rotate(-270.000000) translate(-40.847808, -104.635113) " x="39.8249894" y="92.8727023" width="2.04563664" height="23.5248213"></rect>
                        <rect id="Rectangle-9-Copy-9" fill="#E6EBEE" transform="translate(40.847808, 100.543840) rotate(-270.000000) translate(-40.847808, -100.543840) " x="39.8249894" y="88.7814291" width="2.04563664" height="23.5248213"></rect>
                        <rect id="Rectangle-9-Copy" fill="#DBE2E7" x="66.4831907" y="97.1677402" width="3.19830494" height="68.5288273"></rect>
                        <rect id="Rectangle-9-Copy-7" fill="#DBE2E7" x="58.3006441" y="97.1677402" width="3.19830494" height="68.5288273"></rect>
                        <rect id="Rectangle-9-Copy-3" fill="#DBE2E7" x="86.939557" y="97.1677402" width="3.19830494" height="68.5288273"></rect>
                        <rect id="Rectangle-9-Copy-2" fill="#DBE2E7" x="95.1221036" y="97.1677402" width="3.19830494" height="68.5288273"></rect>
                        <rect id="Rectangle-7" stroke="#404F54" stroke-width="2" stroke-linecap="round" fill="#85DAD2" x="88.3654097" y="118.60797" width="10.7725543" height="14.5277158"></rect>
                        <path d="M104.327468,115.795719 L104.327468,161.612972 C104.327468,163.868279 102.50152,165.696567 100.234268,165.696567 L56.2569349,165.696567 C53.9963226,165.696567 52.1637342,163.865727 52.1637342,161.605687 L52.1637342,100.673058 L52.1637342,100.673058 C52.1637342,98.4137265 53.9896828,96.5821767 56.2569349,96.5821767 L100.234268,96.5821767 C102.49488,96.5821767 104.327468,98.407062 104.327468,100.680397" id="Rectangle-3-Copy-4" stroke="#404F54" stroke-width="2" stroke-linecap="round"></path>
                        <path d="M88.4812758,122.898513 L98.3907348,122.898513" id="Path-37" stroke="#404F54" stroke-width="2" stroke-linecap="round" fill="#404F54"></path>
                        <path d="M30.4393328,23.3480936 L30.4393328,4.99402166 L29.9152423,4.99402166 L26.7712238,4.99402166 L26.7712238,0.551362999 L21.3122805,0.551362999 L21.3122805,1.35943079 L21.3122805,4.61783672 L17.0358278,4.61783672 L17.0358278,10.13745 L13.0809655,10.13745 L13.3476272,25.4598837 C13.3476272,25.4598837 13.8883588,32.6238879 19.4763896,32.6238879" id="Path-39" stroke="#404F54" stroke-width="2" stroke-linecap="round" fill="#F5F6F7"></path>
                        <rect id="Rectangle-11" stroke="#1EA69A" stroke-width="2" stroke-linecap="round" fill="#F5F6F7" x="6.13690991" y="16.3650931" width="32.7301862" height="5.11409159"></rect>
                        <path d="M29.7820922,33.234104 L34.2059812,23.1532506 L23.9023851,17.5417337 C23.9023851,17.5417337 21.7628569,22.6698091 26.0938533,25.5499816" id="Path-38" stroke="#404F54" stroke-width="2" stroke-linecap="round" fill="#F5F6F7"></path>
                        <path d="M17.2360868,42.6232565 L28.4945621,42.6232565" id="Path-40" stroke="#404F54" stroke-width="2" stroke-linecap="round" fill="#404F54"></path>
                        <rect id="Rectangle-10" fill="#586569" x="22.502003" y="39.8899144" width="5.11409159" height="5.11409159" rx="2.55704579"></rect>
                        <rect id="Rectangle-8-Copy-2" stroke="#404F54" stroke-width="2" stroke-linecap="round" transform="translate(22.812344, 72.207507) rotate(-270.000000) translate(-22.812344, -72.207507) " x="-13.4977058" y="66.1676152" width="72.6201006" height="12.079784" rx="4"></rect>
                        <polyline id="Path-41" stroke="#1EA69A" stroke-width="2" stroke-linecap="round" fill="#F5F6F7" points="5.09636207 16.4172828 0.89196949 19.1446198 5.03774455 21.5313744"></polyline>
                    </g>
                    <g id="Group-6" transform="translate(39.889914, 7.159728)">
                        <path d="M61.5227457,17.943226 C61.5227457,17.943226 61.0558387,8.29457866 58.1664451,6.36270778 C55.2770515,4.43083689 52.1314517,3.91345341 51.6079499,5.7210452 C51.0844481,7.52863698 51.6079499,12.0585148 51.6079499,12.0585148 C51.6079499,12.0585148 47.1274014,6.26366689 38.5127562,3.68783904 C29.8981111,1.11201119 21.3343247,-0.236703895 17.2277607,0.624072305 C13.1211967,1.48484851 8.94924275,5.64035938 11.3227825,8.29457866 C13.6963222,10.9487979 18.5940661,10.9487979 18.5940661,10.9487979 C18.5940661,10.9487979 8.72171639,14.0389501 4.03084937,16.7367627 C-0.660017646,19.4345752 -0.155635679,25.0776114 1.45578632,26.5146602 C3.06720831,27.9517091 9.76489607,26.9666538 9.76489607,26.9666538 C9.76489607,26.9666538 7.50760513,35.4837876 7.97527696,40.8859135 C8.44294879,46.2880394 9.93965161,51.730317 10.434856,53.7424913 C10.9300605,55.7546657 13.1211967,56.4575118 13.1211967,56.4575118 L66.4579646,57.3473502 C66.4579646,57.3473502 69.3045297,49.5709198 69.3045297,45.2284167 C69.3045297,40.8859135 69.0284389,34.5656519 68.4055137,31.2613573 C67.7825886,27.9570627 66.4579646,24.3170233 66.4579646,24.3170233 C66.4579646,24.3170233 69.9362499,23.7579585 71.4910771,23.7579585 C73.0459043,23.7579585 70.6138578,18.5562088 68.3194744,17.943226 C66.0250909,17.3302432 61.5227457,17.943226 61.5227457,17.943226 Z" id="Path-34" stroke="#404F54" stroke-width="2" stroke-linecap="round" fill="#85DAD3"></path>
                        <ellipse id="Oval-5" stroke="#404F54" stroke-width="2" stroke-linecap="round" fill="#F5F6F7" cx="13.7341795" cy="59.8818791" rx="5.84455951" ry="5.84455951"></ellipse>
                        <ellipse id="Oval-5-Copy" stroke="#404F54" stroke-width="2" stroke-linecap="round" fill="#F5F6F7" cx="64.6389009" cy="59.8818791" rx="5.84455951" ry="5.84455951"></ellipse>
                        <path d="M36.9702875,99.828666 L36.9702875,156.889725" id="Path-36" stroke="#404F54" stroke-width="2" stroke-linecap="round" fill="#F5F6F7"></path>
                        <path d="M41.0615608,99.828666 L41.0615608,156.889725" id="Path-36-Copy" stroke="#404F54" stroke-width="2" stroke-linecap="round" stroke-dasharray="8,8" fill="#F5F6F7"></path>
                        <path d="M48.6453263,106.406879 C49.91884,104.553882 50.6641656,102.309156 50.6641656,99.8901981 L50.6641656,99.0150451 C50.6641656,92.6584988 45.5124461,87.5014919 39.157478,87.5014919 C32.8011126,87.5014919 27.6507903,92.6562852 27.6507903,99.0150451 L27.6507903,99.8901981 C27.6507903,102.30812 28.3961991,104.55248 29.6697003,106.405465 C30.9331106,102.366899 34.7023629,99.4364255 39.157478,99.4364255 C43.6118195,99.4364255 47.3818242,102.368679 48.6453263,106.406879 Z" id="Combined-Shape" stroke="#404F54" stroke-width="2" stroke-linecap="round" fill="#E6EBEE"></path>
                        <rect id="Rectangle-31-Copy-3" stroke="#404F54" stroke-width="2" stroke-linecap="round" fill="#F5F6F7" x="33.5302676" y="78.9800592" width="11.2544207" height="20.180212" rx="5.62721035"></rect>
                        <rect id="Rectangle-31" stroke="#404F54" stroke-width="2" stroke-linecap="round" fill="#F5F6F7" x="15.6629912" y="19.578739" width="46.9889736" height="69.1358925" rx="23.4944868"></rect>
                        <polyline id="Path-35" stroke="#404F54" stroke-width="2" stroke-linecap="round" stroke-linejoin="round" fill="#F5F6F7" points="35.9754369 52.6976174 35.9754369 68.6920174 40.7453919 68.6920174"></polyline>
                        <rect id="Rectangle-31-Copy" stroke="#1EA69A" stroke-width="2" stroke-linecap="round" fill="#F5F6F7" x="19.0296165" y="48.7885996" width="16.8499522" height="16.3183316" rx="8.1591658"></rect>
                        <rect id="Rectangle-31-Copy-2" stroke="#1EA69A" stroke-width="2" stroke-linecap="round" fill="#F5F6F7" x="41.7409538" y="48.7885996" width="16.8499522" height="16.3183316" rx="8.1591658"></rect>
                        <ellipse id="Oval" fill="#1F5F59" cx="49.905135" cy="56.6032051" rx="2.13301184" ry="2.13301184"></ellipse>
                        <ellipse id="Oval-Copy" fill="#1F5F59" cx="27.9769473" cy="56.6032051" rx="2.13301184" ry="2.13301184"></ellipse>
                        <path d="M12.1403478,52.7570536 L18.3328888,52.7570536 M36.0065247,52.7570536 L41.706538,52.7570536 M58.8081077,52.7570536 L65.962843,52.7570536" id="Path-33" stroke="#1EA69A" stroke-width="2" stroke-linecap="round" fill="#F5F6F7"></path>
                        <path d="M35.4719886,74.87685 C35.4719886,77.1124997 37.2843408,78.9248519 39.5199906,78.9248519 C41.7556403,78.9248519 43.5679925,77.1124997 43.5679925,74.87685" id="Oval-5-Copy-2" stroke="#1EA69A" stroke-width="2" stroke-linecap="round" fill="#F5F6F7"></path>
                        <path d="M45.454031,39.5758206 C45.454031,42.2364195 47.6108726,44.3932611 50.2714715,44.3932611 C52.9320705,44.3932611 55.088912,42.2364195 55.088912,39.5758206" id="Oval-5-Copy-3" stroke="#404F54" stroke-width="2" stroke-linecap="round" fill="#F5F6F7" transform="translate(50.271472, 41.984541) rotate(-180.000000) translate(-50.271472, -41.984541) "></path>
                        <path d="M22.7426938,39.5758206 C22.7426938,42.2364195 24.8995354,44.3932611 27.5601343,44.3932611 C30.2207332,44.3932611 32.3775748,42.2364195 32.3775748,39.5758206" id="Oval-5-Copy-4" stroke="#404F54" stroke-width="2" stroke-linecap="round" fill="#F5F6F7" transform="translate(27.560134, 41.984541) rotate(-180.000000) translate(-27.560134, -41.984541) "></path>
                    </g>
                </g>
                <g id="Group-8-Copy-2" transform="translate(274.753004, 43.185639)">
                    <g id="Group-7" transform="translate(0.000000, 84.893920)">
                        <path d="M51.1409159,4.43922485 C51.1409159,2.22899784 52.935275,0.437254831 55.1432115,0.437254831 L64.622045,0.437254831 C69.0392491,0.437254831 72.6201006,4.01963682 72.6201006,8.43307233 L72.6201006,69.5516456 L51.1409159,69.5516456 L51.1409159,4.43922485 Z" id="Rectangle-3-Copy" stroke="#404F54" stroke-width="2" stroke-linecap="round" fill="#85DAD2"></path>
                        <path d="M0,8.43307233 C0,4.01710426 3.58303985,0.437254831 7.99805559,0.437254831 L13.4811291,0.437254831 C17.8983332,0.437254831 21.4791847,4.01963682 21.4791847,8.43307233 L21.4791847,69.5516456 L0,69.5516456 L0,8.43307233 Z" id="Rectangle-3-Copy-7" stroke="#404F54" stroke-width="2" stroke-linecap="round" fill="#85DAD2"></path>
                        <path d="M51.1409159,4.43922485 C51.1409159,2.22899784 52.935275,0.437254831 55.1432115,0.437254831 L64.622045,0.437254831 C69.0392491,0.437254831 72.6201006,4.01963682 72.6201006,8.43307233 L72.6201006,69.5516456 L51.1409159,69.5516456 L51.1409159,4.43922485 Z" id="Rectangle-3-Copy-3" stroke="#404F54" stroke-width="2" stroke-linecap="round"></path>
                        <rect id="Rectangle-3" fill="#F5F6F7" x="10.2281832" y="0.437254831" width="52.1637342" height="69.1143908" rx="4"></rect>
                        <path d="M20.2469955,1.12582203 C20.6464602,0.992597201 21.0743067,0.920440869 21.5196495,0.920440869 L52.1408271,0.920440869 C52.6766108,0.920440869 53.1878355,1.02526313 53.6549907,1.21566597 C51.5198994,7.57987325 44.8559888,12.2221738 36.9658944,12.2221738 C29.0387187,12.2221738 22.3492794,7.53613561 20.2469955,1.12582203 Z" id="Combined-Shape" fill="#E6EBEE"></path>
                        <path d="M27.0096442,0.437254831 L47.2140385,0.437254831 L47.2140385,2.98139958 C47.2140385,8.56149112 42.6923575,13.0850491 37.1118413,13.0850491 C31.5325519,13.0850491 27.0096442,8.56995594 27.0096442,2.98139958 L27.0096442,0.437254831 Z" id="Combined-Shape" fill="#85DAD2"></path>
                        <path d="M47.0496426,20.4563664 C47.0496426,23.2671479 49.3282312,25.5457365 52.1390128,25.5457365 C54.9497943,25.5457365 57.2283829,23.2671479 57.2283829,20.4563664" id="Oval-9" stroke="#85DAD2" stroke-width="2" stroke-linecap="round"></path>
                        <path d="M50.1180976,20.4563664 C50.6829845,20.4563664 51.1409159,19.998435 51.1409159,19.433548 C51.1409159,18.8686611 50.6829845,18.4107297 50.1180976,18.4107297 C49.5532106,18.4107297 49.0952793,18.8686611 49.0952793,19.433548 C49.0952793,19.998435 49.5532106,20.4563664 50.1180976,20.4563664 Z M54.2093708,20.4563664 C54.7742578,20.4563664 55.2321892,19.998435 55.2321892,19.433548 C55.2321892,18.8686611 54.7742578,18.4107297 54.2093708,18.4107297 C53.6444839,18.4107297 53.1865525,18.8686611 53.1865525,19.433548 C53.1865525,19.998435 53.6444839,20.4563664 54.2093708,20.4563664 Z" id="Combined-Shape" fill="#85DAD2"></path>
                        <path d="M62.3919174,19.650797 L62.3919174,65.4680497 C62.3919174,67.7233575 60.5659687,69.5516456 58.2987167,69.5516456 L14.3213839,69.5516456 C12.0607716,69.5516456 10.2281832,67.7208056 10.2281832,65.4607647 L10.2281832,18.2818786 M10.2281832,4.52813573 C10.2281832,2.2688046 12.0541318,0.437254831 14.3213839,0.437254831 L58.2987167,0.437254831 C60.559329,0.437254831 62.3919174,2.2621401 62.3919174,4.53547509" id="Rectangle-3-Copy-4" stroke="#404F54" stroke-width="2" stroke-linecap="round"></path>
                    </g>
                    <g id="Group-6" transform="translate(5.114092, 0.000000)">
                        <ellipse id="Oval-5" stroke="#404F54" stroke-width="2" stroke-linecap="round" fill="#F5F6F7" cx="6.57445126" cy="52.7221509" rx="5.84455951" ry="5.84455951"></ellipse>
                        <ellipse id="Oval-5-Copy" stroke="#404F54" stroke-width="2" stroke-linecap="round" fill="#F5F6F7" cx="57.4791726" cy="52.7221509" rx="5.84455951" ry="5.84455951"></ellipse>
                        <path d="M29.3207918,92.0604408 L29.3207918,153.817657" id="Path-36" stroke="#404F54" stroke-width="2" stroke-linecap="round" fill="#F5F6F7"></path>
                        <rect id="Rectangle-31-Copy-10" stroke="#404F54" stroke-width="2" stroke-linecap="round" fill="#F5F6F7" x="26.3705394" y="71.820331" width="11.2544207" height="20.180212" rx="5.62721035"></rect>
                        <rect id="Rectangle-31" stroke="#404F54" stroke-width="2" stroke-linecap="round" fill="#F5F6F7" x="8.50326297" y="12.4190108" width="46.9889736" height="69.1358925" rx="23.4944868"></rect>
                        <polyline id="Path-35" stroke="#404F54" stroke-width="2" stroke-linecap="round" stroke-linejoin="round" fill="#F5F6F7" points="28.8157086 51.8888068 28.8157086 63.5779259 33.5856637 63.5779259"></polyline>
                        <circle id="Oval" fill="#404F54" cx="42.7454068" cy="54.5575685" r="2.13301184"></circle>
                        <ellipse id="Oval-Copy" fill="#404F54" cx="20.8172191" cy="54.5575685" rx="2.13301184" ry="2.13301184"></ellipse>
                        <path d="M29.3768011,71.3617942 C30.1704559,71.9022629 31.1292835,72.2181893 32.1618997,72.2181893 C34.8979919,72.2181893 37.1160329,70.0001483 37.1160329,67.2640562" id="Oval-5-Copy-2" stroke="#1EA69A" stroke-width="2" stroke-linecap="round" fill="#F5F6F7"></path>
                        <path d="M38.2943028,43.6670938 C38.2943028,46.3276928 40.4511444,48.4845343 43.1117433,48.4845343 C45.7723422,48.4845343 47.9291838,46.3276928 47.9291838,43.6670938" id="Oval-5-Copy-3" stroke="#404F54" stroke-width="2" stroke-linecap="round" fill="#F5F6F7" transform="translate(43.111743, 46.075814) rotate(-180.000000) translate(-43.111743, -46.075814) "></path>
                        <path d="M15.5829656,43.6670938 C15.5829656,46.3276928 17.7398072,48.4845343 20.4004061,48.4845343 C23.061005,48.4845343 25.2178466,46.3276928 25.2178466,43.6670938" id="Oval-5-Copy-4" stroke="#404F54" stroke-width="2" stroke-linecap="round" fill="#F5F6F7" transform="translate(20.400406, 46.075814) rotate(-180.000000) translate(-20.400406, -46.075814) "></path>
                        <path d="M17.1461907,28.5545473 C17.1461907,28.5545473 26.5030977,31.0194893 32.1985176,31.0194893 C37.8939376,31.0194893 46.9897119,28.5545473 46.9897119,28.5545473 C46.9897119,28.5545473 49.3689631,33.8511933 50.3927802,35.8688033 C51.4165974,37.8864133 56.1231598,46.3034728 56.1231598,46.3034728 L60.0945716,46.6920557 L61.5818533,31.0194893 C61.5818533,31.0194893 61.700715,26.0377101 60.0945716,22.6242509 C58.8476961,19.9743266 54.506887,16.4746813 53.0776783,15.273067 C51.7753351,14.1781155 48.7308393,12.3836278 45.2716967,9.680158 C40.0448309,5.59513594 34.1555394,0.437254831 34.1555394,0.437254831 C34.1555394,0.437254831 33.8492046,4.19498012 34.1555394,5.74061496 C34.4598325,7.27594784 35.987423,9.680158 35.987423,9.680158 C35.987423,9.680158 29.0795914,4.71681399 25.2188641,2.97437426 C22.7991807,1.8823125 17.1461907,1.17665351 17.1461907,1.17665351 L22.6628172,10.8148538 C22.6628172,10.8148538 17.6366314,7.61568135 14.1186884,6.7007422 C11.133145,5.92426839 3.15235802,6.7007422 3.15235802,6.7007422 L9.81965516,14.3204932 C9.81965516,14.3204932 4.03070357,19.1776182 3.15235802,21.5466256 C2.38926662,23.6047783 3.15235802,30.0031309 3.15235802,30.0031309 L4.75550587,46.1842962 L8.73790493,46.2900444 L14.1186884,35.8688033 L17.1461907,28.5545473 Z" id="Path-53" stroke="#404F54" stroke-width="2" stroke-linecap="round" fill="#E6EBEE"></path>
                    </g>
                </g>
                <g id="Group-8-Copy" transform="translate(194.973176, 29.303437)">
                    <g id="Group-7" transform="translate(0.072416, 91.192144)">
                        <path d="M58.3006441,4.43597585 C58.3006441,2.22754321 60.0950032,0.437254831 62.3029397,0.437254831 L71.7817732,0.437254831 C76.1989773,0.437254831 79.7798288,4.01778508 79.7798288,8.4392286 L79.7798288,77.0682016 L58.3006441,77.0682016 L58.3006441,4.43597585 Z" id="Rectangle-3-Copy" stroke="#404F54" stroke-width="2" stroke-linecap="round" fill="#F5F6F7"></path>
                        <path d="M66.4831907,0.437254831 L71.7817732,0.437254831 C76.1989773,0.437254831 79.7798288,4.01963682 79.7798288,8.43307233 L79.7798288,33.7530045 L66.4831907,33.7530045 L66.4831907,0.437254831 Z" id="Combined-Shape" stroke="#404F54" stroke-width="2" stroke-linecap="round" fill="#FFAA83"></path>
                        <path d="M7.07049619,8.36919834 C7.68466464,3.9885069 11.7688324,0.437254831 16.1822311,0.437254831 L22.2502938,0.437254831 L14.7618568,53.8501771 C14.3785107,56.5844775 11.8386709,58.801066 9.06837557,58.801066 L4.99937168,58.801066 C2.23829494,58.801066 0.310773769,56.5844038 0.694109552,53.8501771 L7.07049619,8.36919834 Z" id="Rectangle-3-Copy-2" stroke="#404F54" stroke-width="2" stroke-linecap="round" fill="#F5F6F7"></path>
                        <path d="M17.8286682,31.9754713 L22.2502938,0.437254831 L16.1822311,0.437254831 C11.7688324,0.437254831 7.68466464,3.9885069 7.07049619,8.36919834 L4.17186349,29.044333 L17.8286682,31.9754713 Z" id="Combined-Shape" stroke="#404F54" stroke-width="2" stroke-linecap="round" fill="#FFAA83"></path>
                        <path d="M58.3006441,4.43597585 C58.3006441,2.22754321 60.0950032,0.437254831 62.3029397,0.437254831 L71.7817732,0.437254831 C76.1989773,0.437254831 79.7798288,4.01778508 79.7798288,8.4392286 L79.7798288,77.0682016 L58.3006441,77.0682016 L58.3006441,4.43597585 Z" id="Rectangle-3-Copy-3" stroke="#404F54" stroke-width="2" stroke-linecap="round"></path>
                        <rect id="Rectangle-3" fill="#F5F6F7" x="17.3879114" y="0.437254831" width="52.1637342" height="76.6309468" rx="4"></rect>
                        <path d="M27.7348165,1.6592869 C28.1342811,1.52606206 28.5621277,1.45390573 29.0074705,1.45390573 L59.628648,1.45390573 C60.1644318,1.45390573 60.6756564,1.558728 61.1428117,1.74913083 C59.0077203,8.11333812 52.3438098,12.7556386 44.4537154,12.7556386 C36.5265397,12.7556386 29.8371004,8.06960047 27.7348165,1.6592869 Z" id="Combined-Shape" fill="#E6EBEE"></path>
                        <path d="M31.9838962,18.4947206 C31.2803546,16.9919091 32.0493109,15.7736396 33.7095294,15.7736396 L49.1204824,15.7736396 C50.7770649,15.7736396 51.5584951,17.0007698 50.8749114,18.4947206 L42.7824605,36.1805193 C42.0948224,37.6833308 40.9705003,37.690704 40.2635069,36.1805193 L31.9838962,18.4947206 Z" id="Path-50-Copy" fill="#DAE2E6" opacity="0.5" transform="translate(41.422726, 26.542017) rotate(-180.000000) translate(-41.422726, -26.542017) "></path>
                        <path d="M37.3014119,23.6396126 C36.4889842,22.1970822 37.1730287,21.0276802 38.823426,21.0276802 L56.8530162,21.0276802 C58.506029,21.0276802 59.1994173,22.2024018 58.4023633,23.6503661 L49.4191879,39.9696085 C48.6218559,41.4180779 47.3138918,41.4175728 46.5044602,39.980362 L37.3014119,23.6396126 Z" id="Path-50-Copy-2" fill="#DAE2E6" opacity="0.5" transform="translate(47.846081, 31.042399) rotate(-180.000000) translate(-47.846081, -31.042399) "></path>
                        <path d="M69.5516456,21.7403715 L69.5516456,72.540493 C69.5516456,75.0410774 67.725697,77.0682016 65.4584449,77.0682016 L21.4811121,77.0682016 C19.2204998,77.0682016 17.3879114,75.038248 17.3879114,72.5324157 L17.3879114,19.8183472 M17.3879114,4.97304069 C17.3879114,2.46799533 19.21386,0.437254831 21.4811121,0.437254831 L65.4584449,0.437254831 C67.7190572,0.437254831 69.5516456,2.46060604 69.5516456,4.98117825" id="Rectangle-3-Copy-4" stroke="#404F54" stroke-width="2" stroke-linecap="round"></path>
                        <rect id="Rectangle-16" fill="#DAE2E6" x="18.3567517" y="56.5044189" width="24.9310303" height="8"></rect>
                        <rect id="Rectangle-32" stroke="#404F54" stroke-width="2" stroke-linecap="round" fill="#F5F6F7" x="1.45132326" y="47.0496426" width="40.8797708" height="12.2738198" rx="3"></rect>
                        <path d="M44.6248181,57.0752197 L44.6248181,61.1128884 C44.6248181,61.6619254 45.0678338,62.2022434 45.6105589,62.3189137 L53.3614895,63.9851401 C53.9058991,64.1021724 54.7833576,64.0582087 55.3045205,63.8923012 L60.7124497,62.1707359 C61.2411465,62.0024301 61.8894896,61.4682882 62.1498183,60.9971451 L63.8749644,57.8749741 C64.1401043,57.3951236 64.3550427,56.5644889 64.3550427,56.0019021 L64.3550427,46.727982 L60.4290173,57.5312744 L54.8457654,59.455835 L44.6248181,57.0752197 Z" id="Path-73" fill="#DAE2E6"></path>
                        <path d="M45.1423462,46.9152978 C45.1423462,46.9152978 49.6835996,41.9785014 50.3068795,38.9619864 C50.9301594,35.9454715 50.6354998,34.3488161 50.6354998,34.3488161 C50.6354998,34.3488161 55.6616929,34.8317582 56.2195484,39.3280635 C56.7774039,43.8243688 55.2551626,45.5323955 55.2551626,45.5323955" id="Path-51" stroke="#404F54" stroke-width="2" stroke-linecap="round" fill="#F5F6F7"></path>
                        <path d="M45.4894451,57.1964198 L54.4830547,59.5277264 L60.500103,58.0044863 L63.5246088,47.0386553 C63.5246088,47.0386553 60.0061737,44.0461127 59.0138202,44.0461127" id="Path-52" stroke="#404F54" stroke-width="2" stroke-linecap="round" stroke-linejoin="round" fill="#F5F6F7"></path>
                    </g>
                    <g id="Group-6" transform="translate(12.273820, 0.000000)">
                        <ellipse id="Oval-5" stroke="#404F54" stroke-width="2" stroke-linecap="round" fill="#F5F6F7" cx="6.57445126" cy="55.7906059" rx="5.84455951" ry="5.84455951"></ellipse>
                        <ellipse id="Oval-5-Copy" stroke="#404F54" stroke-width="2" stroke-linecap="round" fill="#F5F6F7" cx="57.4791726" cy="55.7906059" rx="5.84455951" ry="5.84455951"></ellipse>
                        <path d="M14.3154611,74.0354654 C14.3154611,74.0354654 10.2566503,81.3450205 13.4994039,82.4652263 C16.7421575,83.5854321 20.2386179,79.1445627 20.2386179,79.1445627 C20.2386179,79.1445627 17.241081,84.5727914 20.2386179,86.6783588 C23.2361548,88.7839262 29.9883539,83.974982 29.9883539,81.5597724 C29.9883539,79.1445627 36.6536533,81.3570066 36.6536533,81.3570066 C36.6536533,81.3570066 38.0080885,86.0760546 41.0156139,86.6783588 C44.0231392,87.2806629 45.542384,86.1679485 45.542384,83.4096352 C45.542384,80.6513219 44.0231392,78.5991928 44.0231392,78.5991928 C44.0231392,78.5991928 49.4348869,83.1983793 51.6313493,81.5597724 C53.6526223,80.0518604 53.3268904,76.4916277 50.4806787,74.0354654 C47.634467,71.579303 50.6995259,72.5361836 50.4806787,72.3723868 C47.7368487,70.3187594 14.3154611,74.0354654 14.3154611,74.0354654 Z" id="Path-49" stroke="#404F54" stroke-width="2" stroke-linecap="round" fill="#DAE2E6"></path>
                        <rect id="Rectangle-31-Copy-3" stroke="#404F54" stroke-width="2" stroke-linecap="round" fill="#F5F6F7" x="26.3705394" y="76.9344226" width="11.2544207" height="20.180212" rx="5.62721035"></rect>
                        <rect id="Rectangle-31" stroke="#404F54" stroke-width="2" stroke-linecap="round" fill="#F5F6F7" x="8.50326297" y="15.4874657" width="46.9889736" height="69.1358925" rx="23.4944868"></rect>
                        <rect id="Rectangle-15" stroke="#404F54" stroke-width="2" stroke-linecap="round" fill="#F5F6F7" x="26.484402" y="0" width="10.4459316" height="9.20536486" rx="3"></rect>
                        <path d="M9.4862903,38.7504708 L9.4862903,45.6931997 C9.4862903,45.6931997 19.8071164,32.4847098 32.7821262,33.6453688 C45.7571359,34.8060279 54.5999196,44.9657901 54.5999196,44.9657901 L54.3232393,29.9549498 L33.3614569,21.6382409 L10.7385935,28.6001976 L9.4862903,38.7504708 Z" id="Path-60" fill="#DAE2E6"></path>
                        <path d="M59.1584466,44.8881405 L59.1584466,29.9607205 C59.1584466,15.599429 47.5146238,3.95638173 33.1512404,3.95638173 L30.8442591,3.95638173 C16.4736858,3.95638173 4.83705293,15.5989208 4.83705293,29.9607205 L4.83705293,44.8893595 C9.66253635,35.8568595 19.1844833,29.7106139 30.1430949,29.7106139 L33.8524046,29.7106139 C44.8105431,29.7106139 54.3328175,35.8553381 59.158448,44.8881432 Z" id="Combined-Shape" stroke="#404F54" stroke-width="2" stroke-linecap="round" fill="#F5F6F7"></path>
                        <path d="M4.66433909,50.192886 C4.66433909,36.0171854 16.1576157,24.5255096 30.3370337,24.5255096 L33.6584658,24.5255096 C47.8371035,24.5255096 59.3311604,36.0140686 59.3311604,50.192886" id="Rectangle-31-Copy-8" stroke="#404F54" stroke-width="2" stroke-linecap="round"></path>
                        <polyline id="Path-35" stroke="#404F54" stroke-width="2" stroke-linecap="round" stroke-linejoin="round" fill="#F5F6F7" points="29.838527 49.9460463 29.838527 64.6007442 34.608482 64.6007442"></polyline>
                        <path d="M28.3122604,70.7855767 C28.3122604,73.0212265 30.1246126,74.8335787 32.3602623,74.8335787 C34.5959121,74.8335787 36.4082643,73.0212265 36.4082643,70.7855767" id="Oval-5-Copy-2" stroke="#FFAA83" stroke-width="2" stroke-linecap="round" fill="#F5F6F7"></path>
                        <path d="M26.9748582,9.7645529 C25.8727973,10.9634439 25.1999485,12.5631238 25.1999485,14.3199559 M25.9144659,17.3417272 C26.4660732,18.4382464 27.3085196,19.3633018 28.3405273,20.0156153 C29.380187,20.6727656 30.6122294,21.0531144 31.9331071,21.0531144 L31.9331071,21.0531144 C35.6517278,21.0531144 38.6662656,18.0385767 38.6662656,14.3199559 C38.6662656,10.6013351 35.6517278,7.58679732 31.9331071,7.58679732" id="Oval-8" stroke="#404F54" stroke-width="2" stroke-linecap="round"></path>
                        <path d="M38.2943028,39.5758206 C38.2943028,42.2364195 40.4511444,44.3932611 43.1117433,44.3932611 C45.7723422,44.3932611 47.9291838,42.2364195 47.9291838,39.5758206" id="Oval-5-Copy-3" stroke="#404F54" stroke-width="2" stroke-linecap="round" fill="#F5F6F7" transform="translate(43.111743, 41.984541) rotate(-180.000000) translate(-43.111743, -41.984541) "></path>
                        <path d="M40.0717987,51.71557 C40.0717987,53.3944851 41.4328283,54.7555146 43.1117433,54.7555146 C44.7906584,54.7555146 46.1516879,53.3944851 46.1516879,51.71557" id="Oval-5-Copy-7" stroke="#404F54" stroke-width="2" stroke-linecap="round" fill="#F5F6F7" transform="translate(43.111743, 53.235542) rotate(-180.000000) translate(-43.111743, -53.235542) "></path>
                        <path d="M17.5697957,51.71557 C17.5697957,53.3944851 18.9308253,54.7555146 20.6097403,54.7555146 C22.2886554,54.7555146 23.6496849,53.3944851 23.6496849,51.71557" id="Oval-5-Copy-8" stroke="#404F54" stroke-width="2" stroke-linecap="round" fill="#F5F6F7" transform="translate(20.609740, 53.235542) rotate(-180.000000) translate(-20.609740, -53.235542) "></path>
                        <path d="M15.5829656,39.5758206 C15.5829656,42.2364195 17.7398072,44.3932611 20.4004061,44.3932611 C23.061005,44.3932611 25.2178466,42.2364195 25.2178466,39.5758206" id="Oval-5-Copy-4" stroke="#404F54" stroke-width="2" stroke-linecap="round" fill="#F5F6F7" transform="translate(20.400406, 41.984541) rotate(-180.000000) translate(-20.400406, -41.984541) "></path>
                        <path d="M21.8060194,90.549219 C20.7974908,89.2317016 21.3186837,88.1636428 22.9884819,88.1636428 L40.9176243,88.1636428 C42.5792089,88.1636428 43.1219404,89.2385933 42.1285157,90.5663941 L33.8875995,101.581114 C32.8947718,102.908117 31.2765499,102.921291 30.2638233,101.598289 L21.8060194,90.549219 Z" id="Path-50" stroke="#404F54" stroke-width="2" stroke-linecap="round" fill="#DAE2E6"></path>
                    </g>
                </g>
                <g id="Group-10" transform="translate(128.973176, 68.211306)">
                    <g id="Group-9" transform="translate(1.022818, 70.574464)">
                        <rect id="Rectangle-12-Copy" stroke="#404F54" stroke-width="2" stroke-linecap="round" fill="#F5F6F7" x="0" y="0.721166822" width="18.5425774" height="50.8570039" rx="3"></rect>
                        <rect id="Rectangle-12-Copy-3" stroke="#404F54" stroke-width="2" stroke-linecap="round" fill="#F5F6F7" x="45.004006" y="0.721166822" width="18.5425774" height="58.6022956" rx="3"></rect>
                        <rect id="Rectangle-12" fill="#F5F6F7" x="8.58657976" y="0.721166822" width="46.6456094" height="58.6022956" rx="3"></rect>
                        <path d="M8.58657976,55.1409159 L8.58657976,43.8899144 L35.2079103,43.8899144 C36.8636322,43.8899144 38.20586,45.2247339 38.20586,46.8901966 L38.20586,52.1406336 C38.20586,53.7976438 36.8684953,55.1409159 35.2079103,55.1409159 L8.58657976,55.1409159 Z" id="Combined-Shape" fill="#DAE2E6"></path>
                        <path d="M15.7844145,1.36909829 C16.1838792,1.23587346 16.6117257,1.16371713 17.0570685,1.16371713 L47.6782461,1.16371713 C48.2140298,1.16371713 48.7252544,1.2685394 49.1924097,1.45894223 C47.0573184,7.82314951 40.3934078,12.46545 32.5033134,12.46545 C24.5761377,12.46545 17.8866984,7.77941187 15.7844145,1.36909829 Z" id="Combined-Shape" fill="#DAE2E6"></path>
                        <path d="M8.58657976,3.7798168 C8.58657976,2.09057106 9.95733251,0.721166822 11.6471285,0.721166822 L52.1716404,0.721166822 C53.8619348,0.721166822 55.2321892,2.0984776 55.2321892,3.78359745 M55.2321892,17.2081191 L55.2321892,56.2607065 C55.2321892,57.9522199 53.8614364,59.3234624 52.1716404,59.3234624 L11.6471285,59.3234624 C9.95683409,59.3234624 8.58657976,57.9562015 8.58657976,56.2639575 L8.58657976,16.7816119" id="Rectangle-12-Copy-4" stroke="#404F54" stroke-width="2" stroke-linecap="round"></path>
                        <rect id="Rectangle-12-Copy-2" stroke="#404F54" stroke-width="2" stroke-linecap="round" fill="#F5F6F7" x="20.4563664" y="21.1585551" width="30.4273467" height="38.1649073" rx="3"></rect>
                        <path d="M40.9676692,49.3983124 L40.9676692,52.1203319 C40.9676692,52.6706799 41.4101469,53.1898661 41.9566451,53.2800781 L49.8903607,54.5897186 L49.8903607,50.1032256 L40.9676692,49.3983124 Z" id="Path-71" fill="#DAE2E6"></path>
                        <path d="M20.4563664,55.1409159 L20.4563664,43.8899144 L35.2079103,43.8899144 C36.8636322,43.8899144 38.20586,45.2247339 38.20586,46.8901966 L38.20586,52.1406336 C38.20586,53.7976438 36.8684953,55.1409159 35.2079103,55.1409159 L20.4563664,55.1409159 Z" id="Combined-Shape" fill="#DAE2E6"></path>
                        <rect id="Rectangle-14" stroke="#404F54" stroke-width="2" stroke-linecap="round" fill="#FFAA83" x="16.3650931" y="27.6160946" width="8.18254654" height="4.09127327" rx="2.04563664"></rect>
                        <rect id="Rectangle-14-Copy" stroke="#404F54" stroke-width="2" stroke-linecap="round" fill="#FFAA83" x="16.3650931" y="35.7986411" width="8.18254654" height="4.09127327" rx="2.04563664"></rect>
                        <rect id="Rectangle-14-Copy-2" stroke="#404F54" stroke-width="2" stroke-linecap="round" fill="#FFAA83" x="16.3650931" y="51.1409159" width="8.18254654" height="4.09127327" rx="2.04563664"></rect>
                        <rect id="Rectangle-13" stroke="#404F54" stroke-width="2" stroke-linecap="round" fill="#F5F6F7" x="0" y="39.8899144" width="38.20586" height="11.2510015" rx="3"></rect>
                        <rect id="Rectangle-13-Copy" stroke="#404F54" stroke-width="2" stroke-linecap="round" fill="#F5F6F7" x="28.6389129" y="39.8899144" width="4.45285553" height="11.2510015" rx="2.22642776"></rect>
                        <circle id="Oval-7" stroke="#404F54" stroke-width="2" stroke-linecap="round" fill="#FFAA83" cx="30.528355" cy="46.8934481" r="3.93507873"></circle>
                        <polyline id="Path-46" stroke="#404F54" stroke-width="2" stroke-linecap="round" fill="#F5F6F7" points="40.9676692 39.4763921 48.461012 35.6428211 50.7064179 38.9509991"></polyline>
                        <polyline id="Path-47" stroke="#404F54" stroke-width="2" stroke-linecap="round" stroke-linejoin="round" fill="#F5F6F7" points="41.916573 49.3949331 51.4635432 50.7423763 57.8641484 49.7275488 57.8641484 36.5224007 52.5103338 35.51397"></polyline>
                        <path d="M23.5832538,1.1396833 L23.5832538,15.0587873 C23.5832538,16.1633862 24.4788987,17.0588405 25.5776996,17.0588405 L28.54877,17.0588405 C29.650272,17.0588405 30.5432158,16.1591711 30.5432158,15.0539525 L30.5432158,9.72176546" id="Path-48" stroke="#404F54" stroke-width="2" stroke-linecap="round" fill="#E6EBEE"></path>
                    </g>
                    <g id="Group-6-Copy">
                        <path d="M13.5678248,70.3212565 C13.5678248,70.3212565 20.8284365,64.1004435 34.5071332,64.1004435 C48.18583,64.1004435 56.0187804,70.0565623 56.0187804,70.0565623 L59.8878104,53.6899709 L57.8097113,39.908393 L40.4647503,34.7283776 L12.3747033,36.6546522 L9.41811906,54.7667269 L13.5678248,70.3212565 Z" id="Path-45" stroke="#404F54" stroke-width="2" stroke-linecap="round" fill="#E6EBEE"></path>
                        <path d="M62.9312942,29.877482 L62.9312942,65.913983 C62.9312942,65.913983 62.9312942,74.1388459 57.0955364,76.4631606 C51.2597786,78.7874753 47.3942445,77.3945845 47.3942445,77.3945845 C47.3942445,77.3945845 51.0350382,74.5473739 52.8124847,72.2764975 C54.5899312,70.0056211 54.4201274,65.7899915 54.4201274,65.7899915 L54.4201274,32.5739088 L62.9312942,29.877482 Z" id="Path-44" stroke="#404F54" stroke-width="2" stroke-linecap="round" fill="#E6EBEE"></path>
                        <ellipse id="Oval-5" stroke="#1F5F59" stroke-width="2" stroke-linecap="round" fill="#F5F6F7" cx="8.6200879" cy="42.4939677" rx="5.84455951" ry="5.84455951"></ellipse>
                        <ellipse id="Oval-5-Copy" stroke="#404F54" stroke-width="2" stroke-linecap="round" fill="#F5F6F7" cx="56.4563543" cy="42.4939677" rx="5.84455951" ry="5.84455951"></ellipse>
                        <rect id="Rectangle-31-Copy-3" stroke="#404F54" stroke-width="2" stroke-linecap="round" fill="#FFAA83" x="25.584772" y="63.2363749" width="16.9172287" height="16.8650823" rx="8.43254114"></rect>
                        <rect id="Rectangle-31-Copy-6" stroke="#404F54" stroke-width="2" stroke-linecap="round" fill="#F5F6F7" x="28.4161761" y="54.4324196" width="11.2544207" height="20.180212" rx="5.62721035"></rect>
                        <rect id="Rectangle-31" stroke="#404F54" stroke-width="2" stroke-linecap="round" fill="#F5F6F7" x="12.860403" y="11.7551112" width="42.3659668" height="54.5497187" rx="21.1829834"></rect>
                        <path d="M54.236964,38.7775745 C54.236964,38.7775745 46.5032969,35.375505 43.2976662,32.7849978 C40.0920354,30.1944907 38.4539009,20.3443707 38.4539009,20.3443707 L54.236964,25.3008944 L54.236964,38.7775745 Z" id="Path-58" fill="#DAE2E6"></path>
                        <path d="M11.1371331,39.5413171 C11.1371331,39.5413171 21.4232493,40.1635982 27.1346508,38.0490412 C32.8460523,35.9344842 40.320417,29.8345316 42.4149971,26.1068383 C44.5095772,22.3791449 40.0437367,17.5107695 40.0437367,17.5107695 L28.3312683,19.4874857 L11.2629876,34.0596502 L11.1371331,39.5413171 Z" id="Path-59" fill="#DAE2E6"></path>
                        <path d="M41.0014466,23.2339426 C38.9068227,26.2471441 36.0273929,29.3035619 32.1303791,31.5530461 C21.0921318,37.9246849 14.7070087,39.3005952 14.7070087,39.3005952 L15.0186487,65.8539177 C15.0186487,65.8539177 15.0186487,70.9804948 16.9853765,73.2893274 C18.9521043,75.59816 22.0360413,77.9019983 22.0360413,77.9019983 C22.0360413,77.9019983 15.8896424,79.6349961 8.9696372,77.9019983 C2.04963202,76.1690005 0.286668806,67.5359744 0.286668806,67.5359744 L0.459303724,30.41586 C0.459303724,30.41586 1.79067964,3.04481006 23.1647373,0.720167976 C36.356356,-1.54666063 41.9421227,2.74718458 44.3070235,6.74010706 C44.4169541,6.68372135 44.5290524,6.63103638 44.6433597,6.58225346 C49.7006163,4.42396878 55.4611225,4.85678413 60.1145485,11.8098558 C64.7679745,18.7629275 62.8623739,41.3607151 62.8623739,41.3607151 L54.8725573,35.8767241 C54.8725573,35.8767241 49.3340035,33.3544649 45.2432296,29.1922736 C43.484913,27.40326 42.0575323,25.1835647 41.0014466,23.2339426 Z" id="Combined-Shape" stroke="#404F54" stroke-width="2" stroke-linecap="round" fill="#E6EBEE"></path>
                        <polyline id="Path-35" stroke="#404F54" stroke-width="2" stroke-linecap="round" stroke-linejoin="round" fill="#F5F6F7" points="33.2216184 43.2240683 33.2216184 51.304106 35.6313003 51.304106"></polyline>
                        <path d="M30.357897,57.4889386 C30.357897,59.7245883 32.1702492,61.5369405 34.405899,61.5369405 C36.6415487,61.5369405 38.4539009,59.7245883 38.4539009,57.4889386 L30.357897,57.4889386 Z" id="Oval-5-Copy-2" fill="#FFAA83"></path>
                        <path d="M42.089535,41.4734366 C42.089535,43.1677606 43.4630559,44.5412816 45.15738,44.5412816 C46.851704,44.5412816 48.2252249,43.1677606 48.2252249,41.4734366" id="Oval-5-Copy-5" stroke="#404F54" stroke-width="2" stroke-linecap="round" fill="#F5F6F7" transform="translate(45.157380, 43.007359) rotate(-180.000000) translate(-45.157380, -43.007359) "></path>
                        <path d="M19.587532,41.4734366 C19.587532,43.1677606 20.961053,44.5412816 22.655377,44.5412816 C24.349701,44.5412816 25.723222,43.1677606 25.723222,41.4734366" id="Oval-5-Copy-6" stroke="#404F54" stroke-width="2" stroke-linecap="round" fill="#F5F6F7" transform="translate(22.655377, 43.007359) rotate(-180.000000) translate(-22.655377, -43.007359) "></path>
                    </g>
                </g>
                <g id="Group-10-Copy" transform="translate(347.373105, 57.453155)">
                    <g id="Group-9" transform="translate(0.000000, 74.665737)">
                        <rect id="Rectangle-12-Copy" stroke="#404F54" stroke-width="2" stroke-linecap="round" fill="#F5F6F7" x="0" y="1.74398514" width="18.5425774" height="50.8570039" rx="3"></rect>
                        <rect id="Rectangle-12-Copy-3" stroke="#404F54" stroke-width="2" stroke-linecap="round" fill="#F5F6F7" x="45.004006" y="1.74398514" width="18.5425774" height="63.847236" rx="3"></rect>
                        <rect id="Rectangle-12" fill="#F5F6F7" x="8.58657976" y="1.74398514" width="46.6456094" height="63.847236" rx="3"></rect>
                        <path d="M13.5933445,2.00584652 C13.911572,1.92440697 14.2451061,1.88110759 14.5887988,1.88110759 L49.5274279,1.88110759 C49.9716545,1.88110759 50.398973,1.95340273 50.7982298,2.08690052 C48.4699533,9.22307525 41.0286994,14.4422641 32.2088865,14.4422641 C23.3557151,14.4422641 15.8915504,9.18352027 13.5933445,2.00584653 Z" id="Combined-Shape" fill="#E6EBEE"></path>
                        <polyline id="Path-56" stroke="#404F54" stroke-width="2" stroke-linecap="round" points="47.7568256 0.00898961412 33.859881 20.1357368 18.0531428 0.413776032"></polyline>
                        <path d="M49.3310069,51.7991554 L49.3310069,57.1760297 C49.3310069,58.8745045 47.9559249,60.2513904 46.2647561,60.2513904 L20.867185,60.2513904 C19.1737415,60.2513904 17.8009342,58.8705342 17.8009342,57.1927099 L17.8009342,25.1451635 C17.8009342,23.4559009 19.1760163,22.0864831 20.867185,22.0864831 L46.2647561,22.0864831 C47.9581997,22.0864831 49.3310069,23.4703384 49.3310069,25.1564871 L49.3310069,33.9477795" id="Rectangle-12-Copy-2" stroke="#404F54" stroke-width="2" stroke-linecap="round" fill="#E7EBEE"></path>
                        <polygon id="Path-74" fill="#DAE2E6" points="8.63739299 56.6208537 49.4787474 56.6208537 51.415225 56.9340861 54.6886625 55.7260783 54.8827543 51.4057658 50.6163969 51.6293986 8.37762737 51.9992717"></polygon>
                        <path d="M8.58657976,5.07638612 C8.58657976,3.23595188 9.95733251,1.74398514 11.6471285,1.74398514 L52.1716404,1.74398514 C53.8619348,1.74398514 55.2321892,3.24456606 55.2321892,5.08050514 M55.2321892,19.7065295 L55.2321892,62.2543467 C55.2321892,64.0972516 53.8614364,65.5912212 52.1716404,65.5912212 L11.6471285,65.5912212 C9.95683409,65.5912212 8.58657976,64.1015896 8.58657976,62.2578887 L8.58657976,19.2418496" id="Rectangle-12-Copy-4" stroke="#404F54" stroke-width="2" stroke-linecap="round"></path>
                        <path d="M49.3310069,51.7991554 L49.3310069,57.1760297 C49.3310069,58.8745045 47.9559249,60.2513904 46.2647561,60.2513904 L20.867185,60.2513904 C19.1737415,60.2513904 17.8009342,58.8705342 17.8009342,57.1927099 L17.8009342,25.1451635 C17.8009342,23.4559009 19.1760163,22.0864831 20.867185,22.0864831 L46.2647561,22.0864831 C47.9581997,22.0864831 49.3310069,23.4703384 49.3310069,25.1564871 L49.3310069,33.9477795" id="Rectangle-12-Copy-7" stroke="#404F54" stroke-width="2" stroke-linecap="round"></path>
                        <rect id="Rectangle-13" stroke="#404F54" stroke-width="2" stroke-linecap="round" fill="#F5F6F7" x="0" y="40.9127327" width="38.20586" height="11.2510015" rx="3"></rect>
                        <polygon id="Path-57" fill="#F5F6F7" points="41.6269076 41.0515723 42.1073525 50.0881322 51.1159447 49.0872885 50.5655806 42.3241021 48.3781078 38.6893015"></polygon>
                        <polyline id="Path-47" stroke="#404F54" stroke-width="2" stroke-linecap="round" stroke-linejoin="round" fill="#F5F6F7" points="41.916573 50.4177514 51.4635432 51.7651946 57.8641484 50.7503671 57.8641484 37.545219 52.5103338 36.5367883"></polyline>
                        <polyline id="Path-46" stroke="#404F54" stroke-width="2" stroke-linecap="round" fill="#F5F6F7" points="40.9676692 41.1689367 47.8331083 36.6656395 49.8903607 40.5517574"></polyline>
                    </g>
                    <g id="Group-6-Copy" transform="translate(4.091273, 0.000000)">
                        <ellipse id="Oval-5" stroke="#404F54" stroke-width="2" stroke-linecap="round" fill="#F5F6F7" cx="6.57445126" cy="47.6080593" rx="5.84455951" ry="5.84455951"></ellipse>
                        <ellipse id="Oval-5-Copy" stroke="#404F54" stroke-width="2" stroke-linecap="round" fill="#F5F6F7" cx="51.3422627" cy="47.6080593" rx="5.84455951" ry="5.84455951"></ellipse>
                        <rect id="Rectangle-31-Copy-3" stroke="#404F54" stroke-width="2" stroke-linecap="round" fill="#FFAA83" x="20.4706804" y="68.3504665" width="16.9172287" height="16.8650823" rx="8.43254114"></rect>
                        <rect id="Rectangle-31-Copy-6" stroke="#404F54" stroke-width="2" stroke-linecap="round" fill="#F5F6F7" x="23.3020845" y="59.5465111" width="11.2544207" height="20.180212" rx="5.62721035"></rect>
                        <rect id="Rectangle-31" stroke="#404F54" stroke-width="2" stroke-linecap="round" fill="#FFAA83" x="7.7463114" y="54.5538392" width="42.3659668" height="16.8650823" rx="8.43254114"></rect>
                        <rect id="Rectangle-31-Copy-13" stroke="#404F54" stroke-width="2" stroke-linecap="round" fill="#FFAA83" x="16.8142591" y="0.918038879" width="24.2300715" height="23.9004877" rx="11.9502439"></rect>
                        <rect id="Rectangle-31-Copy-12" stroke="#404F54" stroke-width="2" stroke-linecap="round" fill="#F5F6F7" x="7.7463114" y="16.8692028" width="42.3659668" height="54.5497187" rx="21.1829834"></rect>
                        <polyline id="Path-35" stroke="#404F54" stroke-width="2" stroke-linecap="round" stroke-linejoin="round" fill="#F5F6F7" points="28.1075268 48.3381599 28.1075268 56.4181976 30.5172088 56.4181976"></polyline>
                        <path d="M19.1054271,26.2097194 C19.1054271,26.2097194 23.9837911,33.7714831 29.2227384,37.3738213 C34.4616857,40.9761594 49.146595,46.7906918 49.146595,46.7906918 L49.146595,35.4708948 L23.0738423,24.9821376 L19.1054271,26.2097194 Z" id="Path-61" fill="#DAE2E6"></path>
                        <path d="M24.6220537,27.2145585 C24.6220537,27.2145585 21.5910554,32.5458991 19.9369664,33.9957241 C18.2828774,35.4455491 8.8133178,42.2421968 8.8133178,42.2421968 L8.8133178,30.6198382 L21.529127,23.0603579 L24.6220537,27.2145585 Z" id="Path-62" fill="#DAE2E6"></path>
                        <path d="M25.2438054,62.6030302 C25.2438054,64.8386799 27.0561576,66.6510321 29.2918074,66.6510321 C31.5274571,66.6510321 33.3398094,64.8386799 33.3398094,62.6030302 L25.2438054,62.6030302 Z" id="Oval-5-Copy-2" fill="#FFAA83"></path>
                        <circle id="Oval" fill="#404F54" cx="38.6541335" cy="50.4662952" r="2.13301184"></circle>
                        <path d="M34.2030295,39.5758206 C34.2030295,42.2364195 36.3598711,44.3932611 39.02047,44.3932611 C41.681069,44.3932611 43.8379105,42.2364195 43.8379105,39.5758206" id="Oval-5-Copy-3" stroke="#404F54" stroke-width="2" stroke-linecap="round" fill="#F5F6F7" transform="translate(39.020470, 41.984541) rotate(-180.000000) translate(-39.020470, -41.984541) "></path>
                        <ellipse id="Oval-Copy-2" fill="#404F54" cx="18.1977671" cy="50.4662952" rx="2.13301184" ry="2.13301184"></ellipse>
                        <path d="M13.7466632,39.5758206 C13.7466632,42.2364195 15.9035048,44.3932611 18.5641037,44.3932611 C21.2247026,44.3932611 23.3815442,42.2364195 23.3815442,39.5758206" id="Oval-5-Copy-9" stroke="#404F54" stroke-width="2" stroke-linecap="round" fill="#F5F6F7" transform="translate(18.564104, 41.984541) rotate(-180.000000) translate(-18.564104, -41.984541) "></path>
                        <path d="M21.5441184,27.2689032 C25.1672722,29.8077326 29.7427978,32.8366871 33.8928429,35.0594951 C42.4899106,39.6641752 50.5585887,41.4790784 50.5585887,41.4790784 L55.2931188,41.4790784 C55.2931188,41.4790784 56.2132933,28.7153207 53.8248151,22.7618291 C51.9956318,18.202429 47.6594126,13.8756569 43.9482257,12.16773 C39.1467225,9.95802815 31.7243482,6.8841649 23.630699,10.9225897 C23.2143002,11.1303569 22.817566,11.3471002 22.4395752,11.5713461 C22.3446629,11.5065221 22.2471528,11.4426772 22.1469997,11.3798392 C14.4861157,6.57325888 8.29000661,13.4871736 5.28724406,19.6179939 C2.28448152,25.7488141 4.102341,41.4830738 4.102341,41.4830738 L8.46174734,40.6902581 C8.46174734,40.6902581 15.8757625,35.007692 18.9400925,30.9464016 C19.6408162,30.0177019 20.5893513,28.7419293 21.5441184,27.2689032 Z" id="Combined-Shape" stroke="#404F54" stroke-width="2" stroke-linecap="round" fill="#FFAA83"></path>
                    </g>
                </g>
                <polygon id="Path-72" fill="#DAE2E6" points="181.871826 190.465576 184.19397 190.116943 184.19397 193.174072 181.871826 193.542847"></polygon>
            </g>
        </g>
    </g>
</svg>