<svg width="90" height="90" viewBox="0 0 90 90" xmlns="http://www.w3.org/2000/svg"><title>Artboard</title><g fill="none" fill-rule="evenodd"><path d="M5 6h76.73v76H5z"/><g transform="translate(14.98 11.384)" fill="#DDECEA"><ellipse opacity=".383" cx="26.948" cy="31.706" rx="26.948" ry="26.691"/><ellipse opacity=".336" cx="34.423" cy="26.832" rx="26.948" ry="26.691"/></g><g transform="translate(10.457 9.383)" stroke="#C5D7E0" stroke-width="1.2" stroke-linecap="round"><path d="M11.735 2.8L10.55 1.626m52.095 53.009L61.46 53.46M1.346 16.942l1.453-.83m1.704 16.464l1.453-.831" fill="#DAE2E6"/><path d="M65.336 13.364c0 .468.383.848.856.848s.856-.38.856-.848a.852.852 0 0 0-.856-.848M40.082.857c0 .468.383.848.856.848.472 0 .856-.38.856-.848a.852.852 0 0 0-.856-.848" stroke-linejoin="round"/><ellipse stroke-linejoin="round" cx="64.554" cy="38.74" rx=".595" ry=".59"/><ellipse stroke-linejoin="round" cx="25.85" cy="64.297" rx=".595" ry=".59"/><ellipse stroke-linejoin="round" cx=".595" cy="42.41" rx=".595" ry=".59"/><ellipse stroke-linejoin="round" cx="43.052" cy="60.038" rx=".595" ry=".59"/><ellipse stroke-linejoin="round" cx="32.301" cy="21.702" rx=".595" ry=".59"/></g><path d="M15.306 27.22v-4.591A2.385 2.385 0 0 1 17.7 20.25h54.65a2.388 2.388 0 0 1 2.394 2.376V60.15H15.306V45.94m0-3.683V30.856" stroke="#404F54" stroke-width="1.5" stroke-linecap="round" fill="#FFF"/><path stroke="#404F54" stroke-width="1.5" stroke-linecap="round" fill="#E0EAEF" d="M18.14 25.16h53.77v32.217H18.14z"/><g transform="translate(21.032 26.9)"><rect stroke="#404F54" stroke-linecap="round" fill="#FFF" x=".356" y=".277" width="47.156" height="28.184" rx="5"/><rect stroke-linecap="round" fill="#F3F8F8" x="16.299" y="5.052" width="8.477" height="11.719" rx="2"/><path d="M16.299 20.53a2 2 0 0 1 2.009-2.004h4.459c1.11 0 2.009.892 2.009 2.003v7.668h-8.477v-7.668z" stroke-linecap="round" fill="#F3F8F8"/><rect stroke-linecap="round" fill="#F3F8F8" x="26.325" y="5.027" width="8.477" height="11.719" rx="2"/><path d="M26.336 20.492a1.982 1.982 0 0 1 1.998-1.992h4.459c1.11 0 2.014.898 2.02 1.992l.043 7.739H26.38l-.043-7.739z" stroke-linecap="round" fill="#F3F8F8"/><rect stroke-linecap="round" fill="#F3F8F8" x="36.35" y="5.027" width="8.477" height="11.719" rx="2"/><path d="M36.35 20.492c0-1.1.892-1.992 2.01-1.992h4.459c1.11 0 2.009.897 2.009 1.992v7.735H36.35v-7.735z" stroke-linecap="round" fill="#F3F8F8"/><rect stroke-linecap="round" fill="#E0EAEF" x="16.299" y="5.027" width="8.477" height="6.019" rx="2"/><rect stroke-linecap="round" fill="#E0EAEF" x="16.299" y="18.5" width="8.477" height="6.019" rx="2"/><rect stroke-linecap="round" fill="#E0EAEF" x="26.325" y="5.027" width="8.477" height="6.019" rx="2"/><rect stroke-linecap="round" fill="#E0EAEF" x="26.325" y="18.5" width="8.477" height="6.019" rx="2"/><rect stroke-linecap="round" fill="#E0EAEF" x="36.35" y="5.027" width="8.477" height="6.019" rx="2"/><rect stroke-linecap="round" fill="#E0EAEF" x="36.35" y="18.5" width="8.477" height="6.019" rx="2"/><ellipse fill="#FFA47B" cx="18.223" cy="10.925" rx=".959" ry=".95"/><ellipse fill="#FFA47B" cx="18.223" cy="24.398" rx=".959" ry=".95"/><ellipse fill="#FFA47B" cx="28.249" cy="10.925" rx=".959" ry=".95"/><ellipse fill="#FFA47B" cx="28.249" cy="24.398" rx=".959" ry=".95"/><ellipse fill="#FFA47B" cx="38.275" cy="10.925" rx=".959" ry=".95"/><ellipse fill="#FFA47B" cx="38.275" cy="24.398" rx=".959" ry=".95"/><path d="M13.55.277H5.114c-2.763 0-5 2.24-5 5.006v18.17a5 5 0 0 0 5 5.007h8.434V.277z" stroke="#E0EAEF" stroke-linecap="round" fill="#71D5CA"/><path d="M13.55 17.216H.114v6.715a4.997 4.997 0 0 0 5 5.004h8.434V17.216z" stroke="#E0EAEF" stroke-linecap="round" fill="#FFF"/><rect fill="#E0EAEF" x="3.354" y="19.925" width="7.998" height="1.144" rx=".572"/><rect fill="#E0EAEF" x="3.354" y="21.825" width="5.6" height="1.144" rx=".572"/><g transform="translate(2.874 6.293)"><ellipse fill="#FFF" cx="3.897" cy="3.753" rx="3.772" ry="3.736"/><ellipse fill="#FFF" cx="4.425" cy="4.276" rx="3.772" ry="3.736"/><ellipse stroke="#404F54" stroke-width=".825" stroke-linecap="round" cx="3.897" cy="3.753" rx="3.772" ry="3.736"/><g transform="translate(1.953 .902)"><ellipse stroke="#404F54" stroke-width=".55" stroke-linecap="round" fill="#F5F6F7" cx=".41" cy="3.347" rx=".364" ry=".359"/><ellipse stroke="#404F54" stroke-width=".55" stroke-linecap="round" fill="#F5F6F7" cx="3.583" cy="3.347" rx=".364" ry=".359"/><rect stroke="#404F54" stroke-width=".55" stroke-linecap="round" fill="#FF8F5C" x=".53" y="3.987" width="2.929" height="1.24" rx=".62"/><ellipse stroke="#404F54" stroke-width=".55" fill="#FFA47B" cx="2.03" cy=".815" rx=".734" ry=".727"/><path d="M2.728.59a.73.73 0 0 1-.698.952.735.735 0 0 1-.48-.176.73.73 0 0 1 .698-.952c.184 0 .351.066.48.176z" fill="#FF8F5C"/><ellipse stroke="#404F54" stroke-width=".55" cx="2.03" cy=".815" rx=".734" ry=".727"/><rect stroke="#404F54" stroke-width=".55" stroke-linecap="round" fill="#F5F6F7" x="1.644" y="4.412" width=".702" height="1.24" rx=".351"/><rect stroke="#404F54" stroke-width=".55" stroke-linecap="round" fill="#FFF" x=".53" y="1.153" width="2.929" height="3.856" rx="1.465"/><path stroke="#404F54" stroke-width=".5" stroke-linecap="round" stroke-linejoin="round" d="M1.863 3.494v.411h.122"/><path d="M1.725 4.21c0 .133.109.24.243.24a.242.242 0 0 0 .243-.24" stroke="#FF8F5C" stroke-width=".55" stroke-linecap="round" fill="#F5F6F7"/><path d="M1.536 1.225A1.457 1.457 0 0 0 .53 2.611v.465l1.252-.272c.738-.159 1.029-.402 1.029-.402s.138.354.24.534c.086.154.302.38.302.38V2.87s.046.017.106.022v-.28c0-.62-.39-1.152-.94-1.362-.266-.035-.574-.025-.928-.025l-.055.001z" fill="#DAE2E6"/><path d="M2.79 3.531a.169.169 0 0 0-.17-.168.169.169 0 0 0-.17.168m-.907 0a.169.169 0 0 0-.17-.168.169.169 0 0 0-.17.168" stroke="#404F54" stroke-width=".5" stroke-linecap="round" fill="#F5F6F7"/><path d="M1.653 3.096a.278.278 0 0 0-.28-.275.278.278 0 0 0-.28.275m1.767 0a.278.278 0 0 0-.28-.275.278.278 0 0 0-.28.275" stroke="#404F54" stroke-width=".5" stroke-linecap="round"/><path d="M2.891 2.046s-.362.299-1.1.458c-.738.159-1.243.237-1.243.237l-.035.338H.198s-.142-.973.102-1.4C.543 1.254.934.9 1.59.9c.657 0 1.154-.035 1.522.247.369.282.612.793.612 1.161v.739h-.268s-.257-.276-.344-.43c-.101-.18-.222-.57-.222-.57z" stroke="#404F54" stroke-width=".55" fill="#FFA47B"/><path d="M.57 2.738c.103-.017.572-.094 1.22-.234.739-.16 1.101-.458 1.101-.458s.12.39.222.57c.043.075.126.18.2.266v-.54c0-.283-.188-.676-.47-.893-.284-.217-.666-.19-1.171-.19s-.806.273-.993.6c-.089.156-.111.53-.11.879z" fill="#FF8F5C"/><path d="M2.891 2.046s-.362.299-1.1.458c-.738.159-1.243.237-1.243.237L.52 3.08H.198S.056 2.107.3 1.68C.543 1.254.934.9 1.59.9c.657 0 1.154-.035 1.522.247.369.282.612.793.612 1.161v.739h-.268s-.257-.276-.344-.43c-.101-.18-.222-.57-.222-.57z" stroke="#404F54" stroke-width=".55"/><path d="M2.891 2.372s-.362.299-1.1.458c-.738.159-1.243.237-1.243.237l-.027.338H.198s-.142-.973.102-1.4c.243-.426.634-.78 1.291-.78.657 0 1.154-.035 1.522.247.369.282.612.793.612 1.161v.739h-.268s-.257-.276-.344-.43c-.101-.18-.222-.57-.222-.57z"/></g></g><path d="M.86 3.35A5 5 0 0 1 5.472.276H42.51a4.998 4.998 0 0 1 4.615 3.072H.86z" stroke="#E0EAEF" stroke-linecap="round" fill="#F3FFFD"/><rect stroke="#404F54" stroke-linecap="round" x=".356" y=".277" width="47.156" height="28.184" rx="5"/></g><path stroke="#404F54" stroke-width="1.5" stroke-linecap="round" fill="#FFF" d="M8.953 65.874h72.08V60.15H8.954z"/><path fill="#E0EAEF" d="M34.46 62.708h20.895V60.15H34.46z"/><path stroke="#404F54" stroke-width="1.5" stroke-linecap="round" d="M9.008 65.874H81.04V60.15H9.008z"/><g transform="translate(60.836 46.375)"><ellipse fill="#404F54" opacity=".177" cx="13.751" cy="11.066" rx="11.172" ry="11.066"/><ellipse fill="#FF9768" cx="11.221" cy="12.736" rx="11.172" ry="11.066"/><ellipse fill="#FF7F45" cx="13.667" cy="14.329" rx="8.299" ry="8.22"/><path d="M1.678 6.98A10.936 10.936 0 0 0 .05 12.735C.05 18.847 5.051 23.8 11.221 23.8c6.17 0 11.172-4.954 11.172-11.065 0-6.112-5.002-11.066-11.172-11.066-2.2 0-4.253.63-5.983 1.72M3.006 5.235c-.199.215-.39.436-.572.666" stroke="#404F54" stroke-width="1.5" stroke-linecap="round"/><rect fill="#FFF" x="10.071" y="8.55" width="1.918" height="7.6" rx=".959"/><rect fill="#FFF" transform="rotate(90 11.03 12.35)" x="10.071" y="8.55" width="1.918" height="7.6" rx=".959"/></g><g transform="translate(8.837 24.525)"><rect stroke="#404F54" stroke-width="1.5" stroke-linecap="round" fill="#404F54" opacity=".128" x="2.877" y="2.85" width="40.763" height="16.15" rx="5"/><rect stroke="#404F54" stroke-width="1.5" stroke-linecap="round" fill="#C7F9F5" width="40.763" height="16.15" rx="5"/><rect fill="#AEF4EE" x="4.492" y="1.97" width="35.791" height="14.18" rx="5"/><rect stroke="#404F54" stroke-width="1.5" stroke-linecap="round" width="40.763" height="16.15" rx="5"/><path d="M8.526 10.006h1.272l.766-2.149.767 2.149h1.272l1.428-4.354h-1.503l-.617 2.075-.705-2.087H9.947l-.704 2.087-.618-2.075H7.098l1.428 4.354zm9.474 0h1.272l.767-2.149.766 2.149h1.272l1.428-4.354h-1.503l-.617 2.075-.704-2.087h-1.26l-.704 2.087-.617-2.075h-1.528L18 10.006zm9.474 0h1.272l.767-2.149.767 2.149h1.272l1.427-4.354h-1.502l-.617 2.075-.705-2.087h-1.26l-.704 2.087-.617-2.075h-1.527l1.427 4.354z" fill="#23C4B7"/></g></g></svg>