<svg width="142" height="140" viewBox="0 0 142 140" xmlns="http://www.w3.org/2000/svg"><title>Getaway</title><g fill="none" fill-rule="evenodd"><path d="M-10-5h160v160H-10z"/><g transform="translate(10.812 6.335)" fill="#DDECEA"><circle opacity=".383" cx="56.192" cy="66.749" r="56.192"/><ellipse opacity=".336" cx="71.779" cy="56.488" rx="56.192" ry="56.192"/></g><g transform="translate(1.38 2.123)" stroke="#C5D7E0" stroke-width="1.2" stroke-linecap="round"><path d="M24.471 5.896l-2.474-2.474m108.633 111.6l-2.475-2.474M2.807 35.668l3.03-1.75M9.39 68.581l3.03-1.75" fill="#DAE2E6"/><path d="M136.24 28.135a1.785 1.785 0 1 0 1.785-1.785M83.579 1.804A1.785 1.785 0 1 0 85.364.02" stroke-linejoin="round"/><ellipse stroke-linejoin="round" cx="134.61" cy="81.557" rx="1.241" ry="1.241"/><circle stroke-linejoin="round" cx="53.903" cy="135.362" r="1.241"/><ellipse stroke-linejoin="round" cx="1.242" cy="89.284" rx="1.241" ry="1.241"/><ellipse stroke-linejoin="round" cx="89.773" cy="126.395" rx="1.241" ry="1.241"/><ellipse stroke-linejoin="round" cx="67.354" cy="45.687" rx="1.241" ry="1.241"/></g><path fill="#FFF" d="M16.099 45.042L47.511 26.28l40.172 12.555 27.776-22.462 22.6 79.873-27.287 16.608-43.485-9.144-37.558 20.813z"/><path d="M87.683 38.835l27.776-22.462 22.6 79.873-27.287 16.608m-43.485-9.144L29.73 124.523 16.1 45.043 47.511 26.28" fill="#F2F7F7"/><path d="M30.007 36.735l2.315-1.383m4.325-2.583l10.864-6.489 40.172 12.555 27.776-22.462 22.6 79.873-27.287 16.608-43.485-9.144-37.558 20.813-13.63-79.48 9.027-5.393" stroke="#404F54" stroke-width="1.5" stroke-linecap="round" stroke-linejoin="round"/><path fill="#DFE9E9" d="M26.721 87.24l5.967 30.738L65.684 99.69 54.418 57.44 43.534 74.526l4.179 22.134-10.675 6.264-3.907-16.247z"/><path d="M48.435 97.867l14.027-14.151 25.042 5.82S64.85 67.488 64.85 56.076c0-11.41 19.538-.358 19.538-.358s1.759 18 13.359 15.537c11.6-2.463 28.892-16.566 17.364-22.378-11.529-5.812-6.68-11.083-6.68-11.083" stroke="#404F54" stroke-width="1.5" stroke-linecap="round" stroke-linejoin="round" stroke-dasharray="5"/><path stroke="#1CC1B6" stroke-width="1.5" stroke-linecap="round" stroke-linejoin="round" fill="#D0F8F5" d="M123.634 72.42l-14.904 13.8 5.686 16.054 16.619-9.058z"/><path stroke="#FC814A" stroke-width="1.5" stroke-linecap="round" stroke-linejoin="round" fill="#FFD5C2" d="M22.378 48.351l26.61-16.42 12.214 4.639 1.333 5.347L50.573 40.1l-8.566 5.527 2.485 10.543-18.476 10.964z"/><path stroke="#1CC1B6" stroke-width="1.5" stroke-linecap="round" stroke-linejoin="round" fill="#D0F8F5" d="M91.343 101.878l-1.79-9.248 11.613 1.574 3.396 10.613z"/><g transform="translate(34.431 61)" stroke="#404F54" stroke-width="1.5" stroke-linecap="round"><path d="M13.627 37.5s13.5-16.044 13.5-23.5c0-7.456-6.044-13.5-13.5-13.5S.127 6.544.127 14s13.5 23.5 13.5 23.5z" stroke-linejoin="round" fill="#FC814A"/><circle fill="#FFF" cx="13.5" cy="14.5" r="4.5"/></g><g transform="translate(94.431 1)" stroke="#404F54" stroke-width="1.5" stroke-linecap="round"><path d="M13.627 37.5s13.5-16.044 13.5-23.5c0-7.456-6.044-13.5-13.5-13.5S.127 6.544.127 14s13.5 23.5 13.5 23.5z" stroke-linejoin="round" fill="#FC814A"/><circle fill="#FFF" cx="13.5" cy="14.5" r="4.5"/></g></g></svg>