<svg width="146" height="139" viewBox="0 0 146 139" xmlns="http://www.w3.org/2000/svg" xmlns:xlink="http://www.w3.org/1999/xlink"><title>Pages Copy</title><defs><ellipse id="a" cx="26.5" cy="45.429" rx="10.134" ry="10.134"/><mask id="b" x="0" y="0" width="20.267" height="20.267" fill="#fff"><use xlink:href="#a"/></mask></defs><g fill="none" fill-rule="evenodd"><path d="M-6-6h160v160H-6z"/><g transform="translate(14.812 5.335)" fill="#DDECEA"><circle opacity=".383" cx="56.192" cy="66.749" r="56.192"/><ellipse opacity=".336" cx="71.779" cy="56.488" rx="56.192" ry="56.192"/></g><g transform="translate(5.38 1.123)" stroke="#C5D7E0" stroke-width="1.2" stroke-linecap="round"><path d="M24.471 5.896l-2.474-2.474m108.633 111.6l-2.475-2.474M2.807 35.668l3.03-1.75M9.39 68.581l3.03-1.75" fill="#DAE2E6"/><path d="M136.24 28.135a1.785 1.785 0 1 0 1.785-1.785M83.579 1.804A1.785 1.785 0 1 0 85.364.02" stroke-linejoin="round"/><ellipse stroke-linejoin="round" cx="134.61" cy="81.557" rx="1.241" ry="1.241"/><circle stroke-linejoin="round" cx="53.903" cy="135.362" r="1.241"/><ellipse stroke-linejoin="round" cx="1.242" cy="89.284" rx="1.241" ry="1.241"/><ellipse stroke-linejoin="round" cx="89.773" cy="126.395" rx="1.241" ry="1.241"/><ellipse stroke-linejoin="round" cx="67.354" cy="45.687" rx="1.241" ry="1.241"/></g><path d="M89.067 104.763a19.544 19.544 0 0 0-6.283 9.564 12.44 12.44 0 0 0-11.779 6.607h64.13a12.44 12.44 0 0 0-11.004-6.63c-1.286 0-2.526.194-3.693.557-2.185-8.399-9.819-14.598-18.9-14.598m-6.433 1.084c-.712.248-1.405.537-2.077.862m6.039-57.446a19.544 19.544 0 0 0-6.283 9.564 12.44 12.44 0 0 0-11.779 6.607h64.13a12.44 12.44 0 0 0-11.004-6.63c-1.286 0-2.526.194-3.693.557-2.185-8.399-9.819-14.598-18.9-14.598m-6.433 1.084c-.712.248-1.405.537-2.077.862" stroke="#404F54" stroke-width="1.5" stroke-linecap="round" stroke-linejoin="round" fill="#FFF"/><g transform="rotate(41 45.088 121.296)"><path stroke="#404F54" stroke-width="1.5" stroke-linecap="round" stroke-linejoin="round" fill="#FFF" d="M15.692 97.577L.982 110.106.46 77.54l6.012-5.767m31.57 25.804l14.71 12.529.522-32.565-6.609-6.34"/><path d="M27.091.426S44.328 16.413 47.334 45.38c3.007 28.966-8.778 52.083-8.778 52.083h-22.93S1.773 75.968 5.633 45.38C9.494 14.79 27.091.426 27.091.426z" fill="#FFF"/><path d="M29.332 10.915s15.374 14.26 18.056 40.095c2.68 25.835-7.83 46.453-7.83 46.453H19.107S6.75 78.292 10.194 51.01c3.444-27.282 19.138-40.095 19.138-40.095z" fill="#FFA37A"/><path d="M33.583 41.389s9.985 9.26 11.726 26.039c1.741 16.779-5.085 30.169-5.085 30.169H26.942s-8.024-12.45-5.788-30.169c2.236-17.718 12.43-26.04 12.43-26.04z" fill="#FC814A"/><path d="M27.091.426S44.328 16.413 47.334 45.38c3.007 28.966-8.778 52.083-8.778 52.083h-22.93S1.773 75.968 5.633 45.38C9.494 14.79 27.091.426 27.091.426z" stroke="#404F54" stroke-width="1.5" stroke-linecap="round" stroke-linejoin="round"/><ellipse fill="#9CF7F1" cx="26.5" cy="45.429" rx="10.134" ry="10.134"/><path d="M26.5 55.563c5.597 0 10.134-4.537 10.134-10.134 0-1.17-1.636-2.833-4.828-1.632-3.192 1.201-6.436 3.716-9.692 4.168-4.705.654-5.747-5.462-5.747-2.536 0 5.597 4.537 10.134 10.133 10.134z" fill="#1CC1B6"/><use stroke="#404F54" mask="url(#b)" stroke-width="3" xlink:href="#a"/></g><path d="M22.885 117.86s18.225-4.961 22.03-9.338c3.804-4.376 3.34-11.008-1.036-14.813-4.377-3.804-11.009-3.34-14.813 1.036-3.805 4.377-6.18 23.115-6.18 23.115z" stroke="#404F54" stroke-width="1.5" stroke-linecap="round" stroke-linejoin="round" fill="#FFF"/><path d="M22.885 117.86s18.225-4.961 22.03-9.338c3.804-4.376 3.34-11.008-1.036-14.813-4.377-3.804-11.009-3.34-14.813 1.036-3.805 4.377-6.18 23.115-6.18 23.115z" fill="#FFA37A"/><path d="M29.166 110.635s10.737-2.923 12.979-5.502a6.186 6.186 0 0 0-9.338-8.116c-2.24 2.578-3.64 13.618-3.64 13.618z" fill="#FC814A"/><path d="M22.885 117.86s18.225-4.961 22.03-9.338c3.804-4.376 3.34-11.008-1.036-14.813-4.377-3.804-11.009-3.34-14.813 1.036-3.805 4.377-6.18 23.115-6.18 23.115z" stroke="#404F54" stroke-width="1.5" stroke-linecap="round" stroke-linejoin="round"/><path d="M26.626 81.255l-19.788 19.52m75.166-42.374l-19.788 19.52m.432 27.654l-19.789 19.52m6.917-42.397l-19.788 19.52" stroke="#404F54" stroke-width="1.5" stroke-linecap="round" stroke-linejoin="round" stroke-dasharray="15,8" fill="#FFF"/><path d="M19.067 24.763a19.544 19.544 0 0 0-6.283 9.564 12.44 12.44 0 0 0-11.779 6.607h64.13a12.44 12.44 0 0 0-11.004-6.63c-1.286 0-2.526.194-3.693.557-2.185-8.399-9.819-14.598-18.9-14.598m-6.433 1.084c-.712.248-1.405.537-2.077.862" stroke="#404F54" stroke-width="1.5" stroke-linecap="round" stroke-linejoin="round" fill="#FFF"/></g></svg>