<svg width="115" height="115" viewBox="0 0 115 115" xmlns="http://www.w3.org/2000/svg"><title>icon-create-ticket</title><g transform="translate(-1 6)" fill="none" fill-rule="evenodd"><path d="M0 0h103.529v103.529H0z"/><g transform="translate(13.467 7.335)" fill="#DCEBEA"><circle opacity=".383" cx="36.36" cy="43.191" r="36.36"/><circle opacity=".336" cx="46.445" cy="36.551" r="36.36"/></g><g transform="translate(7.363 4.609)" stroke="#C5D6DF" stroke-width=".84" stroke-linecap="round"><path d="M15.834 3.815l-1.6-1.601M84.525 74.426l-1.601-1.601M1.816 23.08l1.961-1.133M6.076 44.376l1.96-1.132" fill="#DAE2E6"/><path d="M88.155 18.205a1.155 1.155 0 1 0 1.155-1.155M54.08 1.168A1.155 1.155 0 1 0 55.235.013" stroke-linejoin="round"/><circle stroke-linejoin="round" cx="87.101" cy="52.772" r="1"/><circle stroke-linejoin="round" cx="34.878" cy="87.587" r="1"/><circle stroke-linejoin="round" cx=".803" cy="57.772" r="1"/><circle stroke-linejoin="round" cx="58.088" cy="81.785" r="1"/><circle stroke-linejoin="round" cx="43.582" cy="29.562" r="1"/></g><g transform="translate(8.32 18.487)"><rect stroke="#404F54" stroke-width=".9" fill="#FFF" stroke-linecap="round" x=".693" y=".542" width="91.86" height="55.23" rx="4.5"/><rect fill="#F3F8F8" stroke-linecap="round" x="31.75" y="9.901" width="16.514" height="22.966" rx="1.8"/><path d="M33.55 36.304h12.913a1.8 1.8 0 0 1 1.8 1.8v17.152H31.75V38.104a1.8 1.8 0 0 1 1.8-1.8z" fill="#F3F8F8" stroke-linecap="round"/><rect fill="#F3F8F8" stroke-linecap="round" x="51.28" y="9.85" width="16.514" height="22.966" rx="1.8"/><path d="M53.09 36.253h12.914c.99 0 1.794.8 1.8 1.79l.096 17.28H51.386l-.096-17.26a1.8 1.8 0 0 1 1.8-1.81z" fill="#F3F8F8" stroke-linecap="round"/><rect fill="#F3F8F8" stroke-linecap="round" x="70.811" y="9.85" width="16.514" height="22.966" rx="1.8"/><path d="M72.61 36.253h12.914a1.8 1.8 0 0 1 1.8 1.8v17.262H70.811V38.053a1.8 1.8 0 0 1 1.8-1.8z" fill="#F3F8F8" stroke-linecap="round"/><path d="M33.55 9.85h12.913a1.8 1.8 0 0 1 1.8 1.8v9.996H31.75V11.65a1.8 1.8 0 0 1 1.8-1.8zM33.55 36.253h12.913a1.8 1.8 0 0 1 1.8 1.8v9.996H31.75v-9.996a1.8 1.8 0 0 1 1.8-1.8zM53.08 9.85h12.914a1.8 1.8 0 0 1 1.8 1.8v9.996H51.28V11.65a1.8 1.8 0 0 1 1.8-1.8zM53.08 36.253h12.914a1.8 1.8 0 0 1 1.8 1.8v9.996H51.28v-9.996a1.8 1.8 0 0 1 1.8-1.8zM72.61 9.85h12.914a1.8 1.8 0 0 1 1.8 1.8v9.996H70.811V11.65a1.8 1.8 0 0 1 1.8-1.8zM72.61 36.253h12.914a1.8 1.8 0 0 1 1.8 1.8v9.996H70.811v-9.996a1.8 1.8 0 0 1 1.8-1.8z" fill="#E0EAEF" stroke-linecap="round"/><ellipse fill="#FFA47B" cx="35.499" cy="21.409" rx="1.868" ry="1.862"/><ellipse fill="#FFA47B" cx="35.499" cy="47.812" rx="1.868" ry="1.862"/><ellipse fill="#FFA47B" cx="55.03" cy="21.409" rx="1.868" ry="1.862"/><ellipse fill="#FFA47B" cx="55.03" cy="47.812" rx="1.868" ry="1.862"/><ellipse fill="#FFA47B" cx="74.561" cy="21.409" rx="1.868" ry="1.862"/><ellipse fill="#FFA47B" cx="74.561" cy="47.812" rx="1.868" ry="1.862"/><path d="M26.394.542H4.724a4.5 4.5 0 0 0-4.5 4.5v46.23a4.5 4.5 0 0 0 4.5 4.5h21.67V.542z" stroke="#E0EAEF" stroke-width=".9" fill="#71D5CA" stroke-linecap="round"/><path d="M26.394 33.738H.224v18.465a4.5 4.5 0 0 0 4.5 4.5h21.67V33.738z" stroke="#E0EAEF" stroke-width=".9" fill="#FFF" stroke-linecap="round"/><rect fill="#E0EAEF" x="6.533" y="39.046" width="15.579" height="2.241" rx="1.121"/><rect fill="#E0EAEF" x="6.533" y="42.769" width="10.909" height="2.241" rx="1.121"/><g transform="translate(5.599 12.333)"><ellipse fill="#FFF" cx="7.592" cy="7.355" rx="7.348" ry="7.322"/><ellipse fill="#FFF" cx="8.62" cy="8.379" rx="7.348" ry="7.322"/><ellipse stroke="#404F54" stroke-width=".742" stroke-linecap="round" cx="7.592" cy="7.355" rx="7.348" ry="7.322"/><g transform="translate(3.805 1.768)"><ellipse stroke="#404F54" stroke-width=".5" fill="#F5F6F7" stroke-linecap="round" cx=".798" cy="6.559" rx="1" ry="1"/><ellipse stroke="#404F54" stroke-width=".5" fill="#F5F6F7" stroke-linecap="round" cx="6.98" cy="6.559" rx="1" ry="1"/><rect stroke="#404F54" stroke-width=".5" fill="#FF8F5C" stroke-linecap="round" x="1.033" y="7.814" width="5.706" height="2.429" rx="1.215"/><ellipse stroke="#404F54" stroke-width=".5" fill="#FFA47B" cx="3.954" cy="1.597" rx="1.43" ry="1.425"/><path d="M3.021 2.677c.25.215.576.345.933.345a1.427 1.427 0 0 0 1.36-1.866A1.427 1.427 0 0 0 4.38.81a1.427 1.427 0 0 0-1.36 1.866z" fill="#FF8F5C"/><ellipse stroke="#404F54" stroke-width=".5" cx="3.954" cy="1.597" rx="1.43" ry="1.425"/><rect stroke="#404F54" stroke-width=".5" fill="#F5F6F7" stroke-linecap="round" x="3.202" y="8.645" width="1.367" height="2.429" rx=".683"/><rect stroke="#404F54" stroke-width=".5" fill="#FFF" stroke-linecap="round" x="1.033" y="2.26" width="5.706" height="7.557" rx="2.853"/><path stroke="#404F54" stroke-width=".5" stroke-linecap="round" stroke-linejoin="round" d="M3.63 6.847v.806h.236"/><path d="M3.36 8.25a.473.473 0 0 0 .947 0" stroke="#FF8F5C" stroke-width=".5" fill="#F5F6F7" stroke-linecap="round"/><path d="M4.908 2.448a2.854 2.854 0 0 1 1.83 2.665v.552c-.116-.01-.207-.042-.207-.042V6.5s-.42-.445-.59-.747c-.197-.351-.465-1.046-.465-1.046s-.567.477-2.004.788c-1.254.272-2.214.483-2.44.532v-.914c0-1.266.824-2.339 1.965-2.712l.102-.002c.691 0 1.29-.02 1.81.05z" fill="#DAE2E6"/><path d="M5.434 6.92a.33.33 0 0 0-.331-.329.33.33 0 0 0-.331.329M3.005 6.92a.33.33 0 0 0-.33-.329.33.33 0 0 0-.332.329" stroke="#404F54" stroke-width=".5" fill="#F5F6F7" stroke-linecap="round"/><path d="M3.22 6.068a.543.543 0 0 0-.546-.54.543.543 0 0 0-.545.54M5.57 6.068a.543.543 0 0 0-.545-.54.543.543 0 0 0-.545.54" stroke="#404F54" stroke-width=".5" stroke-linecap="round"/><path d="M5.632 4.01s-.706.584-2.144.896a47.11 47.11 0 0 1-2.42.466L1 6.033H.386S.109 4.127.584 3.291c.475-.835 1.236-1.53 2.515-1.53 1.28 0 2.247-.068 2.965.484.718.553 1.192 1.555 1.192 2.277v1.446h-.522s-.5-.54-.67-.84c-.197-.353-.432-1.118-.432-1.118z" stroke="#404F54" stroke-width=".5" fill="#FFA47B"/><path d="M1.11 5.366a48.666 48.666 0 0 0 2.378-.46c1.438-.312 2.144-.896 2.144-.896s.235.765.432 1.117c.083.147.245.351.388.521V4.59c0-.555-.364-1.325-.915-1.75-.552-.425-1.296-.373-2.28-.373-.984 0-1.57.535-1.934 1.177-.174.305-.217 1.038-.214 1.722z" fill="#FF8F5C"/><path d="M5.632 4.01s-.706.584-2.144.896a47.11 47.11 0 0 1-2.42.466l-.052.661h-.63S.109 4.127.584 3.291c.475-.835 1.236-1.53 2.515-1.53 1.28 0 2.247-.068 2.965.484.718.553 1.192 1.555 1.192 2.277v1.446h-.522s-.5-.54-.67-.84c-.197-.353-.432-1.118-.432-1.118z" stroke="#404F54" stroke-width=".5"/><path d="M5.632 4.648s-.706.585-2.144.897c-1.437.312-2.42.466-2.42.466l-.052.66h-.63s-.277-1.906.198-2.74c.475-.836 1.236-1.532 2.515-1.532 1.28 0 2.247-.067 2.965.485.718.553 1.192 1.555 1.192 2.277v1.446h-.522s-.5-.54-.67-.841c-.197-.352-.432-1.118-.432-1.118z"/></g></g><path d="M92.553 6.563V5.042a4.5 4.5 0 0 0-4.5-4.5H5.42a4.5 4.5 0 0 0-4.5 4.5v1.521h91.632z" stroke="#E0EAEF" stroke-width=".9" fill="#F3FFFD" stroke-linecap="round"/><rect stroke="#404F54" stroke-width="1.5" stroke-linecap="round" x=".693" y=".542" width="91.86" height="55.23" rx="4.5"/></g><path fill="#404F54" opacity=".094" d="M100.525 42.498l-3.928 3.72-3.929-3.72-3.929 3.72-3.928-3.72-3.929 3.72-3.928-3.9-3.929 3.9V20.336l-4.622-6.47h30.505"/><path d="M73.95 9.244H104a6 6 0 0 1 6 6v26.353l-3.929-3.72-3.928 3.72-3.929-3.72-3.928 3.72-3.929-3.72-3.928 3.72-3.929-3.9-3.929 3.9V15.714l-4.621-6.47z" stroke="#404F54" stroke-width="1.5" fill="#FFF" stroke-linecap="round" stroke-linejoin="round"/><rect fill="#E0EAEF" x="86.891" y="13.866" width="15.252" height="4.4" rx="2.2"/><rect fill="#E0EAEF" x="82.269" y="22.185" width="23.135" height="1.436" rx=".718"/><rect fill="#E0EAEF" x="82.269" y="25.882" width="23.135" height="1.436" rx=".718"/><rect fill="#E0EAEF" x="82.269" y="29.58" width="9.678" height="1.436" rx=".718"/><path stroke="#23C4B7" stroke-width="1.5" stroke-linecap="round" stroke-linejoin="round" d="M99.832 32.353l1.849 1.849 3.697-3.698"/></g></svg>