<svg width="150" height="139" viewBox="0 0 150 139" xmlns="http://www.w3.org/2000/svg" xmlns:xlink="http://www.w3.org/1999/xlink"><title>customize</title><defs><path d="M15.921 0H.775A.78.78 0 0 0 0 .777v26.4a.78.78 0 0 0 .775.777h20.968a.78.78 0 0 0 .775-.777V6.83L15.921 0z" id="a"/><mask id="c" x="0" y="0" width="22.518" height="27.954" fill="#fff"><use xlink:href="#a"/></mask><path d="M15.921 0H.775A.78.78 0 0 0 0 .777v26.4a.78.78 0 0 0 .775.777h20.968a.78.78 0 0 0 .775-.777V6.83L15.921 0z" id="b"/><mask id="d" x="0" y="0" width="22.518" height="27.954" fill="#fff"><use xlink:href="#b"/></mask><filter x="-50%" y="-50%" width="200%" height="200%" filterUnits="objectBoundingBox" id="e"><feOffset dx="3" dy="5" in="SourceAlpha" result="shadowOffsetOuter1"/><feGaussianBlur stdDeviation="6" in="shadowOffsetOuter1" result="shadowBlurOuter1"/><feColorMatrix values="0 0 0 0 0.208358654 0 0 0 0 0.179246845 0 0 0 0 0.337744473 0 0 0 0.468948143 0" in="shadowBlurOuter1" result="shadowMatrixOuter1"/><feMerge><feMergeNode in="shadowMatrixOuter1"/><feMergeNode in="SourceGraphic"/></feMerge></filter></defs><g fill="none" fill-rule="evenodd"><path d="M-3-6h160v160H-3z"/><g transform="translate(17.812 5.335)" fill="#DDECEA"><circle opacity=".383" cx="56.192" cy="66.749" r="56.192"/><ellipse opacity=".336" cx="71.779" cy="56.488" rx="56.192" ry="56.192"/></g><g transform="translate(8.38 1.123)" stroke="#C5D7E0" stroke-width="1.2" stroke-linecap="round"><path d="M24.471 5.896l-2.474-2.474m108.633 111.6l-2.475-2.474M2.807 35.668l3.03-1.75M9.39 68.581l3.03-1.75" fill="#DAE2E6"/><path d="M136.24 28.135a1.785 1.785 0 1 0 1.785-1.785M83.579 1.804A1.785 1.785 0 1 0 85.364.02" stroke-linejoin="round"/><ellipse stroke-linejoin="round" cx="134.61" cy="81.557" rx="1.241" ry="1.241"/><circle stroke-linejoin="round" cx="53.903" cy="135.362" r="1.241"/><ellipse stroke-linejoin="round" cx="1.242" cy="89.284" rx="1.241" ry="1.241"/><ellipse stroke-linejoin="round" cx="89.773" cy="126.395" rx="1.241" ry="1.241"/><ellipse stroke-linejoin="round" cx="67.354" cy="45.687" rx="1.241" ry="1.241"/></g><g transform="translate(21.162 41.742)"><path stroke="#404F54" stroke-width="1.5" stroke-linecap="round" fill="#FFF" d="M.599.219h90.352v63.595H.599z"/><ellipse fill="#C8DDE7" cx="6.375" cy="4.809" rx="1.432" ry="1.432"/><ellipse fill="#C8DDE7" cx="10.67" cy="4.809" rx="1.432" ry="1.432"/><ellipse fill="#C8DDE7" cx="14.965" cy="4.809" rx="1.432" ry="1.432"/><path stroke="#404F54" stroke-width="1.5" stroke-linecap="round" fill="#F1F4F7" d="M.599 8.711h90.352v55.103H.599z"/><path d="M27.843 18.984h18.51m5.68 0h18.223" stroke="#C8DDE7" stroke-width="2" stroke-linecap="round" stroke-linejoin="round"/><path d="M27.843 24.074h9.526m2.553 0h18.914m3.578 0h7.842m-42.413 5.09H53.29" stroke="#DEEBF1" stroke-width="2" stroke-linecap="round" stroke-linejoin="round"/><path fill="#FFF" d="M.989 9.336h18.089v53.959H.989z"/><path fill="#23C4B7" d="M.989 9.336h18.089v23.197H.989z"/><g transform="translate(.599 8.711)"><rect fill="#E0EAEF" x="2.627" y="27.714" width="13.454" height="1.942" rx=".971"/><rect fill="#E0EAEF" x="2.627" y="30.941" width="9.42" height="1.942" rx=".971"/><g transform="translate(2.982 6.54)"><ellipse fill="#FFF" cx="6.556" cy="6.374" rx="6.346" ry="6.346"/><ellipse fill="#FFF" cx="7.443" cy="7.262" rx="6.346" ry="6.346"/><ellipse stroke="#404F54" stroke-width=".825" stroke-linecap="round" cx="6.556" cy="6.374" rx="6.346" ry="6.346"/><g transform="translate(3.286 1.532)"><ellipse stroke="#404F54" stroke-width=".55" stroke-linecap="round" fill="#F5F6F7" cx=".689" cy="5.685" rx=".613" ry=".61"/><ellipse stroke="#404F54" stroke-width=".55" stroke-linecap="round" fill="#F5F6F7" cx="6.028" cy="5.685" rx=".613" ry=".61"/><rect stroke="#404F54" stroke-width=".55" stroke-linecap="round" fill="#FF8F5C" x=".892" y="6.772" width="4.928" height="2.105" rx="1.053"/><ellipse stroke="#404F54" stroke-width=".55" fill="#FFA47B" cx="3.414" cy="1.384" rx="1.235" ry="1.235"/><path d="M4.588 1.002a1.234 1.234 0 0 1-1.174 1.617 1.23 1.23 0 0 1-.805-.299A1.234 1.234 0 0 1 3.783.703c.308 0 .59.113.805.299z" fill="#FF8F5C"/><ellipse stroke="#404F54" stroke-width=".55" cx="3.414" cy="1.384" rx="1.235" ry="1.235"/><rect stroke="#404F54" stroke-width=".55" stroke-linecap="round" fill="#F5F6F7" x="2.765" y="7.492" width="1.18" height="2.105" rx=".59"/><rect stroke="#404F54" stroke-width=".55" stroke-linecap="round" fill="#FFF" x=".892" y="1.958" width="4.928" height="6.55" rx="2.464"/><path stroke="#404F54" stroke-width=".5" stroke-linecap="round" stroke-linejoin="round" d="M3.135 5.934v.699h.204"/><path d="M2.901 7.15a.41.41 0 1 0 .819 0" stroke="#FF8F5C" stroke-width=".55" stroke-linecap="round" fill="#F5F6F7"/><path d="M2.581 2.08a2.453 2.453 0 0 0-1.69 2.336v.808c.195-.043 1.025-.226 2.107-.461 1.24-.27 1.73-.683 1.73-.683s.232.601.403.906c.146.261.509.647.509.647v-.76s.078.028.18.037v-.494a2.468 2.468 0 0 0-1.583-2.294c-.447-.06-.965-.043-1.56-.043-.033 0-.064 0-.096.002z" fill="#DAE2E6"/><path d="M4.693 5.997a.285.285 0 0 0-.286-.285.285.285 0 0 0-.286.285m-1.526 0a.285.285 0 0 0-.286-.285.285.285 0 0 0-.286.285" stroke="#404F54" stroke-width=".5" stroke-linecap="round" fill="#F5F6F7"/><path d="M2.78 5.259a.47.47 0 0 0-.47-.468.47.47 0 0 0-.471.468m2.971 0a.47.47 0 0 0-.47-.468.47.47 0 0 0-.471.468" stroke="#404F54" stroke-width=".5" stroke-linecap="round"/><path d="M4.863 3.475s-.61.507-1.85.777c-1.242.27-2.091.404-2.091.404l-.059.572h-.53S.094 3.576.504 2.853c.41-.724 1.067-1.327 2.172-1.327 1.105 0 1.94-.059 2.56.42.62.479 1.03 1.347 1.03 1.973v1.253h-.45s-.433-.467-.58-.729c-.17-.304-.373-.968-.373-.968z" stroke="#404F54" stroke-width=".55" fill="#FFA47B"/><path d="M.958 4.65c.174-.028.963-.16 2.054-.398 1.241-.27 1.851-.777 1.851-.777s.203.664.374.968c.071.128.21.305.335.452v-.917c0-.481-.314-1.149-.791-1.517-.477-.368-1.119-.323-1.969-.323-.85 0-1.354.464-1.67 1.02-.15.265-.187.9-.184 1.492z" fill="#FF8F5C"/><path d="M4.863 3.475s-.61.507-1.85.777c-1.242.27-2.091.404-2.091.404l-.045.572H.333S.094 3.576.504 2.853c.41-.724 1.067-1.327 2.172-1.327 1.105 0 1.94-.059 2.56.42.62.479 1.03 1.347 1.03 1.973v1.253h-.45s-.433-.467-.58-.729c-.17-.304-.373-.968-.373-.968z" stroke="#404F54" stroke-width=".55"/><path d="M4.863 4.028s-.61.507-1.85.778a40.55 40.55 0 0 1-2.091.404l-.045.572H.333S.094 4.13.504 3.406c.41-.724 1.067-1.327 2.172-1.327 1.105 0 1.94-.058 2.56.42.62.48 1.03 1.348 1.03 1.973v1.254h-.45s-.433-.468-.58-.729c-.17-.305-.373-.969-.373-.969z"/></g></g></g></g><g transform="rotate(-20 168.534 -201.682)"><rect stroke="#404F54" stroke-width="1.5" stroke-linecap="round" fill="#404F54" opacity=".109" x=".575" y=".458" width="48.047" height="62.727" rx="3"/><rect stroke="#ADBCC1" stroke-width="1.5" stroke-linecap="round" fill="#FFF" x="4.183" y="1.01" width="48.047" height="62.727" rx="3"/><path d="M10.662 15.033l2.123-6.099h1.526l2.114 6.099h-1.698l-.37-1.196H12.73l-.36 1.196h-1.708zm2.32-2.311h1.107l-.54-1.888-.567 1.888z" fill="#23C4B7"/><path fill="#C8DDE7" d="M10.738 33.645h15.033v9.306H10.738zm17.896 0h15.033v9.306H28.634z"/><path d="M21.612 9.306h17.176" stroke="#C8DDE7" stroke-width="2" stroke-linecap="round" stroke-linejoin="round"/><path d="M21.612 13.601H31.63" stroke="#E9F1F4" stroke-width="2" stroke-linecap="round" stroke-linejoin="round"/><path d="M10.874 20.044h15.619m4.794 0h15.376" stroke="#C8DDE7" stroke-width="2" stroke-linecap="round" stroke-linejoin="round"/><path d="M10.874 24.339h8.038m2.155 0h15.96m3.018 0h6.618m-35.789 4.295h21.472" stroke="#E9F1F4" stroke-width="2" stroke-linecap="round" stroke-linejoin="round"/><path d="M10.874 47.962h15.619m4.794 0h8.656" stroke="#C8DDE7" stroke-width="2" stroke-linecap="round" stroke-linejoin="round"/><path d="M10.874 52.257h21.472" stroke="#E9F1F4" stroke-width="2" stroke-linecap="round" stroke-linejoin="round"/></g><path d="M139.415 54.457l7.854 34.021a2.148 2.148 0 0 1-1.603 2.58l-42.64 9.845a2.143 2.143 0 0 1-2.57-1.605L87.31 42.352a2.142 2.142 0 0 1 1.606-2.568l42.64-9.845a2.143 2.143 0 0 1 2.57 1.608l3.87 16.763m.494 2.139l.253 1.094" stroke="#404F54" stroke-width="1.5" stroke-linecap="round" fill="#FFF"/><path d="M96.295 52.472l.696-6.42 1.488-.343 3.432 5.466-1.656.383-.628-1.082-1.586.366-.082 1.246-1.664.384zm1.74-2.774l1.08-.249-.952-1.717-.128 1.966z" fill="#23C4B7"/><path fill="#C8DDE7" d="M100.555 70.59l14.648-3.382 2.093 9.068-14.648 3.382zm17.438-4.026l14.648-3.382 2.093 9.068-14.647 3.382z"/><path d="M105.676 44.429l16.736-3.864" stroke="#C8DDE7" stroke-width="2" stroke-linecap="round" stroke-linejoin="round"/><path d="M106.642 48.614l9.761-2.254" stroke="#E9F1F4" stroke-width="2" stroke-linecap="round" stroke-linejoin="round"/><path d="M97.63 57.307l15.217-3.514" stroke="#FF8F5C" stroke-width="2" stroke-linecap="round" stroke-linejoin="round"/><path stroke="#C8DDE7" stroke-width="2" stroke-linecap="round" stroke-linejoin="round" d="M117.518 52.715l5.462-1.261 2.973-.686 6.547-1.512"/><path d="M98.595 61.492l7.832-1.808m2.1-.485l15.55-3.59m2.942-.68l6.447-1.488M99.561 65.677l20.922-4.83" stroke="#E9F1F4" stroke-width="2" stroke-linecap="round" stroke-linejoin="round"/><path d="M103.91 84.51l15.217-3.514m4.671-1.079l5.462-1.26 2.973-.687" stroke="#C8DDE7" stroke-width="2" stroke-linecap="round" stroke-linejoin="round"/><path d="M104.875 88.694l20.922-4.83" stroke="#23C4B7" stroke-width="2" stroke-linecap="round" stroke-linejoin="round"/><g transform="rotate(22 -178.5 200.115)"><path d="M15.921 0H.775A.78.78 0 0 0 0 .777v26.4a.78.78 0 0 0 .775.777h20.968a.78.78 0 0 0 .775-.777V6.83L15.921 0z" fill="#FFF"/><rect fill="#E0EAEF" x="3.882" y="3.882" width="7.765" height="7.765" rx="1"/><path d="M15.7 0h.221l6.597 6.831v.192h-6.044a.78.78 0 0 1-.775-.777V0z" fill="#E0EAEF"/><rect fill="#E0EAEF" x="3.882" y="15.53" width="13.977" height="1.553" rx=".776"/><rect fill="#E0EAEF" x="3.882" y="18.636" width="13.977" height="1.553" rx=".776"/><rect fill="#E0EAEF" x="3.882" y="21.742" width="10.871" height="1.553" rx=".776"/><use stroke="#404F54" mask="url(#c)" stroke-width="3" xlink:href="#a"/></g><g transform="rotate(-25 77.875 -69.043)"><path d="M15.921 0H.775A.78.78 0 0 0 0 .777v26.4a.78.78 0 0 0 .775.777h20.968a.78.78 0 0 0 .775-.777V6.83L15.921 0z" fill="#FFF"/><rect fill="#E0EAEF" x="3.882" y="3.882" width="7.765" height="7.765" rx="1"/><path d="M15.7 0h.221l6.597 6.831v.192h-6.044a.78.78 0 0 1-.775-.777V0z" fill="#E0EAEF"/><rect fill="#E0EAEF" x="3.882" y="15.53" width="13.977" height="1.553" rx=".776"/><rect fill="#E0EAEF" x="3.882" y="18.636" width="13.977" height="1.553" rx=".776"/><rect fill="#E0EAEF" x="3.882" y="21.742" width="10.871" height="1.553" rx=".776"/><use stroke="#404F54" mask="url(#d)" stroke-width="3" xlink:href="#b"/></g><g transform="rotate(54 -22.347 123.93)" stroke-width="1.5" stroke-linecap="round"><path d="M4.745 23.191a2.498 2.498 0 0 1 3.526 0l1.859 1.859c.973.973 1.103 2.677.299 3.79l-2.457 3.401c-.808 1.12-2.124 1.114-2.928 0l-2.456-3.4c-.81-1.12-.67-2.823.298-3.791l1.859-1.859z" stroke="#404F54" fill="#FFF"/><rect stroke="#404F54" fill="#FF8F5C" x="1.886" y=".299" width="9.665" height="27.162" rx="4.832"/><path d="M3.956 5.423a2.761 2.761 0 0 1 2.763-2.76M8.294 26.79V5.37M4.402 26.79V8.529" stroke="#FFF"/></g><g transform="translate(1.015 78.905)"><ellipse fill="#404F54" opacity=".177" cx="23.349" cy="18.97" rx="18.97" ry="18.97"/><ellipse fill="#FF9768" cx="19.054" cy="21.833" rx="18.97" ry="18.97"/><ellipse fill="#FF7F45" cx="23.207" cy="24.564" rx="14.091" ry="14.091"/><path d="M2.85 11.965a18.881 18.881 0 0 0-2.766 9.868c0 10.477 8.493 18.97 18.97 18.97 10.477 0 18.97-8.493 18.97-18.97 0-10.476-8.493-18.97-18.97-18.97a18.875 18.875 0 0 0-10.16 2.948m-3.79 3.166c-.338.367-.662.747-.971 1.14" stroke="#404F54" stroke-width="1.5" stroke-linecap="round"/><g filter="url(#e)" transform="translate(13.685 11.096)" stroke-width="1.5"><path d="M5.123.08s3.259 3.024 3.827 8.5c.569 5.478-1.66 9.849-1.66 9.849H2.956s-2.62-4.064-1.89-9.848c.73-5.784 4.058-8.5 4.058-8.5z" stroke="#FFF" stroke-linecap="round" stroke-linejoin="round"/><ellipse stroke="#FFE6DA" cx="5.011" cy="8.59" rx="1.432" ry="1.432"/><path stroke="#FFF" stroke-linecap="round" stroke-linejoin="round" d="M2.967 18.45L.186 20.82l-.099-6.158 1.137-1.09m5.969 4.878l2.782 2.37.099-6.158-1.25-1.199"/></g></g></g></svg>