<svg width="143" height="139" viewBox="0 0 143 139" xmlns="http://www.w3.org/2000/svg"><title>Comments</title><g fill="none" fill-rule="evenodd"><path d="M-10-6h160v160H-10z"/><g transform="translate(10.812 5.335)" fill="#DDECEA"><circle opacity=".383" cx="56.192" cy="66.749" r="56.192"/><ellipse opacity=".336" cx="71.779" cy="56.488" rx="56.192" ry="56.192"/></g><g transform="translate(1.38 1.123)" stroke="#C5D7E0" stroke-width="1.2" stroke-linecap="round"><path d="M24.471 5.896l-2.474-2.474m108.633 111.6l-2.475-2.474M2.807 35.668l3.03-1.75M9.39 68.581l3.03-1.75" fill="#DAE2E6"/><path d="M136.24 28.135a1.785 1.785 0 1 0 1.785-1.785M83.579 1.804A1.785 1.785 0 1 0 85.364.02" stroke-linejoin="round"/><ellipse stroke-linejoin="round" cx="134.61" cy="81.557" rx="1.241" ry="1.241"/><circle stroke-linejoin="round" cx="53.903" cy="135.362" r="1.241"/><ellipse stroke-linejoin="round" cx="1.242" cy="89.284" rx="1.241" ry="1.241"/><ellipse stroke-linejoin="round" cx="89.773" cy="126.395" rx="1.241" ry="1.241"/><ellipse stroke-linejoin="round" cx="67.354" cy="45.687" rx="1.241" ry="1.241"/></g><g transform="translate(1.431 22)"><rect stroke="#404F54" stroke-width="1.5" stroke-linecap="round" fill="#404F54" opacity=".15" transform="rotate(-11 64.723 58.634)" x="7" y="18" width="115.447" height="81.269" rx="3"/><rect stroke="#404F54" stroke-width="1.5" stroke-linecap="round" fill="#F1F9FD" transform="rotate(-11 67.723 51.634)" x="10" y="11" width="115.447" height="81.269" rx="3"/><rect stroke="#404F54" stroke-width="1.5" stroke-linecap="round" fill="#FFF" x="10" y="11" width="115.447" height="81.269" rx="3"/><rect fill="#E0EAEF" x="22" y="68" width="84.089" height="3.63" rx="1.815"/><rect fill="#E0EAEF" x="22" y="26" width="84.089" height="3.63" rx="1.815"/><rect fill="#FF8F5C" x="22" y="36" width="84.089" height="3.63" rx="1.815"/><rect fill="#E0EAEF" x="22" y="77" width="84.089" height="3.63" rx="1.815"/></g><g transform="translate(20.856 81.619)"><circle stroke="#404F54" stroke-width="1.5" stroke-linecap="round" fill="#F1F9FD" cx="23.075" cy="23.075" r="23.075"/><g transform="translate(12.454 6.502)"><ellipse stroke="#404F54" stroke-width="1.5" stroke-linecap="round" fill="#F5F6F7" cx="11.27" cy="28.315" rx="3.844" ry="3.835"/><path d="M21.396 15.185l.776 6.705c.423 3.66-2.217 6.628-5.898 6.628H6.236c-3.68 0-6.332-2.96-5.92-6.628l.755-6.705h20.325z" stroke="#404F54" stroke-width="1.5" stroke-linecap="round" fill="#FF8F55"/><ellipse stroke="#404F54" stroke-width="1.5" stroke-linecap="round" fill="#F5F6F7" cx="2.307" cy="16.669" rx="2.051" ry="2.047"/><ellipse stroke="#404F54" stroke-width="1.5" stroke-linecap="round" fill="#F5F6F7" cx="20.174" cy="16.669" rx="2.051" ry="2.047"/><rect stroke="#404F54" stroke-width="1.5" stroke-linecap="round" fill="#F5F6F7" x="9.255" y="23.356" width="3.95" height="7.066" rx="1.975"/><rect stroke="#404F54" stroke-width="1.5" stroke-linecap="round" fill="#FFF" x="2.984" y="3.851" width="16.492" height="22.914" rx="8.246"/><path d="M3.018 11.34a8.251 8.251 0 0 1 8.212-7.49 8.252 8.252 0 0 1 8.006 6.257l-.182 3.227v2.422s-.402-.142-.643-.33c-1.56-1.223-1.53-3.91-1.53-3.91s-1.721.937-2.72.937c-.998 0-1.325-1.287-1.325-1.287s-1.083.944-2.138.944-5.257.516-5.257.516L3.4 16.648v-5.133l-.383-.176z" fill="#DAE2E6"/><path d="M17.556 8.893s-1.537 2.112-2.994 2.112c-1.458 0-.715-2.112-.715-2.112s-3.02 1.699-5.086 2.112c-2.065.413-4.083 0-4.083 0l-1.67 3.15-.2.727-1.501-.102S.054 9.977.68 6.66C1.307 3.343 4.7 1.086 7.357.47c2.1-.488 5.708-.453 7.973.958 2.266 1.41 2.854 2.38 2.854 2.38s2.27-.495 3.225 2.296c.955 2.79 0 8.464 0 8.464l-1.541.098s-1.317-1.795-1.684-2.712c-.403-1.006-.628-3.06-.628-3.06z" stroke="#404F54" stroke-width="1.5" stroke-linecap="round" fill="#FF8F55"/><path d="M1.746 14.81l-.44-.03S.055 9.977.68 6.66C1.307 3.343 4.7 1.086 7.357.47c2.1-.488 5.708-.453 7.973.958 2.266 1.41 2.854 2.38 2.854 2.38s2.27-.495 3.225 2.296c.955 2.79 0 8.464 0 8.464l-1.186.076c-.012-1.11-.1-7.238-.551-8.126-.183-.36-.624-.791-1.06-1-.642-.306-1.657 0-1.657 0s-2.934-3.473-7.363-3.473-5.953 2.34-6.907 4.18c-.953 1.84-1.055 5.874-1.055 5.874l.116 2.712z" fill="#FFA477"/><path d="M17.556 8.893s-1.537 2.112-2.994 2.112c-1.458 0-.715-2.112-.715-2.112s-3.02 1.699-5.086 2.112c-2.065.413-4.083 0-4.083 0l-1.67 3.15-.2.727-1.501-.102S.054 9.977.68 6.66C1.307 3.343 4.7 1.086 7.357.47c2.1-.488 5.708-.453 7.973.958 2.266 1.41 2.854 2.38 2.854 2.38s2.27-.495 3.225 2.296c.955 2.79 0 8.464 0 8.464l-1.541.098s-1.317-1.795-1.684-2.712c-.403-1.006-.628-3.06-.628-3.06z" stroke="#404F54" stroke-width="1.5" stroke-linecap="round"/><path stroke="#404F54" stroke-width="1.5" stroke-linecap="round" stroke-linejoin="round" fill="#F5F6F7" d="M11.788 17.273v3.197h-1.226"/><ellipse fill="#404F54" cx="7.213" cy="17.592" rx=".731" ry=".729"/><ellipse fill="#404F54" cx="15.278" cy="17.592" rx=".731" ry=".729"/><path d="M12.13 23.195a1.737 1.737 0 0 1-2.716-1.435" stroke="#FF8F5C" stroke-width="1.5" stroke-linecap="round"/><path d="M16.822 16.081c0-.932-.757-1.687-1.69-1.687-.935 0-1.692.755-1.692 1.687m-4.59 0c0-.932-.756-1.687-1.69-1.687-.934 0-1.69.755-1.69 1.687" stroke="#404F54" stroke-width="1.5" stroke-linecap="round"/></g></g><g transform="matrix(-1 0 0 1 107 52.5)"><path d="M61.306 38.128a5.004 5.004 0 0 0 2.391-4.271V11.034a4.993 4.993 0 0 0-4.994-5.004H10.707a5 5 0 0 0-4.994 5.004v22.823a4.993 4.993 0 0 0 4.994 5.004h36.72l21.195 9.423c2.022.899 2.431.324.914-1.293 0 0-4.468-4.718-8.23-8.863z" fill="#404F54" opacity=".094"/><path d="M58.697 27.857V5.034A4.993 4.993 0 0 0 53.703.03H5.707A5 5 0 0 0 .713 5.034v22.823a4.993 4.993 0 0 0 4.994 5.004h36.72l24.855 11.05s-6.249-6.606-10.953-11.798a5.004 5.004 0 0 0 2.368-4.256z" fill="#FFF"/><path d="M14.474.03H5.72A5.008 5.008 0 0 0 .713 5.039m0 7.868v14.944a4.994 4.994 0 0 0 4.994 5.01h36.72l24.855 11.05s-6.249-6.606-10.953-11.798a5.004 5.004 0 0 0 2.368-4.256V5.034A4.993 4.993 0 0 0 53.704.03H39.692M27.76.03h-8.374" stroke="#404F54" stroke-width="1.5" stroke-linecap="round" stroke-linejoin="round"/><ellipse fill="#FFA47B" cx="14.836" cy="16.494" rx="3.815" ry="3.815"/><path d="M11.02 16.494a3.815 3.815 0 1 0 3.815-3.815" stroke="#404F54" stroke-width="1.5" stroke-linecap="round"/><ellipse stroke="#404F54" stroke-width="1.5" stroke-linecap="round" fill="#FFA47B" cx="29.032" cy="16.494" rx="3.815" ry="3.815"/><ellipse stroke="#404F54" stroke-width="1.5" stroke-linecap="round" fill="#FFA47B" cx="43.229" cy="16.494" rx="3.815" ry="3.815"/></g><g transform="translate(94 10.347)"><ellipse stroke="#404F54" stroke-width="1.5" stroke-linecap="round" fill="#F1F9FD" cx="23.992" cy="24.206" rx="23.81" ry="23.81"/><g transform="translate(10.675 6.165)"><path d="M21.179 6.177s-.161-3.322-1.156-3.987c-.994-.665-2.077-.843-2.257-.22-.18.622 0 2.181 0 2.181s-1.543-1.995-4.508-2.881C10.292.383 7.344-.081 5.93.215 4.517.51 3.08 1.942 3.898 2.855c.817.914 2.503.914 2.503.914S3.002 4.833 1.388 5.761C-.227 6.691-.054 8.633.5 9.127c.555.495 2.86.156 2.86.156s-.777 2.932-.616 4.792c.161 1.86.677 3.733.847 4.425.17.693.925.935.925.935l18.36.306s.98-2.677.98-4.172c0-1.494-.095-3.67-.31-4.808-.213-1.137-.67-2.39-.67-2.39s1.198-.193 1.733-.193c.535 0-.302-1.79-1.092-2.001-.79-.211-2.34 0-2.34 0z" stroke="#404F54" stroke-width="1.5" stroke-linecap="round" fill="#85DAD2"/><ellipse stroke="#404F54" stroke-width="1.5" stroke-linecap="round" fill="#F5F6F7" cx="4.728" cy="20.614" rx="2.012" ry="2.012"/><ellipse stroke="#404F54" stroke-width="1.5" stroke-linecap="round" fill="#F5F6F7" cx="22.251" cy="20.614" rx="2.012" ry="2.012"/><path d="M16.745 36.626a3.954 3.954 0 0 0 .696-2.246v-.289a3.958 3.958 0 0 0-3.961-3.97 3.968 3.968 0 0 0-3.961 3.97v.29c0 .836.255 1.61.693 2.248a3.425 3.425 0 0 1 3.268-2.399 3.432 3.432 0 0 1 3.265 2.396z" stroke="#404F54" stroke-width="1.5" stroke-linecap="round" fill="#E6EBEE"/><rect stroke="#404F54" stroke-width="1.5" stroke-linecap="round" fill="#F5F6F7" x="11.542" y="27.188" width="3.874" height="6.947" rx="1.937"/><rect stroke="#404F54" stroke-width="1.5" stroke-linecap="round" fill="#FFF" x="5.392" y="6.74" width="16.176" height="23.799" rx="8.088"/><path stroke="#404F54" stroke-width="1.5" stroke-linecap="round" stroke-linejoin="round" fill="#F5F6F7" d="M12.384 18.14v5.507h1.642"/><rect stroke="#FF8F5C" stroke-width="1.5" stroke-linecap="round" fill="#F5F6F7" x="6.551" y="16.795" width="5.8" height="5.617" rx="2.809"/><rect stroke="#FF8F5C" stroke-width="1.5" stroke-linecap="round" fill="#F5F6F7" x="14.369" y="16.795" width="5.8" height="5.617" rx="2.809"/><ellipse fill="#404F54" cx="17.179" cy="19.485" rx=".734" ry=".734"/><ellipse fill="#404F54" cx="9.631" cy="19.485" rx=".734" ry=".734"/><path d="M4.18 18.161h2.13m6.085 0h1.962m5.887 0h2.463" stroke="#FF8F5C" stroke-width="1.5" stroke-linecap="round" fill="#F5F6F7"/><path d="M12.636 26.727a1.981 1.981 0 0 0 3.095-1.639" stroke="#FF8F5C" stroke-width="1.5" stroke-linecap="round"/><path d="M18.964 15.282a1.658 1.658 0 1 0-3.317 0m-4.501 0a1.658 1.658 0 0 0-3.317 0" stroke="#404F54" stroke-width="1.5" stroke-linecap="round" fill="#F5F6F7"/></g></g></g></svg>