<?xml version="1.0" encoding="UTF-8"?>
<svg width="212px" height="208px" viewBox="0 0 212 208" version="1.1" xmlns="http://www.w3.org/2000/svg" xmlns:xlink="http://www.w3.org/1999/xlink">
    <!-- Generator: Sketch 49 (51002) - http://www.bohemiancoding.com/sketch -->
    <title>Group 2 Copy 2</title>
    <desc>Created with Sketch.</desc>
    <defs></defs>
    <g id="Final" stroke="none" stroke-width="1" fill="none" fill-rule="evenodd">
        <g id="1.1.0" transform="translate(-720.000000, -191.000000)">
            <g id="Group-2-Copy-2" transform="translate(720.000000, 192.000000)">
                <g id="bg" transform="translate(0.633229, 0.073697)">
                    <g transform="translate(14.717810, 6.803206)" fill="#DCEBEA">
                        <circle id="Oval-2" opacity="0.382925725" cx="84.288672" cy="100.124002" r="84.288672"></circle>
                        <circle id="Oval-2-Copy" opacity="0.3359375" cx="107.668012" cy="84.7321571" r="84.288672"></circle>
                    </g>
                    <g id="spread" transform="translate(0.568708, 0.484503)" stroke="#C5D6DF" stroke-linecap="round" stroke-width="1.8">
                        <path d="M36.706515,8.84386677 L32.9951773,5.13252907" id="Path-67" fill="#DAE2E6"></path>
                        <path d="M195.944349,172.532923 L192.233011,168.821585" id="Path-67-Copy" fill="#DAE2E6"></path>
                        <path d="M4.21050202,53.5017529 L8.75594383,50.8774408" id="Path-67-Copy-2" fill="#DAE2E6"></path>
                        <path d="M14.0844734,102.87161 L18.6299153,100.247298" id="Path-67-Copy-3" fill="#DAE2E6"></path>
                        <path d="M204.360181,42.2023995 C204.360181,43.6811032 205.558907,44.8798294 207.037611,44.8798294 L207.037611,44.8798294 C208.516314,44.8798294 209.71504,43.6811032 209.71504,42.2023995 C209.71504,40.7236959 208.516314,39.5249697 207.037611,39.5249697" id="Oval-22-Copy-4" stroke-linejoin="round"></path>
                        <path d="M125.368409,2.70651385 C125.368409,4.18521752 126.567136,5.38394369 128.045839,5.38394369 L128.045839,5.38394369 C129.524543,5.38394369 130.723269,4.18521752 130.723269,2.70651385 C130.723269,1.22781019 129.524543,0.0290840179 128.045839,0.0290840179" id="Oval-22-Copy-5" stroke-linejoin="round"></path>
                        <circle id="Oval-22-Copy-7" stroke-linejoin="round" cx="201.915091" cy="122.336069" r="1.86185209"></circle>
                        <circle id="Oval-22-Copy-9" stroke-linejoin="round" cx="80.8540904" cy="203.043403" r="1.86185209"></circle>
                        <circle id="Oval-22-Copy-11" stroke-linejoin="round" cx="1.86231902" cy="133.925603" r="1.86185209"></circle>
                        <circle id="Oval-22-Copy-10" stroke-linejoin="round" cx="134.658979" cy="189.592181" r="1.86185209"></circle>
                        <circle id="Oval-22-Copy-8" stroke-linejoin="round" cx="101.030924" cy="68.5311804" r="1.86185209"></circle>
                    </g>
                </g>
                <g id="Group-3" transform="translate(47.133229, 48.073697)">
                    <rect id="Rectangle-6" stroke="#404F54" stroke-width="2.25" fill="#FFFFFF" stroke-linecap="round" x="0.897818134" y="0.327926276" width="135.527977" height="95.3928178" rx="5"></rect>
                    <circle id="Oval-6" fill="#C8DDE7" cx="9.56191837" cy="7.21343771" r="2.14753774"></circle>
                    <circle id="Oval-6-Copy" fill="#C8DDE7" cx="16.0045316" cy="7.21343771" r="2.14753774"></circle>
                    <circle id="Oval-6-Copy-2" fill="#C8DDE7" cx="22.4471448" cy="7.21343771" r="2.14753774"></circle>
                    <path d="M0.897818134,13.0669312 L136.425795,13.0669312 L136.425795,90.7207441 C136.425795,93.4821679 134.187219,95.7207441 131.425795,95.7207441 L5.89781813,95.7207441 C3.13639438,95.7207441 0.897818134,93.4821679 0.897818134,90.7207441 L0.897818134,13.0669312 Z" id="Rectangle-6-Copy-3" stroke="#404F54" stroke-width="2.25" fill="#F1F4F7" stroke-linecap="round"></path>
                    <path d="M41.764741,28.4752818 L69.5288206,28.4752818 M78.0505263,28.4752818 L88.0151446,28.4752818 L93.4387048,28.4752818 L105.383714,28.4752818" id="Path-5-Copy-3" stroke="#C8DDE7" stroke-width="3" stroke-linecap="round" stroke-linejoin="round"></path>
                    <path d="M41.764741,36.1104128 L56.0529706,36.1104128 M59.8834051,36.1104128 L88.2534635,36.1104128 M93.6206938,36.1104128 L105.383714,36.1104128" id="Path-5-Copy-2" stroke="#DEEBF1" stroke-width="3" stroke-linecap="round" stroke-linejoin="round"></path>
                    <path d="M41.764741,43.7455438 L79.9332772,43.7455438" id="Path-5-Copy-4" stroke="#DEEBF1" stroke-width="3" stroke-linecap="round" stroke-linejoin="round"></path>
                    <path d="M1.48293229,14.0043832 L28.6170924,14.0043832 L28.6170924,93.9430115 L6.48293229,93.9430115 C3.72150854,93.9430115 1.48293229,91.7044353 1.48293229,88.9430115 L1.48293229,14.0043832 Z" id="Rectangle-6-Copy" fill="#FFFFFF"></path>
                    <rect id="Rectangle-6-Copy-2" fill="#23C4B7" x="1.48293229" y="14.0043832" width="27.1341601" height="34.7953195"></rect>
                    <g id="dashboard" transform="translate(0.897818, 13.066931)">
                        <rect id="Rectangle-7-Copy-7" fill="#E0EAEF" x="3.94120867" y="41.5715992" width="20.1802794" height="2.91364796" rx="1.45682398"></rect>
                        <rect id="Rectangle-7-Copy-8" fill="#E0EAEF" x="3.94120867" y="46.4118841" width="14.1299233" height="2.91364796" rx="1.45682398"></rect>
                        <g id="Group" transform="translate(4.472951, 9.810118)">
                            <circle id="Oval-10-Copy" fill="#FFFFFF" cx="9.83361671" cy="9.56135739" r="9.51826997"></circle>
                            <circle id="Oval-10-Copy-5" fill="#FFFFFF" cx="11.1652252" cy="10.8929659" r="9.51826997"></circle>
                            <circle id="Oval-10-Copy-4" stroke="#404F54" stroke-width="1.2375" stroke-linecap="round" cx="9.83361671" cy="9.56135739" r="9.51826997"></circle>
                            <g id="Group-6" transform="translate(4.928879, 2.297996)">
                                <ellipse id="Oval-5" stroke="#404F54" stroke-width="0.825" fill="#F5F6F7" stroke-linecap="round" cx="1.03416438" cy="8.52685685" rx="1" ry="1"></ellipse>
                                <ellipse id="Oval-5-Copy" stroke="#404F54" stroke-width="0.825" fill="#F5F6F7" stroke-linecap="round" cx="9.04150183" cy="8.52685685" rx="1" ry="1"></ellipse>
                                <rect id="Rectangle-31-Copy-8" stroke="#404F54" stroke-width="0.825" fill="#FF8F5C" stroke-linecap="round" x="1.3375674" y="10.1576386" width="7.39138841" height="3.15782816" rx="1.57891408"></rect>
                                <circle id="Oval-3" stroke="#404F54" stroke-width="0.825" fill="#FFA47B" cx="5.12117001" cy="2.07615001" r="1.85190836"></circle>
                                <path d="M3.91339887,3.4800629 C3.85465495,3.29950341 3.82290166,3.1067649 3.82290166,2.90661001 C3.82290166,1.88382926 4.65202927,1.05470165 5.67481001,1.05470165 C6.1362791,1.05470165 6.55832564,1.22348963 6.88258116,1.50269712 C6.94132508,1.6832566 6.97307837,1.87599511 6.97307837,2.07615001 C6.97307837,3.09893075 6.14395076,3.92805836 5.12117001,3.92805836 C4.65970093,3.92805836 4.23765439,3.75927038 3.91339887,3.4800629 Z" id="Combined-Shape" fill="#FF8F5C"></path>
                                <circle id="Oval-3-Copy" stroke="#404F54" stroke-width="0.825" cx="5.12117001" cy="2.07615001" r="1.85190836"></circle>
                                <rect id="Rectangle-31-Copy-10" stroke="#404F54" stroke-width="0.825" fill="#F5F6F7" stroke-linecap="round" x="4.14809868" y="11.2385471" width="1.77032585" height="3.15782816" rx="0.885162925"></rect>
                                <rect id="Rectangle-31" stroke="#404F54" stroke-width="0.825" fill="#FFFFFF" stroke-linecap="round" x="1.3375674" y="2.93744233" width="7.39138841" height="9.82438444" rx="3.6956942"></rect>
                                <polyline id="Path-35" stroke="#404F54" stroke-width="0.75" stroke-linecap="round" stroke-linejoin="round" points="4.70181665 8.90056145 4.70181665 9.94876389 5.00803045 9.94876389"></polyline>
                                <path d="M4.35200647,10.7237685 C4.35200647,11.0627018 4.62676617,11.3374615 4.96569942,11.3374615 C5.30463268,11.3374615 5.57939237,11.0627018 5.57939237,10.7237685" id="Oval-5-Copy-2" stroke="#FF8F5C" stroke-width="0.825" fill="#F5F6F7" stroke-linecap="round"></path>
                                <path d="M6.36150103,3.18331104 C7.7463517,3.71684834 8.72895581,5.06024269 8.72895581,6.63313653 L8.72895581,7.36498245 C8.57704596,7.35198629 8.45949782,7.30975882 8.45949782,7.30975882 L8.45949782,8.4493435 C8.45949782,8.4493435 7.91601852,7.8707323 7.69635049,7.47902046 C7.44004674,7.02197983 7.0929694,6.11948688 7.0929694,6.11948688 C7.0929694,6.11948688 6.35827452,6.73858103 4.49676815,7.14380875 C2.8732516,7.49722892 1.62914411,7.77106265 1.3375674,7.83530414 L1.3375674,6.63313653 C1.3375674,4.99483356 2.40359438,3.60551452 3.87983526,3.12099251 C3.92424453,3.11964932 3.96915184,3.11897029 4.01456338,3.11897029 C4.91080683,3.11897029 5.68885301,3.09332334 6.36150103,3.18331104 Z" id="Combined-Shape" fill="#DAE2E6"></path>
                                <path d="M6.03905754,7.99526135 C6.03905754,8.23097006 6.23113737,8.42204971 6.46807984,8.42204971 C6.70502231,8.42204971 6.89710213,8.23097006 6.89710213,7.99526135" id="Oval-5-Copy-7" stroke="#404F54" stroke-width="0.75" fill="#F5F6F7" stroke-linecap="round" transform="translate(6.539058, 8.495261) rotate(-180.000000) translate(-6.539058, -8.495261) "></path>
                                <path d="M2.89304781,7.99526135 C2.89304781,8.23097006 3.08512763,8.42204971 3.3220701,8.42204971 C3.55901258,8.42204971 3.7510924,8.23097006 3.7510924,7.99526135" id="Oval-5-Copy-8" stroke="#404F54" stroke-width="0.75" fill="#F5F6F7" stroke-linecap="round" transform="translate(3.393048, 8.495261) rotate(-180.000000) translate(-3.393048, -8.495261) "></path>
                                <path d="M2.75818322,6.88798135 C2.75818322,7.27577745 3.07419958,7.5901483 3.46402552,7.5901483 C3.85385145,7.5901483 4.16986781,7.27577745 4.16986781,6.88798135" id="Oval-5-Copy-12" stroke="#404F54" stroke-width="0.75" stroke-linecap="round" transform="translate(3.464026, 7.387981) rotate(-180.000000) translate(-3.464026, -7.387981) "></path>
                                <path d="M5.80320323,6.88798135 C5.80320323,7.27577745 6.11921959,7.5901483 6.50904552,7.5901483 C6.89887146,7.5901483 7.21488782,7.27577745 7.21488782,6.88798135" id="Oval-5-Copy-13" stroke="#404F54" stroke-width="0.75" stroke-linecap="round" transform="translate(6.509046, 7.387981) rotate(-180.000000) translate(-6.509046, -7.387981) "></path>
                                <path d="M7.29490743,5.21228638 C7.29490743,5.21228638 6.38010383,5.97273038 4.51859746,6.3779581 C2.65709109,6.78318581 1.38234039,6.98390735 1.38234039,6.98390735 L1.29488798,7.84269185 L0.499659386,7.84269185 C0.499659386,7.84269185 0.141516362,5.36448331 0.756386569,4.27882987 C1.37125678,3.19317643 2.35702253,2.28851029 4.01456338,2.28851029 C5.67210424,2.28851029 6.92536354,2.20078754 7.85530573,2.91905975 C8.78524792,3.63733196 9.39836097,4.93965652 9.39836097,5.87811417 C9.39836097,6.81657182 9.39836097,7.75854379 9.39836097,7.75854379 L8.72282279,7.75854379 C8.72282279,7.75854379 8.07497376,7.05676256 7.85530573,6.66505072 C7.59900197,6.20801009 7.29490743,5.21228638 7.29490743,5.21228638 Z" id="Path-54" stroke="#404F54" stroke-width="0.825" fill="#FFA47B"></path>
                                <path d="M1.43661861,6.97516482 C1.43315584,6.08583495 1.48880471,5.13400445 1.71357777,4.73713102 C2.18631313,3.90243979 2.94420694,3.20689841 4.21858674,3.20689841 C5.49296654,3.20689841 6.45651947,3.13945386 7.17149403,3.69168857 C7.88646859,4.24392328 8.35785298,5.24519943 8.35785298,5.96672099 L8.35785298,7.34256429 C8.17174322,7.12129482 7.96252237,6.85623934 7.85530573,6.66505072 C7.59900197,6.20801009 7.29490743,5.21228638 7.29490743,5.21228638 C7.29490743,5.21228638 6.38010383,5.97273038 4.51859746,6.3779581 C2.88130427,6.73437728 1.697933,6.93258779 1.43661861,6.97516482 Z" id="Combined-Shape" fill="#FF8F5C"></path>
                                <path d="M7.29490743,5.21228638 C7.29490743,5.21228638 6.38010383,5.97273038 4.51859746,6.3779581 C2.65709109,6.78318581 1.38234039,6.98390735 1.38234039,6.98390735 L1.31577113,7.84269185 L0.499659386,7.84269185 C0.499659386,7.84269185 0.141516362,5.36448331 0.756386569,4.27882987 C1.37125678,3.19317643 2.35702253,2.28851029 4.01456338,2.28851029 C5.67210424,2.28851029 6.92536354,2.20078754 7.85530573,2.91905975 C8.78524792,3.63733196 9.39836097,4.93965652 9.39836097,5.87811417 C9.39836097,6.81657182 9.39836097,7.75854379 9.39836097,7.75854379 L8.72282279,7.75854379 C8.72282279,7.75854379 8.07497376,7.05676256 7.85530573,6.66505072 C7.59900197,6.20801009 7.29490743,5.21228638 7.29490743,5.21228638 Z" id="Path-54-Copy-3" stroke="#404F54" stroke-width="0.825"></path>
                                <path d="M7.29490743,6.04274638 C7.29490743,6.04274638 6.38010383,6.80319038 4.51859746,7.2084181 C2.65709109,7.61364582 1.38234039,7.81436735 1.38234039,7.81436735 L1.31577113,8.67315185 L0.499659386,8.67315185 C0.499659386,8.67315185 0.141516362,6.19494331 0.756386569,5.10928987 C1.37125678,4.02363643 2.35702253,3.11897029 4.01456338,3.11897029 C5.67210424,3.11897029 6.92536354,3.03124754 7.85530573,3.74951975 C8.78524792,4.46779196 9.39836097,5.77011652 9.39836097,6.70857417 C9.39836097,7.64703182 9.39836097,8.58900379 9.39836097,8.58900379 L8.72282279,8.58900379 C8.72282279,8.58900379 8.07497376,7.88722256 7.85530573,7.49551072 C7.59900197,7.03847009 7.29490743,6.04274638 7.29490743,6.04274638 Z" id="Path-54-Copy-6"></path>
                            </g>
                        </g>
                    </g>
                </g>
                <path d="M109,79.72666 L184,79.72666 C186.209139,79.72666 188,81.517521 188,83.72666 L188,108.72666 C188,110.935799 186.209139,112.72666 184,112.72666 L120.914955,112.72666 L111.641963,120.883886 C109.983266,122.343002 107.455779,122.181209 105.996663,120.522512 C105.354315,119.792302 105,118.853081 105,117.880549 L105,83.72666 C105,81.517521 106.790861,79.72666 109,79.72666 Z" id="Rectangle-5-Copy-2" stroke="#404F54" stroke-width="1.5" fill="#404F54" opacity="0.128113678" stroke-linecap="round"></path>
                <rect id="Rectangle-3-Copy-2" stroke="#404F54" stroke-width="1.5" fill="#404F54" opacity="0.128113678" stroke-linecap="round" x="48.1445737" y="101.208064" width="78.8554263" height="42.15394" rx="5"></rect>
                <g id="laptop" transform="translate(27.971046, 106.210247)">
                    <rect id="Rectangle-3-Copy-3" stroke="#404F54" stroke-width="1.5" fill="#FFFFFF" stroke-linecap="round" x="0.173527318" y="0.351904064" width="90.5912331" height="54.7998527" rx="5"></rect>
                    <path d="M6.00689907,1.14187656 L12.9431301,1.14187656 L12.9431301,54.3938079 L6.00689907,54.3938079 C3.24547532,54.3938079 1.00689907,52.1552316 1.00689907,49.3938079 L1.00689907,6.14187656 C1.00689907,3.38045281 3.24547532,1.14187656 6.00689907,1.14187656 Z" id="Rectangle-4" fill="#EDF1F4"></path>
                    <circle id="Oval-7" stroke="#404F54" stroke-width="1.5" fill="#E0EAEF" stroke-linecap="round" cx="6.56704038" cy="18.5670404" r="2.12536323"></circle>
                    <circle id="Oval-7-Copy" stroke="#ADC0C6" stroke-width="1.5" fill="#E0EAEF" stroke-linecap="round" cx="6.56704038" cy="29.1938565" r="2.12536323"></circle>
                    <circle id="Oval-7-Copy-2" stroke="#BDCBD0" stroke-width="1.5" fill="#E0EAEF" stroke-linecap="round" cx="6.56704038" cy="39.8206727" r="2.12536323"></circle>
                    <path d="M6.00689907,1.14187656 L84.9313887,1.14187656 C87.6928124,1.14187656 89.9313887,3.38045281 89.9313887,6.14187656 L89.9313887,10.8785318 L1.00689907,10.8785318 L1.00689907,6.14187656 C1.00689907,3.38045281 3.24547532,1.14187656 6.00689907,1.14187656 Z" id="Rectangle-4-Copy" fill="#F1F4F7"></path>
                    <circle id="Oval-4" fill="#FC814A" cx="6.03569957" cy="6.34620181" r="1.59402242"></circle>
                    <circle id="Oval-4-Copy" fill="#FC814A" cx="11.3491076" cy="6.34620181" r="1.59402242"></circle>
                    <circle id="Oval-4-Copy-2" fill="#FC814A" cx="16.6625157" cy="6.34620181" r="1.59402242"></circle>
                    <path d="M20.4730269,18.9642896 L42.8210958,18.9642896" id="Path-2" stroke="#1CC1B6" stroke-width="1.5" fill="#E0EAEF" stroke-linecap="round"></path>
                    <path d="M20.4730269,24.2776976 L29.0062348,24.2776976" id="Path-2-Copy-4" stroke="#9DAAAF" stroke-width="1.5" fill="#E0EAEF" stroke-linecap="round"></path>
                    <path d="M34.2878879,24.2776976 L55.5732752,24.2776976" id="Path-2-Copy-5" stroke="#1CC1B6" stroke-width="1.5" fill="#E0EAEF" stroke-linecap="round"></path>
                    <path d="M20.4730269,29.5911057 L60.8866833,29.5911057" id="Path-2-Copy-7" stroke="#9DAAAF" stroke-width="1.5" fill="#E0EAEF" stroke-linecap="round"></path>
                    <path d="M20.4730269,34.9045138 L29.0062348,34.9045138" id="Path-2-Copy-8" stroke="#FC814A" stroke-width="1.5" fill="#E0EAEF" stroke-linecap="round"></path>
                    <path d="M20.4730269,47.6566932 L50.2598671,47.6566932" id="Path-2-Copy-9" stroke="#FC814A" stroke-width="1.5" fill="#E0EAEF" stroke-linecap="round"></path>
                    <path d="M48.1027489,18.9642896 L75.7642259,18.9642896" id="Path-2-Copy-3" stroke="#9DAAAF" stroke-width="1.5" fill="#E0EAEF" stroke-linecap="round"></path>
                    <rect id="Rectangle-3-Copy-3" stroke="#404F54" stroke-width="2.25" stroke-linecap="round" x="0.173527318" y="0.351904064" width="90.5912331" height="54.7998527" rx="5"></rect>
                </g>
                <circle id="Oval-4-Copy" fill="#1CC1B6" opacity="0.100000001" cx="117.5" cy="110.5" r="21.2406544"></circle>
                <circle id="Oval-4" fill="#1CC1B6" opacity="0.200000003" cx="117.5" cy="110.5" r="9.5"></circle>
                <g id="Group-10" transform="translate(114.383229, 69.192154)">
                    <path d="M4.61677071,0.534505732 L79.6167707,0.534505732 C81.8259097,0.534505732 83.6167707,2.32536673 83.6167707,4.53450573 L83.6167707,29.5345057 C83.6167707,31.7436447 81.8259097,33.5345057 79.6167707,33.5345057 L16.5317255,33.5345057 L7.25873345,41.6917321 C5.60003625,43.1508478 3.07254948,42.9890551 1.61343375,41.3303579 C0.971085379,40.6001475 0.616770715,39.6609272 0.616770715,38.6883951 L0.616770715,4.53450573 C0.616770715,2.32536673 2.40763172,0.534505732 4.61677071,0.534505732 Z" id="Rectangle-5" fill="#FF9768"></path>
                    <rect id="Rectangle-4" fill="#FF7F45" x="13" y="1" width="70" height="26" rx="4"></rect>
                    <text id="BETA" font-family="TeachableSans-Black, TeachableSans" font-size="14" font-weight="700" letter-spacing="7" fill="#FFFFFF">
                        <tspan x="14.4599609" y="20">BET</tspan>
                        <tspan x="62.2021484" y="20">A</tspan>
                    </text>
                    <path d="M83.6167707,20.7555632 L83.6167707,23.8049411 M83.6167707,28.8549607 L83.6167707,29.5345057 C83.6167707,31.7436447 81.8259097,33.5345057 79.6167707,33.5345057 L16.5317255,33.5345057 L7.25873345,41.6917321 C5.60003625,43.1508478 3.07254948,42.9890551 1.61343375,41.3303579 C0.971085379,40.6001475 0.616770715,39.6609272 0.616770715,38.6883951 L0.616770715,4.53450573 C0.616770715,2.32536673 2.40763172,0.534505732 4.61677071,0.534505732 L79.6167707,0.534505732 C81.8259097,0.534505732 83.6167707,2.32536673 83.6167707,4.53450573 L83.6167707,12.4101851" id="Rectangle-5-Copy" stroke="#404F54" stroke-width="2.25" stroke-linecap="round"></path>
                </g>
            </g>
        </g>
    </g>
</svg>