<svg width="142" height="142" viewBox="0 0 142 142" xmlns="http://www.w3.org/2000/svg"><title>users</title><g fill="none" fill-rule="evenodd"><path d="M-10-3h160v160H-10z"/><g transform="translate(10.812 8.335)" fill="#DDECEA"><circle opacity=".383" cx="56.192" cy="66.749" r="56.192"/><ellipse opacity=".336" cx="71.779" cy="56.488" rx="56.192" ry="56.192"/></g><g transform="translate(1.38 4.123)" stroke="#C5D7E0" stroke-width="1.2" stroke-linecap="round"><path d="M24.471 5.896l-2.474-2.474m108.633 111.6l-2.475-2.474M2.807 35.668l3.03-1.75M9.39 68.581l3.03-1.75" fill="#DAE2E6"/><path d="M136.24 28.135a1.785 1.785 0 1 0 1.785-1.785M83.579 1.804A1.785 1.785 0 1 0 85.364.02" stroke-linejoin="round"/><ellipse stroke-linejoin="round" cx="134.61" cy="81.557" rx="1.241" ry="1.241"/><circle stroke-linejoin="round" cx="53.903" cy="135.362" r="1.241"/><ellipse stroke-linejoin="round" cx="1.242" cy="89.284" rx="1.241" ry="1.241"/><ellipse stroke-linejoin="round" cx="89.773" cy="126.395" rx="1.241" ry="1.241"/><ellipse stroke-linejoin="round" cx="67.354" cy="45.687" rx="1.241" ry="1.241"/></g><g transform="translate(86.154 2)"><path d="M.3 15.412c0-4.986 4.484-9.029 9.992-9.029h22.863c5.518 0 9.992 4.48 9.992 9.995v37.11c0 5.52-4.481 9.995-7.9 9.995h-24.94C4.781 63.483.3 59.001.3 53.49V15.412z" fill="#FFF"/><path d="M.3 15.412v-4.118a4.91 4.91 0 0 1 4.91-4.911h33.027a4.907 4.907 0 0 1 4.91 4.905v47.29a4.91 4.91 0 0 1-4.914 4.905H28.66m1.634 0H5.21a4.909 4.909 0 0 1-4.91-4.91V36.795m0-2.798v-1.586m0-4.904V15.58" stroke="#404F54" stroke-width="1.5" stroke-linecap="round" fill="#FFF"/><ellipse fill="#E0EAEF" cx="21.689" cy="26.277" rx="11.028" ry="11.028"/><g transform="translate(13.472 13.559)"><ellipse stroke="#404F54" stroke-width="1.2" stroke-linecap="round" fill="#F5F6F7" cx="7.999" cy="20.099" rx="2.728" ry="2.722"/><path d="M15.187 10.779l.55 4.76c.302 2.597-1.572 4.704-4.186 4.704H4.427c-2.613 0-4.495-2.1-4.202-4.705l.535-4.76h14.427z" stroke="#404F54" stroke-width="1.2" stroke-linecap="round" fill="#2FC3B6"/><ellipse stroke="#404F54" stroke-width="1.2" stroke-linecap="round" fill="#F5F6F7" cx="1.638" cy="11.832" rx="1.456" ry="1.453"/><ellipse stroke="#404F54" stroke-width="1.2" stroke-linecap="round" fill="#F5F6F7" cx="14.32" cy="11.832" rx="1.456" ry="1.453"/><rect stroke="#404F54" stroke-width="1.2" stroke-linecap="round" fill="#F5F6F7" x="6.57" y="16.579" width="2.804" height="5.016" rx="1.402"/><rect stroke="#404F54" stroke-width="1.2" stroke-linecap="round" fill="#FFF" x="2.118" y="2.733" width="11.706" height="16.265" rx="5.853"/><path d="M2.143 8.049a5.857 5.857 0 0 1 5.829-5.316 5.85 5.85 0 0 1 5.682 4.439l-.129 2.293v1.719s-.285-.1-.456-.235c-1.108-.867-1.086-2.775-1.086-2.775s-1.222.666-1.93.666c-.71 0-.942-.914-.942-.914s-.768.67-1.517.67c-.75 0-3.732.366-3.732.366l-1.448 2.855V8.174l-.271-.125z" fill="#DAE2E6"/><path d="M12.461 6.313s-1.09 1.499-2.125 1.499c-1.034 0-.507-1.5-.507-1.5s-2.144 1.206-3.61 1.5c-1.466.293-2.899 0-2.899 0l-1.184 2.236-.143.515-1.066-.072S.04 7.082.483 4.728C.927 2.373 3.336.77 5.222.333c1.49-.346 4.052-.322 5.66.68 1.608 1.001 2.025 1.69 2.025 1.69s1.612-.352 2.29 1.629c.677 1.98 0 6.008 0 6.008l-1.094.07s-.935-1.274-1.196-1.925c-.286-.715-.446-2.172-.446-2.172z" stroke="#404F54" stroke-width="1.2" stroke-linecap="round" fill="#2FC3B6"/><path d="M1.24 10.512l-.313-.02S.04 7.081.483 4.727C.927 2.373 3.336.77 5.222.333c1.49-.346 4.052-.322 5.66.68 1.608 1.001 2.025 1.69 2.025 1.69s1.612-.352 2.29 1.629c.677 1.98 0 6.008 0 6.008l-.842.054c-.009-.788-.07-5.138-.391-5.768-.13-.256-.443-.562-.753-.71-.455-.217-1.176 0-1.176 0S9.953 1.452 6.81 1.452s-4.226 1.66-4.903 2.966c-.677 1.307-.749 4.17-.749 4.17l.082 1.925z" fill="#85DAD2"/><path d="M12.461 6.313s-1.09 1.499-2.125 1.499c-1.034 0-.507-1.5-.507-1.5s-2.144 1.206-3.61 1.5c-1.466.293-2.899 0-2.899 0l-1.184 2.236-.143.515-1.066-.072S.04 7.082.483 4.728C.927 2.373 3.336.77 5.222.333c1.49-.346 4.052-.322 5.66.68 1.608 1.001 2.025 1.69 2.025 1.69s1.612-.352 2.29 1.629c.677 1.98 0 6.008 0 6.008l-1.094.07s-.935-1.274-1.196-1.925c-.286-.715-.446-2.172-.446-2.172z" stroke="#404F54" stroke-width="1.2" stroke-linecap="round"/><path stroke="#404F54" stroke-width="1.2" stroke-linecap="round" stroke-linejoin="round" fill="#F5F6F7" d="M8.367 12.26v2.27h-.87"/><ellipse fill="#404F54" cx="5.12" cy="12.487" rx=".519" ry=".518"/><ellipse fill="#404F54" cx="10.845" cy="12.487" rx=".519" ry=".518"/><path d="M8.61 16.465a1.233 1.233 0 0 1-1.928-1.018" stroke="#FF8F5C" stroke-width="1.2" stroke-linecap="round"/><path d="M11.94 11.415a1.2 1.2 0 1 0-2.4 0m-3.257 0a1.2 1.2 0 0 0-2.4 0" stroke="#404F54" stroke-width="1.2" stroke-linecap="round"/></g><g transform="translate(10.802 40.753)"><ellipse fill="#E0EAEF" cx="2" cy="2" rx="1.759" ry="1.759"/><path d="M.24 2A1.759 1.759 0 1 0 2 .24" stroke="#404F54" stroke-width="1.5" stroke-linecap="round"/><ellipse stroke="#404F54" stroke-width="1.5" stroke-linecap="round" fill="#E0EAEF" cx="7.892" cy="2" rx="1.759" ry="1.759"/><ellipse stroke="#404F54" stroke-width="1.5" stroke-linecap="round" fill="#E0EAEF" cx="13.784" cy="2" rx="1.759" ry="1.759"/><ellipse stroke="#404F54" stroke-width="1.5" stroke-linecap="round" fill="#E0EAEF" cx="19.676" cy="2" rx="1.759" ry="1.759"/></g><ellipse fill="#FFF" cx="42.34" cy="9.705" rx="8.324" ry="8.324"/><ellipse fill="#71D5CA" cx="43.813" cy="11.178" rx="8.324" ry="8.324"/><path d="M35.854 4.489a8.324 8.324 0 0 0 6.486 13.54 8.324 8.324 0 0 0 2.856-16.145m-2.856-.502a8.28 8.28 0 0 0-4.385 1.248" stroke="#404F54" stroke-width="1.5" stroke-linecap="round"/><rect fill="#E0EAEF" x="6.874" y="50.609" width="28.478" height="1.5" rx=".75"/><rect fill="#E0EAEF" x="10.802" y="56.01" width="21.113" height="1.5" rx=".75"/><path stroke="#FFF" stroke-width="3" stroke-linecap="round" stroke-linejoin="round" d="M38.896 8.4l3.765 4.695L50.703.39"/></g><g transform="translate(5.284 20.123)"><path d="M.233 7.298C.233 3.434 4.71.302 10.238.302h13.187C28.95.302 33.43 4.788 33.43 10.3v24.246c0 5.521-4.48 9.997-6.121 9.997H10.222c-5.517 0-9.99-4.487-9.99-10.006V7.298z" fill="#FFF"/><path d="M.233 7.298v-3.19A3.805 3.805 0 0 1 4.037.301h25.589c2.1 0 3.804 1.7 3.804 3.8v36.64c0 2.1-1.705 3.801-3.807 3.801h-8.9m2.749 0H4.037A3.803 3.803 0 0 1 .233 40.74V23.865m0 1.785V14.92m0-3.675v-1.052" stroke="#404F54" stroke-width="1.5" stroke-linecap="round" fill="#FFF"/><ellipse fill="#E0EAEF" cx="17.5" cy="15.519" rx="8.905" ry="8.905"/><path d="M10.352 7.793a8.887 8.887 0 0 0-2.166 3.717m-.352 2.487a8.905 8.905 0 1 0 6.226-8.495" stroke="#404F54" stroke-width="1.5" stroke-linecap="round"/><ellipse stroke="#404F54" stroke-width="1.5" stroke-linecap="round" fill="#FFF" cx="16.739" cy="11.715" rx="3.888" ry="3.888"/><path d="M15.204 12.513a1.535 1.535 0 0 0 3.07 0" stroke="#404F54" stroke-width="1.5" stroke-linecap="round"/><g transform="translate(8.37 26.932)"><ellipse fill="#E0EAEF" cx="1.549" cy="1.549" rx="1.363" ry="1.363"/><path d="M.186 1.55A1.363 1.363 0 1 0 1.55.186" stroke="#404F54" stroke-width="1.5" stroke-linecap="round"/><ellipse stroke="#404F54" stroke-width="1.5" stroke-linecap="round" fill="#E0EAEF" cx="6.114" cy="1.549" rx="1.363" ry="1.363"/><ellipse stroke="#404F54" stroke-width="1.5" stroke-linecap="round" fill="#E0EAEF" cx="10.68" cy="1.549" rx="1.363" ry="1.363"/><ellipse stroke="#404F54" stroke-width="1.5" stroke-linecap="round" fill="#E0EAEF" cx="15.245" cy="1.549" rx="1.363" ry="1.363"/></g><path d="M23.504 19.788a8.885 8.885 0 0 1-6.765 3.114 8.885 8.885 0 0 1-6.766-3.114 7.717 7.717 0 0 1 6.766-4 7.717 7.717 0 0 1 6.765 4z" stroke="#404F54" stroke-width="1.5" stroke-linecap="round" fill="#FFF"/><rect fill="#E0EAEF" x="5.326" y="34.019" width="22.065" height="1.5" rx=".75"/><rect fill="#E0EAEF" x="8.369" y="38.203" width="16.358" height="1.5" rx=".75"/></g><g transform="translate(72.284 78.123)"><path d="M.314 9.843C.314 4.632 4.79.407 10.306.407h24.79c5.52 0 9.993 4.485 9.993 10.005v39.663c0 5.525-4.478 10.004-8.255 10.004H10.318c-5.526 0-10.004-4.481-10.004-9.99V9.843z" fill="#FFF"/><path d="M.314 9.843V5.54A5.132 5.132 0 0 1 5.444.407H39.96a5.128 5.128 0 0 1 5.13 5.127v49.419c0 2.83-2.3 5.126-5.134 5.126H27.95m3.708 0H5.446a5.13 5.13 0 0 1-5.132-5.132V32.19m0 2.407V20.124m0-4.957v-1.418" stroke="#404F54" stroke-width="1.5" stroke-linecap="round" fill="#FFF"/><ellipse fill="#E0EAEF" cx="23.603" cy="20.932" rx="12.01" ry="12.01"/><path d="M13.962 10.51a12 12 0 0 0-2.92 5.014m-.476 3.355c0 6.633 5.378 12.01 12.01 12.01 6.634 0 12.011-5.377 12.011-12.01S29.21 6.87 22.577 6.87c-1.26 0-2.473.194-3.613.553" stroke="#404F54" stroke-width="1.5" stroke-linecap="round"/><ellipse stroke="#404F54" stroke-width="1.5" stroke-linecap="round" fill="#FFF" cx="22.577" cy="15.801" rx="5.244" ry="5.244"/><path d="M20.507 16.877a2.07 2.07 0 0 0 4.14 0" stroke="#404F54" stroke-width="1.5" stroke-linecap="round"/><g transform="translate(11.288 36.325)"><ellipse fill="#E0EAEF" cx="2.09" cy="2.09" rx="1.838" ry="1.838"/><path d="M.251 2.09A1.838 1.838 0 1 0 2.09.252" stroke="#404F54" stroke-width="1.5" stroke-linecap="round"/><ellipse stroke="#404F54" stroke-width="1.5" stroke-linecap="round" fill="#E0EAEF" cx="8.247" cy="2.09" rx="1.838" ry="1.838"/><ellipse stroke="#404F54" stroke-width="1.5" stroke-linecap="round" fill="#E0EAEF" cx="14.404" cy="2.09" rx="1.838" ry="1.838"/><ellipse stroke="#404F54" stroke-width="1.5" stroke-linecap="round" fill="#E0EAEF" cx="20.562" cy="2.09" rx="1.838" ry="1.838"/></g><path d="M31.702 26.69a11.984 11.984 0 0 1-9.125 4.2c-3.652 0-6.922-1.63-9.125-4.2a10.41 10.41 0 0 1 9.125-5.395 10.41 10.41 0 0 1 9.125 5.394z" stroke="#404F54" stroke-width="1.5" stroke-linecap="round" fill="#FFF"/><rect fill="#E0EAEF" x="7.184" y="45.883" width="29.76" height="2.023" rx="1.012"/><rect fill="#E0EAEF" x="11.288" y="51.528" width="22.064" height="2.023" rx="1.012"/></g><g transform="translate(21.726 41.94)"><path d="M3.696 22.518c0-5.525 4.486-10.003 9.995-10.003h37.487c5.52 0 9.996 4.477 9.996 9.994v56.61c0 5.52-4.48 9.995-9.998 9.995H13.694c-5.522 0-9.998-4.48-9.998-9.996V22.517z" fill="#F5F6F7"/><path d="M.403 18.566c0-5.525 4.486-10.003 9.995-10.003h37.487c5.52 0 9.996 4.477 9.996 9.994v56.61c0 5.52-4.48 9.995-9.998 9.995H10.4c-5.521 0-9.997-4.48-9.997-9.996V18.565z" fill="#FFF"/><path d="M.403 20.675v-5.524a6.587 6.587 0 0 1 6.586-6.588h44.305a6.582 6.582 0 0 1 6.587 6.58v63.439c0 3.634-2.953 6.58-6.592 6.58H40.696m-.057 0H6.99a6.585 6.585 0 0 1-6.588-6.587V49.36m0 .858V33.965m0-4.799V27.97" stroke="#404F54" stroke-width="1.5" stroke-linecap="round" fill="#FFF"/><ellipse fill="#E0EAEF" cx="28.981" cy="35.568" rx="12.515" ry="12.515"/><g transform="translate(18.443 15.954)"><ellipse stroke="#404F54" stroke-width="1.5" stroke-linecap="round" fill="#F5F6F7" cx="2.196" cy="17.61" rx="1.952" ry="1.952"/><ellipse stroke="#404F54" stroke-width="1.5" stroke-linecap="round" fill="#F5F6F7" cx="19.199" cy="17.61" rx="1.952" ry="1.952"/><rect stroke="#404F54" stroke-width="1.6" stroke-linecap="round" fill="#F5F6F7" x="8.808" y="23.989" width="3.759" height="6.74" rx="1.88"/><rect stroke="#404F54" stroke-width="1.6" stroke-linecap="round" fill="#FF8F5C" x="7.051" y="23.587" width="1.67" height="4.342" rx=".835"/><rect stroke="#404F54" stroke-width="1.6" stroke-linecap="round" fill="#FF8F5C" x="12.567" y="23.587" width="1.67" height="4.342" rx=".835"/><rect stroke="#404F54" stroke-width="1.5" stroke-linecap="round" fill="#FFF" x="2.84" y="4.148" width="15.695" height="23.092" rx="7.847"/><path d="M18.535 12.311v-.313a7.844 7.844 0 0 0-7.847-7.85c-4.326 0-7.848 3.515-7.848 7.85v1.145l.33.325v3.588s1.396-2.45 2.18-4c.785-1.551.87-1.946.87-1.946s2.066.707 4.417.707c2.35 0 4.47-.901 4.47-.901s1.811 3.756 2.319 4.282c.508.525.776 1.179.776 1.179v-3.321l.333-.745z" fill="#DAE2E6"/><path stroke="#404F54" stroke-width="1.5" stroke-linecap="round" stroke-linejoin="round" fill="#F5F6F7" d="M9.625 17.331v3.905h1.593"/><path d="M9.02 23.152a1.729 1.729 0 0 0 3.457 0" fill="#FF8F5C"/><path d="M16.009 16.194a1.61 1.61 0 1 0-3.218 0m2.156 3.006a.911.911 0 1 0-1.822 0m-4.859 0a.911.911 0 1 0-1.822 0m1.979-3.006a1.61 1.61 0 1 0-3.218 0" stroke="#404F54" stroke-width="1.5" stroke-linecap="round" fill="#F5F6F7"/><path d="M10.681 29.53s2.564-1.899 3.26-1.899c.695 0 1.667 1.568 1.18 1.899-.487.33-1.18.956-1.18.956l.693.622c-.383.526-1.387.807-2.252.627l-1.713-.357.012-1.848zm-.52 0s-2.564-1.9-3.259-1.9c-.695 0-1.668 1.568-1.18 1.899.487.33 1.18.956 1.18.956l-.693.622c.383.526 1.387.807 2.252.627l1.712-.357-.012-1.848z" stroke="#404F54" stroke-width="1.6" stroke-linecap="round" fill="#85DAD2"/><rect stroke="#404F54" stroke-width="1.6" stroke-linecap="round" fill="#85DAD2" x="9.016" y="28.377" width="3.051" height="3.487" rx="1.526"/><path d="M5.727 9.537s3.125.824 5.028.824c1.902 0 4.94-.824 4.94-.824s.795 1.77 1.137 2.444c.342.673 1.914 3.485 1.914 3.485l1.326.13.497-5.235s.04-1.664-.497-2.804c-.416-.885-1.866-2.054-2.344-2.456-.435-.365-1.451-.965-2.607-1.868A102.23 102.23 0 0 1 11.408.146s-.102 1.255 0 1.771c.102.513.612 1.316.612 1.316S9.713 1.575 8.423.993c-.808-.364-2.696-.6-2.696-.6l1.843 3.22s-1.68-1.07-2.854-1.375c-.997-.26-3.663 0-3.663 0L3.28 4.783S1.346 6.405 1.053 7.197c-.255.687 0 2.824 0 2.824l.535 5.405 1.33.035 1.798-3.48 1.011-2.444z" stroke="#404F54" stroke-width="1.5" stroke-linecap="round" fill="#FF8F5C"/><path d="M20.114 15.154l.455-4.793s.04-1.664-.497-2.804c-.416-.885-1.866-2.054-2.344-2.456-.435-.365-1.451-.965-2.607-1.868A102.23 102.23 0 0 1 11.408.146s-.102 1.255 0 1.771c.102.513.612 1.316.612 1.316S9.713 1.575 8.423.993c-.808-.364-2.696-.6-2.696-.6l1.843 3.22s-1.68-1.07-2.854-1.375c-.997-.26-3.663 0-3.663 0L3.28 4.783S1.346 6.405 1.053 7.197c-.255.687 0 2.824 0 2.824l.535 5.405.88.023c-.011-1.081-.034-5.918.386-7.17.475-1.415 3.428-2.216 3.428-2.216L5.093 4.4s1.328-.156 2.667.67c1.339.827 3.097.639 3.097.639L8.984 3.006s1.432.752 2.319 1.395 4.082 2.31 4.082 2.31l-.808-1.306s3.151 1.227 3.906 2.809c.574 1.204 1.312 5.135 1.631 6.94z" fill="#FFA47B"/><path d="M5.727 9.537s3.125.824 5.028.824c1.902 0 4.94-.824 4.94-.824s.795 1.77 1.137 2.444c.342.673 1.914 3.485 1.914 3.485l1.326.13.497-5.235s.04-1.664-.497-2.804c-.416-.885-1.866-2.054-2.344-2.456-.435-.365-1.451-.965-2.607-1.868A102.23 102.23 0 0 1 11.408.146s-.102 1.255 0 1.771c.102.513.612 1.316.612 1.316S9.713 1.575 8.423.993c-.808-.364-2.696-.6-2.696-.6l1.843 3.22s-1.68-1.07-2.854-1.375c-.997-.26-3.663 0-3.663 0L3.28 4.783S1.346 6.405 1.053 7.197c-.255.687 0 2.824 0 2.824l.535 5.405 1.33.035 1.798-3.48 1.011-2.444z" stroke="#404F54" stroke-width="1.5" stroke-linecap="round"/></g><g transform="translate(14.49 54.67)"><ellipse fill="#E0EAEF" cx="2.683" cy="2.683" rx="2.36" ry="2.36"/><path d="M.323 2.683a2.36 2.36 0 1 0 2.36-2.36" stroke="#404F54" stroke-width="1.5" stroke-linecap="round"/><ellipse stroke="#404F54" stroke-width="1.5" stroke-linecap="round" fill="#E0EAEF" cx="10.587" cy="2.683" rx="2.36" ry="2.36"/><ellipse stroke="#404F54" stroke-width="1.5" stroke-linecap="round" fill="#E0EAEF" cx="18.491" cy="2.683" rx="2.36" ry="2.36"/><circle stroke="#404F54" stroke-width="1.5" stroke-linecap="round" fill="#E0EAEF" cx="26.395" cy="2.683" r="2.36"/></g><ellipse fill="#FFF" cx="56.799" cy="13.02" rx="11.166" ry="11.166"/><ellipse fill="#71D5CA" cx="58.116" cy="13.678" rx="11.166" ry="11.166"/><path d="M48.098 6.022a11.12 11.12 0 0 0-2.465 6.998c0 6.166 5 11.166 11.166 11.166 6.167 0 11.166-5 11.166-11.166 0-4.822-3.056-8.93-7.336-10.492m-3.83-.674c-2.159 0-4.175.613-5.883 1.674" stroke="#404F54" stroke-width="1.5" stroke-linecap="round"/><rect fill="#E0EAEF" x="9.221" y="68.208" width="38.203" height="1.5" rx=".75"/><rect fill="#E0EAEF" x="14.491" y="75.454" width="28.323" height="1.5" rx=".75"/><path stroke="#FFF" stroke-width="3" stroke-linecap="round" stroke-linejoin="round" d="M52.179 11.27l5.05 6.297L68.017.525"/></g></g></svg>