<svg width="142" height="139" viewBox="0 0 142 139" xmlns="http://www.w3.org/2000/svg"><title>Transactions</title><g fill="none" fill-rule="evenodd"><path d="M-10-6h160v160H-10z"/><g transform="translate(10.812 5.335)" fill="#DDECEA"><circle opacity=".383" cx="56.192" cy="66.749" r="56.192"/><ellipse opacity=".336" cx="71.779" cy="56.488" rx="56.192" ry="56.192"/></g><g transform="translate(1.38 1.123)" stroke="#C5D7E0" stroke-width="1.2" stroke-linecap="round"><path d="M24.471 5.896l-2.474-2.474m108.633 111.6l-2.475-2.474M2.807 35.668l3.03-1.75M9.39 68.581l3.03-1.75" fill="#DAE2E6"/><path d="M136.24 28.135a1.785 1.785 0 1 0 1.785-1.785M83.579 1.804A1.785 1.785 0 1 0 85.364.02" stroke-linejoin="round"/><ellipse stroke-linejoin="round" cx="134.61" cy="81.557" rx="1.241" ry="1.241"/><circle stroke-linejoin="round" cx="53.903" cy="135.362" r="1.241"/><ellipse stroke-linejoin="round" cx="1.242" cy="89.284" rx="1.241" ry="1.241"/><ellipse stroke-linejoin="round" cx="89.773" cy="126.395" rx="1.241" ry="1.241"/><ellipse stroke-linejoin="round" cx="67.354" cy="45.687" rx="1.241" ry="1.241"/></g><g transform="translate(19.431 8)"><path stroke="#404F54" stroke-width="1.5" stroke-linecap="round" stroke-linejoin="round" fill="#FFF" d="M3.89 49.588h97.231l-9.723 49.589H13.612z"/><path d="M6.253 61.929l7.643 36.955 36.831-.017s-11.646-11.592 2.18-15.439c13.825-3.846 32.936-12.162 20.136-18.362-12.8-6.2-25.12 4.53-36.068 2.71-10.949-1.819-12.16-6.702-29.507-6.702l-1.215.855z" fill="#88E4DE"/><path d="M9.17 74.316l5.08 24.568 24.486-.011s-7.742-7.707 1.45-10.264c9.19-2.557 21.895-8.086 13.386-12.207-8.51-4.122-16.7 3.011-23.978 1.802-7.279-1.21-8.085-4.456-19.617-4.456l-.807.568z" fill="#1CC1B6"/><path stroke="#404F54" stroke-width="1.5" stroke-linecap="round" stroke-linejoin="round" d="M3.89 49.588h97.231l-9.723 49.589H13.612z"/><rect stroke="#404F54" stroke-width="1.5" stroke-linecap="round" fill="#FFF" y="46.671" width="105.011" height="6.257" rx="3.129"/><path d="M8.901 70.553h76.71m-74.765 9.724H68.11M12.79 90h37.818m-26.31 8.882l-5.792-35.755m17.46 35.755l-5.792-35.755m16.376 23.06l-3.736-23.06" stroke="#404F54" stroke-width="1.5" stroke-linecap="round"/><rect stroke="#404F54" stroke-width="1.5" stroke-linecap="round" fill="#FFF" transform="rotate(30 66.604 28.55)" x="64.173" y="-2.078" width="4.862" height="61.256" rx="2.431"/></g><g transform="translate(83.431 80)"><ellipse fill="#FFAF8B" cx="22.643" cy="21.862" rx="20.3" ry="20.3"/><ellipse fill="#FF8F5C" cx="25.182" cy="23.621" rx="16.199" ry="16.199"/><path d="M4.502 7.804a20.735 20.735 0 0 0-1.711 2.502M.87 14.736A20.692 20.692 0 0 0 0 20.691c0 11.427 9.264 20.69 20.69 20.69 11.428 0 20.691-9.263 20.691-20.69C41.381 9.264 32.118 0 20.691 0c-3.704 0-7.18.973-10.188 2.678" stroke="#404F54" stroke-width="1.5" stroke-linecap="round"/><path d="M24.926 18.5c-.071-.085-.206-.186-.404-.306a7.396 7.396 0 0 0-1.589-.71 5.081 5.081 0 0 0-1.006-.206v3.107l.45.107a18.44 18.44 0 0 1 1.696.54c.51.19.94.43 1.293.717.354.288.626.632.818 1.033.191.401.287.895.287 1.482 0 .658-.117 1.22-.35 1.688a3.19 3.19 0 0 1-.952 1.149c-.401.3-.868.524-1.4.673a7.288 7.288 0 0 1-1.68.26v1.976h-1.077v-1.993a9.317 9.317 0 0 1-2.452-.512 8.876 8.876 0 0 1-2.164-1.104l1.096-2.137c.096.095.26.221.494.377.233.155.515.308.844.458.329.15.694.29 1.095.422.401.131.817.221 1.248.269v-3.089a6.373 6.373 0 0 1-.646-.18c-.61-.167-1.14-.35-1.59-.547a4.178 4.178 0 0 1-1.122-.7c-.3-.27-.524-.581-.673-.934-.15-.353-.225-.775-.225-1.266 0-.599.105-1.135.314-1.608.21-.472.497-.876.862-1.212.366-.335.8-.598 1.302-.79a5.891 5.891 0 0 1 1.617-.359v-1.832h1.077v1.814c.79.06 1.518.222 2.182.485a8.74 8.74 0 0 1 1.75.916l-1.095 2.011zm-1.095 6.015c0-.407-.168-.724-.503-.952-.335-.227-.802-.437-1.4-.628v2.89c1.269-.035 1.903-.472 1.903-1.31zm-4.364-5.836c0 .407.14.715.422.924.282.21.71.399 1.284.566V17.26c-1.137.072-1.706.545-1.706 1.419z" fill="#FFF"/><path d="M35.22 43.133a20.79 20.79 0 0 0 7.595-7.945" stroke="#404F54" stroke-width="1.5" stroke-linecap="round"/></g><path d="M59.814 28.814l-4.489-11.49m17.2 9.931l1.9-5.662M51.004 36.357L45.73 34.34" stroke="#FF854F" stroke-width="2" stroke-linecap="round"/></g></svg>