<svg width="142" height="139" viewBox="0 0 142 139" xmlns="http://www.w3.org/2000/svg"><title>price plan copy</title><g fill="none" fill-rule="evenodd"><path d="M-10-6h160v160H-10z"/><g transform="translate(10.812 5.335)" fill="#DDECEA"><circle opacity=".383" cx="56.192" cy="66.749" r="56.192"/><ellipse opacity=".336" cx="71.779" cy="56.488" rx="56.192" ry="56.192"/></g><g transform="translate(1.38 1.123)" stroke="#C5D7E0" stroke-width="1.2" stroke-linecap="round"><path d="M24.471 5.896l-2.474-2.474m108.633 111.6l-2.475-2.474M2.807 35.668l3.03-1.75M9.39 68.581l3.03-1.75" fill="#DAE2E6"/><path d="M136.24 28.135a1.785 1.785 0 1 0 1.785-1.785M83.579 1.804A1.785 1.785 0 1 0 85.364.02" stroke-linejoin="round"/><ellipse stroke-linejoin="round" cx="134.61" cy="81.557" rx="1.241" ry="1.241"/><circle stroke-linejoin="round" cx="53.903" cy="135.362" r="1.241"/><ellipse stroke-linejoin="round" cx="1.242" cy="89.284" rx="1.241" ry="1.241"/><ellipse stroke-linejoin="round" cx="89.773" cy="126.395" rx="1.241" ry="1.241"/><ellipse stroke-linejoin="round" cx="67.354" cy="45.687" rx="1.241" ry="1.241"/></g><g transform="rotate(-14 85.396 -45.033)"><path d="M13.988 14.448H9.4c-4.968 0-8.998 4.031-8.998 9.004v86.27a8.996 8.996 0 0 0 8.998 9.004h60.273c4.968 0 8.998-4.031 8.998-9.004v-86.27a8.996 8.996 0 0 0-8.998-9.004h-4.588a8.591 8.591 0 0 0 .208-1.884c0-4.729-3.84-8.58-8.579-8.58H22.36a8.587 8.587 0 0 0-8.37 10.464z" fill="#E0EAEF"/><path d="M5.428 26.842v-10.51a5.65 5.65 0 0 1 5.652-5.653h66.964a5.65 5.65 0 0 1 5.652 5.653v92.972a5.65 5.65 0 0 1-5.652 5.653H11.08a5.651 5.651 0 0 1-5.652-5.65V58.84m0-11.492v-14.71" stroke="#404F54" stroke-width="1.5" stroke-linecap="round" fill="#FFF"/><rect stroke="#404F54" stroke-width="1.5" stroke-linecap="round" fill="#FFF" x="18.805" y=".215" width="51.513" height="17.158" rx="8.579"/><rect fill="#E0EAEF" x="25.735" y="4.192" width="37.654" height="10.462" rx="5.231"/><path d="M42.545 108.43H16.42a5.651 5.651 0 0 1-5.654-5.657V10.73h67.611v92.042a5.657 5.657 0 0 1-5.654 5.657H65.55m-6.179 0H47.267" stroke="#404F54" stroke-width="1.5" stroke-linecap="round" fill="#FFF"/><ellipse stroke="#404F54" stroke-width="1.5" stroke-linecap="round" fill="#FFF" cx="20.873" cy="56.576" rx="3.912" ry="3.912"/><ellipse fill="#71D5CA" cx="20.873" cy="56.576" rx="1.888" ry="1.888"/><path d="M19.324 43.973h-8.645V10.679h67.612v33.294H52.827m-10.576 0H26.514" stroke="#404F54" stroke-width="1.5" stroke-linecap="round" fill="#F5F6F7"/><rect fill="#E0EAEF" x="32.665" y="51.511" width="37.691" height="3.809" rx="1.905"/><rect fill="#E0EAEF" x="32.665" y="57.793" width="26.384" height="3.809" rx="1.905"/><rect fill="#E0EAEF" x="32.665" y="25.755" width="37.691" height="3.809" rx="1.905"/><ellipse stroke="#FC814A" stroke-width="2" stroke-linecap="round" fill="#F5F6F7" cx="22.929" cy="24.813" rx="4.083" ry="4.083"/><rect fill="#E0EAEF" x="32.665" y="19.474" width="37.691" height="3.809" rx="1.905"/><rect fill="#E0EAEF" x="32.665" y="32.037" width="26.384" height="3.809" rx="1.905"/><path d="M16.96 75.422a3.912 3.912 0 1 0 3.912-3.912" stroke="#404F54" stroke-width="1.5" stroke-linecap="round" fill="#FFF"/><rect fill="#E0EAEF" x="32.665" y="70.356" width="37.691" height="3.809" rx="1.905"/><rect fill="#E0EAEF" x="32.665" y="76.638" width="26.384" height="3.809" rx="1.905"/><ellipse stroke="#404F54" stroke-width="1.5" stroke-linecap="round" fill="#FFF" cx="20.873" cy="94.267" rx="3.912" ry="3.912"/><rect fill="#E0EAEF" x="32.665" y="89.202" width="37.691" height="3.809" rx="1.905"/><rect fill="#E0EAEF" x="32.665" y="95.483" width="26.384" height="3.809" rx="1.905"/></g><g transform="translate(8.193 78.897)"><ellipse fill="#FFF" cx="23.087" cy="22.448" rx="22.347" ry="22.347"/><ellipse fill="#71D5CA" cx="26.214" cy="25.574" rx="22.347" ry="22.347"/><ellipse fill="#1CC1B6" cx="28.277" cy="29.135" rx="18.787" ry="18.787"/><rect fill="#FFF" x="21.566" y="10.149" width="5.074" height="20.298" rx="2"/><rect fill="#FFF" transform="rotate(90 24.103 20.298)" x="21.566" y="10.149" width="5.074" height="20.298" rx="2"/><path d="M3.307 12.04A22.25 22.25 0 0 0 .74 22.449c0 12.342 10.005 22.347 22.347 22.347S45.434 34.79 45.434 22.448 35.43.101 23.087.101A22.263 22.263 0 0 0 8.256 5.732" stroke="#404F54" stroke-width="1.5" stroke-linecap="round"/></g><g transform="scale(-1 1) rotate(-45 -19.776 183.798)" stroke-width="1.5" stroke-linecap="round"><path d="M8.37 35.149a2.499 2.499 0 0 1 3.537 0l4.85 4.85c.978.978 1.111 2.68.308 3.793L11.6 51.36c-.807 1.117-2.12 1.112-2.922 0l-5.466-7.568c-.807-1.118-.672-2.813.307-3.792l4.851-4.851z" stroke="#404F54" fill="#FFF"/><rect stroke="#404F54" fill="#FF8F5C" x="2.938" y=".466" width="15.056" height="42.313" rx="7.528"/><path d="M6.162 8.449c0-2.375 1.926-4.3 4.304-4.3m2.454 37.585V8.365M6.858 41.734v-28.45" stroke="#FFF"/></g></g></svg>