<svg width="145" height="139" viewBox="0 0 145 139" xmlns="http://www.w3.org/2000/svg"><title>teachable_getaway</title><g fill="none" fill-rule="evenodd"><path d="M-10-6h160v160H-10z"/><g transform="translate(10.812 5.335)" fill="#DDECEA"><circle opacity=".383" cx="56.192" cy="66.749" r="56.192"/><ellipse opacity=".336" cx="71.779" cy="56.488" rx="56.192" ry="56.192"/></g><g transform="translate(1.38 1.123)" stroke="#C5D7E0" stroke-width="1.2" stroke-linecap="round"><path d="M24.471 5.896l-2.474-2.474m108.633 111.6l-2.475-2.474M2.807 35.668l3.03-1.75M9.39 68.581l3.03-1.75" fill="#DAE2E6"/><path d="M136.24 28.135a1.785 1.785 0 1 0 1.785-1.785M83.579 1.804A1.785 1.785 0 1 0 85.364.02" stroke-linejoin="round"/><ellipse stroke-linejoin="round" cx="134.61" cy="81.557" rx="1.241" ry="1.241"/><circle stroke-linejoin="round" cx="53.903" cy="135.362" r="1.241"/><ellipse stroke-linejoin="round" cx="1.242" cy="89.284" rx="1.241" ry="1.241"/><ellipse stroke-linejoin="round" cx="89.773" cy="126.395" rx="1.241" ry="1.241"/><ellipse stroke-linejoin="round" cx="67.354" cy="45.687" rx="1.241" ry="1.241"/></g><path fill="#FFF" d="M19.099 44.842L50.511 26.08l40.172 12.555 27.776-22.462 22.6 79.873-27.287 16.608-43.485-9.144-37.558 20.813z"/><path d="M90.683 38.635l27.776-22.462 22.6 79.873-27.287 16.608m-43.485-9.144L32.73 124.323 19.1 44.843 50.511 26.08" fill="#F2F7F7"/><path d="M33.007 36.535l2.315-1.383m4.325-2.583l10.864-6.489 40.172 12.555 27.776-22.462 22.6 79.873-27.287 16.608-43.485-9.144-37.558 20.813-13.63-79.48 9.027-5.393" stroke="#404F54" stroke-width="1.5" stroke-linecap="round" stroke-linejoin="round"/><path fill="#DFE9E9" d="M29.721 87.04l5.967 30.738L68.684 99.49 57.418 57.24 46.534 74.326l4.179 22.134-10.675 6.264-3.907-16.247z"/><path d="M51.435 97.667l14.027-14.151 25.042 5.82S67.85 67.288 67.85 55.876c0-11.41 19.538-.358 19.538-.358s1.759 18 13.359 15.537c11.6-2.463 28.892-16.566 17.364-22.378-11.529-5.812-6.68-11.083-6.68-11.083" stroke="#404F54" stroke-width="1.5" stroke-linecap="round" stroke-linejoin="round" stroke-dasharray="5"/><path stroke="#FC814A" stroke-width="1.5" stroke-linecap="round" stroke-linejoin="round" fill="#FFD5C2" d="M126.634 72.22l-14.904 13.8 5.686 16.054 16.619-9.058zM25.378 48.151l26.61-16.42 12.214 4.639 1.333 5.347L53.573 39.9l-8.566 5.527 2.485 10.543-18.476 10.964zm68.965 53.527l-1.79-9.248 11.613 1.574 3.396 10.613z"/><g transform="translate(89.277 7.232)"><ellipse fill="#FFF" cx="26.669" cy="25.93" rx="25.814" ry="25.814"/><circle fill="#71D5CA" cx="29.125" cy="27.231" r="25.814"/><ellipse fill="#1CC1B6" cx="31.508" cy="31.344" rx="21.701" ry="21.701"/><path d="M3.82 13.909A25.701 25.701 0 0 0 .855 25.93c0 14.257 11.557 25.814 25.814 25.814 14.256 0 25.813-11.557 25.813-25.814C52.482 11.674 40.925.117 26.67.117A25.716 25.716 0 0 0 9.537 6.62" stroke="#404F54" stroke-width="1.5" stroke-linecap="round"/></g><path d="M109.834 26.606c2.594-.423 3.522-2.412 4.217-4.633h2.446v4.295h5.588l-.928 3.279h-4.68v9.69c0 2.306.864 2.983 2.445 2.983 1.096 0 2.024-.38 2.636-.72l.864 3.09c-1.054.677-2.825 1.206-4.617 1.206-5.567 0-5.778-3.322-5.778-6.369v-9.88h-2.614l.421-2.94z" fill="#FFF"/><g transform="translate(35.431 66.8)" stroke="#404F54" stroke-width="1.5" stroke-linecap="round"><path d="M13.627 37.5s13.5-16.044 13.5-23.5c0-7.456-6.044-13.5-13.5-13.5S.127 6.544.127 14s13.5 23.5 13.5 23.5z" stroke-linejoin="round" fill="#1CC1B6"/><circle fill="#FFF" cx="13.5" cy="14.5" r="4.5"/></g></g></svg>