<svg width="115" height="115" viewBox="0 0 115 115" xmlns="http://www.w3.org/2000/svg"><title>icon-kb-search</title><g fill="none" fill-rule="evenodd"><path d="M3 2h112v112H3z"/><g transform="translate(17.568 9.935)" fill="#DCEBEA"><circle opacity=".383" cx="39.335" cy="46.725" r="39.335"/><circle opacity=".336" cx="50.245" cy="39.542" r="39.335"/></g><g transform="translate(10.965 6.986)" stroke="#C5D6DF" stroke-width=".84" stroke-linecap="round"><path d="M17.13 4.127l-1.732-1.732M91.44 80.515l-1.731-1.732M1.965 24.967l2.121-1.224M6.573 48.007l2.121-1.225" fill="#DAE2E6"/><path d="M95.368 19.694a1.25 1.25 0 1 0 1.25-1.25M58.505 1.263a1.25 1.25 0 1 0 1.25-1.25" stroke-linejoin="round"/><circle stroke-linejoin="round" cx="94.227" cy="57.09" r="1"/><circle stroke-linejoin="round" cx="37.732" cy="94.754" r="1"/><circle stroke-linejoin="round" cx=".869" cy="62.499" r="1"/><circle stroke-linejoin="round" cx="62.841" cy="88.476" r="1"/><circle stroke-linejoin="round" cx="47.148" cy="31.981" r="1"/></g><g transform="rotate(-14 90.025 -69.145)"><path d="M9.791 10.114h-3.21a6.3 6.3 0 0 0-6.3 6.3v60.394a6.3 6.3 0 0 0 6.3 6.3H48.77a6.3 6.3 0 0 0 6.3-6.3V16.414a6.3 6.3 0 0 0-6.3-6.3h-3.21a6.005 6.005 0 0 0-5.86-7.325H15.652a6.005 6.005 0 0 0-6.005 6.006c0 .453.05.894.145 1.319z" fill="#E0EAEF"/><path d="M3.8 18.79v-7.358a3.955 3.955 0 0 1 3.956-3.957h46.875a3.955 3.955 0 0 1 3.956 3.957v65.081a3.955 3.955 0 0 1-3.956 3.957H7.756A3.956 3.956 0 0 1 3.8 76.514V41.188m0-8.045V22.846" stroke="#404F54" stroke-width="1.05" fill="#FFF" stroke-linecap="round"/><rect stroke="#404F54" stroke-width="1.05" fill="#FFF" stroke-linecap="round" x="13.164" y=".151" width="36.059" height="12.011" rx="6.005"/><rect fill="#E0EAEF" x="18.014" y="2.934" width="26.358" height="7.324" rx="3.662"/><path d="M29.782 75.9H11.493a3.956 3.956 0 0 1-3.958-3.96V7.513h47.329V71.94a3.96 3.96 0 0 1-3.958 3.96h-5.021m-4.325 0h-8.473" stroke="#404F54" stroke-width="1.05" fill="#FFF" stroke-linecap="round"/><circle stroke="#404F54" stroke-width="1.05" fill="#FFF" stroke-linecap="round" cx="14.611" cy="39.603" r="2.739"/><circle fill="#71D5CA" cx="14.611" cy="39.603" r="1.322"/><path d="M13.527 30.78H7.475V7.476h47.329v23.306H36.979m-7.403 0H18.56" stroke="#404F54" stroke-width="1.05" fill="#71D5CA" stroke-linecap="round"/><rect fill="#23C4B7" x="22.866" y="36.058" width="26.384" height="1.5" rx=".75"/><rect fill="#E0EAEF" x="22.866" y="40.455" width="18.468" height="1.5" rx=".75"/><rect fill="#FFF" opacity=".5" x="22.866" y="18.029" width="26.384" height="1.5" rx=".75"/><circle stroke="#FFF" stroke-width="1.4" stroke-linecap="round" cx="16.05" cy="17.369" r="2.858"/><rect fill="#FFF" opacity=".5" x="22.866" y="13.632" width="26.384" height="1.5" rx=".75"/><rect fill="#FFF" opacity=".5" x="22.866" y="22.426" width="18.468" height="1.5" rx=".75"/><path d="M11.873 52.795a2.739 2.739 0 1 0 2.739-2.739" stroke="#404F54" stroke-width="1.05" fill="#FFF" stroke-linecap="round"/><rect fill="#E0EAEF" x="22.866" y="49.249" width="26.384" height="1.5" rx=".75"/><rect fill="#E0EAEF" x="22.866" y="53.647" width="18.468" height="1.5" rx=".75"/><circle stroke="#404F54" stroke-width="1.05" fill="#FFF" stroke-linecap="round" cx="14.611" cy="65.987" r="2.739"/><circle fill="#FF8F5C" cx="14.629" cy="65.997" r="1.322"/><rect fill="#FF8F5C" x="22.866" y="62.441" width="26.384" height="1.5" rx=".75"/><rect fill="#E0EAEF" x="22.866" y="66.838" width="18.468" height="1.5" rx=".75"/></g><g transform="translate(64 17)"><circle fill="#FFAF8B" cx="21.041" cy="16.454" r="15.278"/><circle fill="#404F54" opacity=".094" cx="18.543" cy="19.955" r="17.78"/><circle fill="#FF8F5C" cx="22.953" cy="17.778" r="12.192"/><path d="M7.388 5.874A15.606 15.606 0 0 0 6.1 7.757M4.654 11.09A15.573 15.573 0 0 0 4 15.572c0 8.6 6.972 15.572 15.572 15.572 8.6 0 15.572-6.971 15.572-15.572C35.144 6.972 28.173 0 19.572 0c-2.787 0-5.404.732-7.667 2.015" stroke="#404F54" stroke-width="1.5" stroke-linecap="round"/><g transform="translate(13.452 7.5)" stroke="#FFF" stroke-width="1.5" stroke-linecap="round"><path d="M3.748 13.35h4.5M3.748 15.35h4.5"/><circle cx="6" cy="6.75" r="6"/></g></g><g transform="translate(0 54)" stroke-width="1.5" stroke-linecap="round"><circle stroke="#404F54" fill-opacity=".3" fill="#E0EAEF" cx="30" cy="15" r="15"/><path d="M19.5 26.5l-4.56 4.56" stroke="#404F54" fill="#FF8F5C"/><g transform="rotate(45 -24.385 30.243)"><rect stroke="#404F54" fill="#FF8F5C" width="8" height="20" rx="4"/><path d="M2 4a2 2 0 0 1 2-2M2.5 7.5v9M5.5 4.5v10" stroke="#FFF"/></g></g></g></svg>