<svg width="157" height="139" viewBox="0 0 157 139" xmlns="http://www.w3.org/2000/svg"><title>Reports Copy 2</title><g fill="none" fill-rule="evenodd"><path d="M-10-6h160v160H-10z"/><g transform="translate(10.812 5.335)" fill="#DDECEA"><circle opacity=".383" cx="56.192" cy="66.749" r="56.192"/><ellipse opacity=".336" cx="71.779" cy="56.488" rx="56.192" ry="56.192"/></g><g transform="translate(1.38 1.123)" stroke="#C5D7E0" stroke-width="1.2" stroke-linecap="round"><path d="M24.471 5.896l-2.474-2.474m108.633 111.6l-2.475-2.474M2.807 35.668l3.03-1.75M9.39 68.581l3.03-1.75" fill="#DAE2E6"/><path d="M136.24 28.135a1.785 1.785 0 1 0 1.785-1.785M83.579 1.804A1.785 1.785 0 1 0 85.364.02" stroke-linejoin="round"/><ellipse stroke-linejoin="round" cx="134.61" cy="81.557" rx="1.241" ry="1.241"/><circle stroke-linejoin="round" cx="53.903" cy="135.362" r="1.241"/><ellipse stroke-linejoin="round" cx="1.242" cy="89.284" rx="1.241" ry="1.241"/><ellipse stroke-linejoin="round" cx="89.773" cy="126.395" rx="1.241" ry="1.241"/><ellipse stroke-linejoin="round" cx="67.354" cy="45.687" rx="1.241" ry="1.241"/></g><g transform="rotate(-15 86.074 -308.881)"><rect fill="#E0EAEF" x="2.839" y="16.327" width="53.306" height="61.617" rx="3"/><rect stroke="#404F54" stroke-width="1.5" stroke-linecap="round" fill="#FFF" y="12.778" width="53.306" height="61.617" rx="3"/><g transform="translate(12.318 .26)"><ellipse fill="#E0EAEF" cx="17.295" cy="17.466" rx="14.342" ry="14.342"/><ellipse fill="#FFF" cx="14.519" cy="14.814" rx="14.342" ry="14.342"/><ellipse stroke="#404F54" stroke-width="1.5" stroke-linecap="round" cx="14.519" cy="14.814" rx="14.342" ry="14.342"/><g transform="translate(7.129 3.87)"><ellipse stroke="#404F54" stroke-width="1.3" stroke-linecap="round" fill="#F5F6F7" cx="1.558" cy="12.849" rx="1.385" ry="1.378"/><ellipse stroke="#404F54" stroke-width="1.3" stroke-linecap="round" fill="#F5F6F7" cx="13.624" cy="12.849" rx="1.385" ry="1.378"/><rect stroke="#404F54" stroke-width="1.3" stroke-linecap="round" fill="#FF8F5C" x="2.015" y="15.306" width="11.138" height="4.758" rx="2.379"/><ellipse stroke="#404F54" stroke-width="1.3" fill="#FFA47B" cx="7.717" cy="3.128" rx="2.791" ry="2.791"/><path d="M10.37 2.264a2.79 2.79 0 0 1-4.474 2.98 2.79 2.79 0 0 1 4.474-2.98z" fill="#FF8F5C"/><ellipse stroke="#404F54" stroke-width="1.3" cx="7.717" cy="3.128" rx="2.791" ry="2.791"/><rect stroke="#404F54" stroke-width="1.3" stroke-linecap="round" fill="#F5F6F7" x="6.25" y="16.935" width="2.668" height="4.758" rx="1.334"/><rect stroke="#404F54" stroke-width="1.3" stroke-linecap="round" fill="#FFF" x="2.015" y="4.426" width="11.138" height="14.804" rx="5.569"/><path stroke="#404F54" stroke-width=".975" stroke-linecap="round" stroke-linejoin="round" d="M7.085 13.412v1.58h.461"/><path d="M6.558 16.159a.925.925 0 0 0 1.85 0" stroke="#FF8F5C" stroke-width="1.3" stroke-linecap="round" fill="#F5F6F7"/><path d="M5.85 4.703a5.582 5.582 0 0 0-3.835 5.299v1.804c.44-.096 2.314-.509 4.76-1.042 2.806-.61 3.913-1.543 3.913-1.543s.523 1.36.91 2.049c.33.59 1.149 1.462 1.149 1.462v-1.717s.177.063.406.083v-1.096a5.575 5.575 0 0 0-3.568-5.205C8.57 4.66 7.399 4.7 6.049 4.7c-.067 0-.133 0-.199.003z" fill="#DAE2E6"/><path d="M10.607 13.554a.645.645 0 0 0-.647-.643.645.645 0 0 0-.646.643m-3.448 0a.645.645 0 0 0-.646-.643.645.645 0 0 0-.647.643" stroke="#404F54" stroke-width=".975" stroke-linecap="round" fill="#F5F6F7"/><path d="M6.283 11.886a1.06 1.06 0 0 0-1.063-1.058 1.06 1.06 0 0 0-1.064 1.058m6.716 0a1.06 1.06 0 0 0-1.064-1.058 1.06 1.06 0 0 0-1.064 1.058" stroke="#404F54" stroke-width=".975" stroke-linecap="round"/><path d="M10.992 7.854S9.614 9 6.81 9.61a91.872 91.872 0 0 1-4.726.914l-.132 1.294H.753s-.54-3.735.387-5.37c.926-1.636 2.412-3 4.91-3 2.497 0 4.385-.132 5.787.95 1.4 1.083 2.325 3.045 2.325 4.46v2.833h-1.018s-.976-1.058-1.307-1.648c-.387-.689-.845-2.189-.845-2.189z" stroke="#404F54" stroke-width="1.3" fill="#FFA47B"/><path d="M2.165 10.51a94.683 94.683 0 0 0 4.644-.9c2.805-.61 4.183-1.756 4.183-1.756s.458 1.5.845 2.19c.161.287.476.687.757 1.02V8.991c0-1.087-.71-2.596-1.788-3.428-1.077-.832-2.529-.73-4.45-.73-1.92 0-3.062 1.047-3.774 2.305-.339.598-.422 2.032-.417 3.372z" fill="#FF8F5C"/><path d="M10.992 7.854S9.614 9 6.81 9.61a91.872 91.872 0 0 1-4.726.914l-.1 1.294H.753s-.54-3.735.387-5.37c.926-1.636 2.412-3 4.91-3 2.497 0 4.385-.132 5.787.95 1.4 1.083 2.325 3.045 2.325 4.46v2.833h-1.018s-.976-1.058-1.307-1.648c-.387-.689-.845-2.189-.845-2.189z" stroke="#404F54" stroke-width="1.3"/><path d="M10.992 9.105s-1.378 1.146-4.183 1.757c-2.805.61-4.726.913-4.726.913l-.1 1.294H.753s-.54-3.734.387-5.37c.926-1.636 2.412-3 4.91-3 2.497 0 4.385-.131 5.787.95 1.4 1.083 2.325 3.046 2.325 4.46v2.833h-1.018s-.976-1.057-1.307-1.648c-.387-.688-.845-2.189-.845-2.189z"/></g></g><path d="M17.747 35.493H36.58" stroke="#1EA69A" stroke-width="2" stroke-linecap="round" stroke-linejoin="round" fill="#F5F6F7"/><path d="M14.197 39.752H40.13" stroke="#C3D2DA" stroke-width="2" stroke-linecap="round" stroke-linejoin="round" fill="#F5F6F7"/><path fill="#E2FFFD" d="M5.679 47.561h41.172v21.296H5.679z"/><path d="M5.679 67.095s3.09-.09 4.47-.746c1.802-.855 5.352-9.418 7.553-10.512 3.74-1.86 8.993 5.468 12.824 4.308 3.458-1.048 8.708-8.125 11.282-10.22 4.392-3.574 5.364.068 5.364.068l-.321 18.864H5.679v-1.762z" fill="#9BE8E2"/><path d="M7.13 66.713c6.517 0 7.341-10.905 11.92-10.905 4.58 0 7.982 6.192 12.977 3.908 4.996-2.284 7.385-10.885 13.886-10.885" stroke="#1EA69A" stroke-width="2" stroke-linecap="round" stroke-linejoin="round"/></g><path d="M23.785 42.152v-8.004A4.139 4.139 0 0 1 27.92 30h94.383a4.143 4.143 0 0 1 4.135 4.144v65.428H23.785V74.794m0-6.422V48.493" stroke="#404F54" stroke-width="1.5" stroke-linecap="round" fill="#FFF"/><path stroke="#404F54" stroke-width="1.5" stroke-linecap="round" fill="#E0EAEF" d="M28.68 38.561h92.864v56.175H28.68z"/><g opacity=".318" transform="translate(33.675 41.595)"><rect stroke="#404F54" stroke-linecap="round" fill="#FFF" x=".614" y=".482" width="81.442" height="49.143" rx="5"/><rect stroke-linecap="round" fill="#F3F8F8" x="28.149" y="8.81" width="14.641" height="20.434" rx="2"/><path d="M28.149 34.303a2 2 0 0 1 2.005-2h10.63c1.108 0 2.005.894 2.005 2v14.863H28.15V34.303z" stroke-linecap="round" fill="#F3F8F8"/><rect stroke-linecap="round" fill="#F3F8F8" x="45.464" y="8.765" width="14.641" height="20.434" rx="2"/><path d="M45.475 34.253a1.985 1.985 0 0 1 1.994-1.996H58.1a2.01 2.01 0 0 1 2.017 1.996l.083 14.972H45.56l-.084-14.972z" stroke-linecap="round" fill="#F3F8F8"/><rect stroke-linecap="round" fill="#F3F8F8" x="62.78" y="8.765" width="14.641" height="20.434" rx="2"/><path d="M62.78 34.253c0-1.102.893-1.996 2.005-1.996h10.63c1.108 0 2.005.888 2.005 1.996v14.965H62.78V34.253z" stroke-linecap="round" fill="#F3F8F8"/><rect stroke-linecap="round" fill="#E0EAEF" x="28.149" y="8.765" width="14.641" height="10.495" rx="2"/><rect stroke-linecap="round" fill="#E0EAEF" x="28.149" y="32.257" width="14.641" height="10.495" rx="2"/><rect stroke-linecap="round" fill="#E0EAEF" x="45.464" y="8.765" width="14.641" height="10.495" rx="2"/><rect stroke-linecap="round" fill="#E0EAEF" x="45.464" y="32.257" width="14.641" height="10.495" rx="2"/><rect stroke-linecap="round" fill="#E0EAEF" x="62.78" y="8.765" width="14.641" height="10.495" rx="2"/><rect stroke-linecap="round" fill="#E0EAEF" x="62.78" y="32.257" width="14.641" height="10.495" rx="2"/><ellipse fill="#FFA47B" cx="31.473" cy="19.049" rx="1.656" ry="1.656"/><ellipse fill="#FFA47B" cx="31.473" cy="42.542" rx="1.656" ry="1.656"/><ellipse fill="#FFA47B" cx="48.789" cy="19.049" rx="1.656" ry="1.656"/><ellipse fill="#FFA47B" cx="48.789" cy="42.542" rx="1.656" ry="1.656"/><ellipse fill="#FFA47B" cx="66.104" cy="19.049" rx="1.656" ry="1.656"/><ellipse fill="#FFA47B" cx="66.104" cy="42.542" rx="1.656" ry="1.656"/><path d="M23.4.482H5.188C2.434.482.198 2.723.198 5.487V44.62a4.997 4.997 0 0 0 4.99 5.006H23.4V.482z" stroke="#E0EAEF" stroke-linecap="round" fill="#71D5CA"/><path d="M23.4 30.019H.198v15.435c0 2.754 2.234 4.999 4.99 4.999H23.4V30.019z" stroke="#E0EAEF" stroke-linecap="round" fill="#FFF"/><rect fill="#E0EAEF" x="5.792" y="34.742" width="13.812" height="1.994" rx=".997"/><rect fill="#E0EAEF" x="5.792" y="38.055" width="9.671" height="1.994" rx=".997"/><g transform="translate(4.964 10.973)"><ellipse fill="#FFF" cx="6.731" cy="6.544" rx="6.515" ry="6.515"/><ellipse fill="#FFF" cx="7.642" cy="7.456" rx="6.515" ry="6.515"/><ellipse stroke="#404F54" stroke-width=".825" stroke-linecap="round" cx="6.731" cy="6.544" rx="6.515" ry="6.515"/><g transform="translate(3.374 1.573)"><ellipse stroke="#404F54" stroke-width=".55" stroke-linecap="round" fill="#F5F6F7" cx=".708" cy="5.836" rx=".629" ry=".626"/><ellipse stroke="#404F54" stroke-width=".55" stroke-linecap="round" fill="#F5F6F7" cx="6.188" cy="5.836" rx=".629" ry=".626"/><rect stroke="#404F54" stroke-width=".55" stroke-linecap="round" fill="#FF8F5C" x=".916" y="6.952" width="5.059" height="2.161" rx="1.081"/><ellipse stroke="#404F54" stroke-width=".55" fill="#FFA47B" cx="3.505" cy="1.421" rx="1.268" ry="1.268"/><path d="M4.71 1.029a1.267 1.267 0 0 1-1.205 1.66 1.26 1.26 0 0 1-.826-.307A1.267 1.267 0 0 1 3.884.722c.316 0 .605.115.827.307z" fill="#FF8F5C"/><ellipse stroke="#404F54" stroke-width=".55" cx="3.505" cy="1.421" rx="1.268" ry="1.268"/><rect stroke="#404F54" stroke-width=".55" stroke-linecap="round" fill="#F5F6F7" x="2.839" y="7.692" width="1.212" height="2.161" rx=".606"/><rect stroke="#404F54" stroke-width=".55" stroke-linecap="round" fill="#FFF" x=".916" y="2.011" width="5.059" height="6.724" rx="2.53"/><path stroke="#404F54" stroke-width=".5" stroke-linecap="round" stroke-linejoin="round" d="M3.218 6.092v.717h.21"/><path d="M2.979 7.34a.42.42 0 1 0 .84 0" stroke="#FF8F5C" stroke-width=".55" stroke-linecap="round" fill="#F5F6F7"/><path d="M2.65 2.136A2.518 2.518 0 0 0 .916 4.534v.829c.2-.044 1.05-.231 2.162-.473 1.274-.278 1.777-.701 1.777-.701s.237.617.413.93c.15.268.522.664.522.664v-.78s.08.03.185.038v-.507c0-1.067-.675-1.99-1.624-2.356-.46-.06-.991-.043-1.603-.043l-.098.001z" fill="#DAE2E6"/><path d="M4.818 6.157a.293.293 0 0 0-.294-.292.293.293 0 0 0-.293.292m-1.566 0a.293.293 0 0 0-.294-.292.293.293 0 0 0-.294.292" stroke="#404F54" stroke-width=".5" stroke-linecap="round" fill="#F5F6F7"/><path d="M2.854 5.399a.482.482 0 0 0-.483-.48.482.482 0 0 0-.483.48m3.05 0a.482.482 0 0 0-.483-.48.482.482 0 0 0-.483.48" stroke="#404F54" stroke-width=".5" stroke-linecap="round"/><path d="M4.993 3.568s-.626.52-1.9.797a40.926 40.926 0 0 1-2.147.415l-.06.588H.342s-.245-1.696.176-2.44c.42-.742 1.095-1.362 2.23-1.362 1.134 0 1.992-.06 2.629.432.636.492 1.056 1.383 1.056 2.025V5.31H5.97s-.443-.48-.593-.748c-.176-.313-.384-.994-.384-.994z" stroke="#404F54" stroke-width=".55" fill="#FFA47B"/><path d="M.983 4.774c.18-.029.99-.165 2.11-.409 1.274-.277 1.9-.797 1.9-.797s.208.681.384.994c.073.13.216.312.344.464v-.942c0-.494-.323-1.18-.812-1.557-.49-.378-1.15-.332-2.022-.332-.872 0-1.39.476-1.714 1.047-.154.272-.192.923-.19 1.532z" fill="#FF8F5C"/><path d="M4.993 3.568s-.626.52-1.9.797a40.926 40.926 0 0 1-2.147.415l-.045.588H.342s-.245-1.696.176-2.44c.42-.742 1.095-1.362 2.23-1.362 1.134 0 1.992-.06 2.629.432.636.492 1.056 1.383 1.056 2.025V5.31H5.97s-.443-.48-.593-.748c-.176-.313-.384-.994-.384-.994z" stroke="#404F54" stroke-width=".55"/><path d="M4.993 4.136s-.626.52-1.9.798a41.633 41.633 0 0 1-2.147.415l-.045.587H.342S.097 4.24.518 3.497c.42-.743 1.095-1.362 2.23-1.362 1.134 0 1.992-.06 2.629.431.636.492 1.056 1.383 1.056 2.026v1.287H5.97s-.443-.48-.593-.749c-.176-.312-.384-.994-.384-.994z"/></g></g><path d="M82.056 5.84v-.353a4.997 4.997 0 0 0-4.99-5.005H5.806C3.054.482.817 2.723.817 5.487v.353h81.24z" stroke="#E0EAEF" stroke-linecap="round" fill="#F3FFFD"/><rect stroke="#404F54" stroke-linecap="round" x=".614" y=".482" width="81.442" height="49.143" rx="5"/></g><path stroke="#404F54" stroke-width="1.5" stroke-linecap="round" stroke-linejoin="round" fill="#FFF" d="M8 109.553h134.115v-9.981H8z"/><path fill="#E0EAEF" d="M56.866 104.032h36.086v-4.46H56.866z"/><path stroke="#404F54" stroke-width="1.5" stroke-linecap="round" stroke-linejoin="round" d="M8.054 109.553h134.115v-9.981H8.054z"/><g transform="translate(56 45.3)"><ellipse fill="#FFAF8B" cx="22.472" cy="21.697" rx="20.147" ry="20.147"/><circle fill="#FF8F5C" cx="24.992" cy="23.443" r="16.077"/><path d="M4.468 7.745A20.579 20.579 0 0 0 2.77 10.23M.863 14.625A20.536 20.536 0 0 0 0 20.535c0 11.34 9.194 20.534 20.535 20.534 11.34 0 20.534-9.193 20.534-20.534S31.876 0 20.535 0a20.44 20.44 0 0 0-10.11 2.657m24.53 40.15a20.633 20.633 0 0 0 7.537-7.884" stroke="#404F54" stroke-width="1.5" stroke-linecap="round"/><g transform="translate(11.15 10.401)" stroke="#FFF" stroke-width="1.5"><path d="M4.767 7.342V5.097A4.263 4.263 0 0 1 9.032.842a4.264 4.264 0 0 1 4.264 4.255v2.245"/><rect x=".429" y="7.965" width="17.205" height="10.753" rx="2"/><path d="M8.759 12.866v2.907" stroke-linecap="round" stroke-linejoin="round"/></g></g></g></svg>