<svg width="21" height="19" viewBox="0 0 21 19" xmlns="http://www.w3.org/2000/svg"><title>tch-arrow</title><g fill="none" fill-rule="evenodd"><path d="M14.926 11.135H2.07C.932 11.135 0 10.407 0 9.518s.932-1.616 2.071-1.616h12.855c1.14 0 2.071.727 2.071 1.616 0 .89-.932 1.617-2.071 1.617" fill="#FF7F45"/><path d="M20.485 8.534a1.711 1.711 0 0 0-2.484 0l-6.189 7.219c-.682.712-1.057 2.055-.374 2.767.683.712 2.067.504 2.75-.208l6.297-7.19a1.891 1.891 0 0 0 0-2.588z" fill="#ADD8E6"/><path d="M20.485 9.479a1.84 1.84 0 0 1-2.484 0l-6.189-6.524c-.682-.643-1.057-1.856-.374-2.5.683-.643 2.067-.455 2.75.188l6.297 6.497a1.591 1.591 0 0 1 0 2.339z" fill="#ADD8E6"/></g></svg>