<svg width="1456" height="221" viewBox="0 0 1456 221" xmlns="http://www.w3.org/2000/svg" xmlns:xlink="http://www.w3.org/1999/xlink"><title>Group 4</title><defs><path id="b" d="M.636 0H1456v220.597H.636z"/><path id="a" d="M-5.867 207h1468.205v27H-5.867z"/><mask id="d" x="0" y="0" width="1468.205" height="27" fill="#fff"><use xlink:href="#a"/></mask></defs><g fill="none" fill-rule="evenodd"><mask id="c" fill="#fff"><use xlink:href="#b"/></mask><use fill="#FFF" xlink:href="#b"/><path d="M-8.051 198.553s28.333-87.317 53.42-87.317c25.089 0 27.685 21.639 84.352 21.639S214.42 82.578 273.88 82.578c59.46 0 120.376 88.834 187.232 88.834s48.923 27.903 93.076 27.903c44.153 0 376.818 46.32 414.91-35.209 38.092-81.528 86.027-13.382 103.333-13.382 17.307 0 36.546-38.024 66.275-38.024 29.73 0 15.563 19.925 74.472 9.963 58.908-9.963 83.581-68.811 137.976-68.811 54.395 0 56.086 56.357 115.704 56.357 59.618 0 0 135.7 0 135.7H-13.223l5.172-47.356z" fill="#D9E1E9" opacity=".216" mask="url(#c)"/><path d="M-16.376 183.394c19.206 0 63.933-39.158 91.969-36.441 28.036 2.716 30.676 20.83 78.032 20.83 47.356 0 133.641-72.637 185.907-72.637 52.265 0 97.363 91.057 202.946 93.043 105.583 1.985 146.404 25.925 210.135 25.925 63.73 0 128.868-26.798 162.545-26.798 33.676 0 66.01-45.992 101.726-45.992 35.716 0 57.55 19.969 86.836 19.969 29.285 0 72.458-60.175 107.127-61.62 34.669-1.446 47.585 15.016 122.694 17.313 75.108 2.296 79.707-43.047 117.877-46.102 38.17-3.055 22.07 164.754 22.07 164.754H-13.073s-22.509-52.244-3.304-52.244z" fill="#D9E1E9" opacity=".313" mask="url(#c)"/><path fill="#F5F6F7" mask="url(#c)" d="M.636 208.771H1456v11.825H.636z"/><g opacity=".41" mask="url(#c)"><g transform="rotate(-19 194.127 -245.49)"><path fill="#E0EAEF" d="M9.292 0h18.585v8.363H9.292z"/><path d="M39.477 48.713H9.293A9.288 9.288 0 0 1 0 39.42V9.291C0 4.16 4.162 0 9.3 0h57.552c5.136 0 9.3 4.153 9.3 9.292v30.13c0 5.131-4.164 9.29-9.291 9.29h-9.68m-6.732 0h-3.837" stroke="#E0EAEF" stroke-width="2" stroke-linecap="round"/><ellipse fill="#E0EAEF" cx="37.752" cy="26.601" rx="11.733" ry="11.733"/><path d="M42.76 27.778l-5.89 3.313c-1.259.709-2.28.113-2.28-1.326v-6.539c0-1.441 1.021-2.035 2.28-1.326l5.89 3.313c1.26.708 1.26 1.857 0 2.565z" fill="#FFF"/><path d="M9.292.688v35.079m0 5.742v6.815M65.047.688v47.636M10.273 8.65h47.004m3.473 0h3.555M46.992.299v7.566M27.478.299v7.566" stroke="#E0EAEF" stroke-width="2" stroke-linecap="round"/></g><g transform="rotate(33 119.3 780.063)"><path stroke="#E0EAEF" stroke-width="2" stroke-linecap="round" fill="#FFF" d="M12.284 0H35v50H0V12.481z"/><path d="M1.048 12.847l11.696-11.84.187 7.906a3.864 3.864 0 0 1-3.91 3.976l-7.973-.042z" fill="#E0EAEF"/><rect fill="#E0EAEF" x="6.989" y="22.197" width="21" height="17" rx="1"/><path d="M11.184 32.376c-.57 1.552.313 2.81 1.96 2.81h7.649c1.652 0 1.993-.907.773-2.014l-5.788-5.254c-1.225-1.112-2.678-.762-3.25.796l-1.344 3.662z" fill="#FFF" opacity=".728"/><path d="M22.95 32.302c.46 1.593-.51 2.884-2.157 2.884h-7.65c-1.651 0-1.91-.784-.56-1.765l6.403-4.65c1.342-.975 2.805-.47 3.265 1.119l.698 2.412z" fill="#FFF" opacity=".403"/></g><g transform="translate(1015 71.25)"><path d="M10.315 39.337a23.41 23.41 0 0 1-5.588-15.215C4.727 11.142 15.25.618 28.231.618c12.981 0 23.504 10.523 23.504 23.504 0 12.981-10.523 23.504-23.504 23.504a23.397 23.397 0 0 1-11.62-3.068c-1.946 1.133-5.002 2.51-8.368 2.51-5.725 0-7.91-1.093-7.91-1.093s-.565-.033 4.707-2.116c2.977-1.176 4.508-3.084 5.275-4.522z" fill="#FFF"/><path d="M14.063 42.148a23.41 23.41 0 0 1-5.588-15.215c0-12.98 10.523-23.504 23.504-23.504 12.98 0 23.504 10.523 23.504 23.504 0 12.98-10.523 23.504-23.504 23.504a23.397 23.397 0 0 1-11.62-3.069c-1.946 1.134-5.002 2.51-8.368 2.51-5.725 0-7.911-1.092-7.911-1.092s-.565-.033 4.707-2.116c2.978-1.176 4.508-3.084 5.276-4.522z"/><path d="M16.08 4.028A23.395 23.395 0 0 1 29.238.003c12.98 0 23.504 10.523 23.504 23.504 0 12.98-10.523 23.504-23.504 23.504a23.397 23.397 0 0 1-11.62-3.069c-1.946 1.134-5.002 2.51-8.368 2.51-5.726 0-7.911-1.092-7.911-1.092s-.565-.033 4.707-2.116c2.978-1.176 4.508-3.085 5.276-4.523a23.41 23.41 0 0 1-5.588-15.214m.49-4.802a23.397 23.397 0 0 1 4.21-9.303" stroke="#E0EAEF" stroke-width="2" stroke-linecap="round"/><path d="M45.062 31.185a17.634 17.634 0 0 1-10.668 9.139m-5.156.768c-1.377 0-2.716-.158-4.001-.457" stroke="#FFF" stroke-width="2" stroke-linecap="round"/><circle stroke="#E0EAEF" stroke-width="2" stroke-linecap="round" fill="#FFF" cx="29.238" cy="23.507" r="3.247"/><circle fill="#FFF" cx="17.588" cy="23.507" r="3.247"/><path d="M14.341 23.507a3.247 3.247 0 1 0 3.247-3.247" stroke="#E0EAEF" stroke-width="2" stroke-linecap="round"/><ellipse stroke="#E0EAEF" stroke-width="2" stroke-linecap="round" fill="#FFF" cx="40.887" cy="23.507" rx="3.247" ry="3.247"/></g><path stroke="#E0EAEF" stroke-width="2" stroke-linecap="round" fill="#FFF" d="M1229.996 11.307l17.82 15.49-34.095 39.222-27.456-23.867 25.584-29.43z"/><path d="M1212.423 13.723l17.248-1.312-5.343 6.448a3.86 3.86 0 0 1-5.563.436l-6.342-5.572zm-8.868 19.785l5.325-6.127 2.64 2.295c.3.26.522.562.668.906.145.344.223.693.231 1.05a2.99 2.99 0 0 1-.165 1.052 2.71 2.71 0 0 1-.516.908c-.235.27-.513.49-.833.662-.32.17-.655.28-1.003.325-.348.046-.698.02-1.05-.08-.353-.1-.68-.28-.979-.54l-1-.87-1.636 1.881-1.682-1.462zm4.593-1.886l.888.773c.104.09.242.126.413.109.172-.018.365-.15.58-.397.22-.254.319-.471.295-.653-.023-.182-.087-.318-.19-.408l-.846-.735-1.14 1.311zm.782 6.559l5.326-6.127 2.356 2.048c.506.44.882.908 1.127 1.404.246.496.378.995.397 1.496.018.501-.067.995-.258 1.48-.19.487-.467.94-.832 1.36a4.584 4.584 0 0 1-1.32 1.073c-.474.249-.962.39-1.465.422a3.715 3.715 0 0 1-1.515-.226 4.63 4.63 0 0 1-1.46-.883l-2.356-2.047zm6.407.176c.205-.236.361-.48.468-.73.106-.25.16-.496.163-.737.002-.24-.05-.475-.155-.702a1.846 1.846 0 0 0-.476-.62l-.673-.584-2.776 3.192.673.585c.219.19.45.32.692.39.243.07.485.083.728.042s.48-.134.71-.277c.23-.143.446-.33.646-.56zm-.228 5.194l5.325-6.126 4.203 3.653-1.276 1.467-2.52-2.19-.884 1.018 2.053 1.785-1.185 1.363-2.053-1.785-1.98 2.278-1.683-1.463z" fill="#E0EAEF"/><g transform="translate(22.164 9.63)"><path d="M938.82 79.017s1.266 1.994 2.068 2.795c.827.827 2.816 2.09 2.816 2.09s-2.024 1.335-2.816 2.126c-.837.837-2.068 2.758-2.068 2.758s-1.241-1.982-2.017-2.758c-.852-.852-2.868-2.127-2.868-2.127s2.029-1.249 2.868-2.089c.789-.788 2.017-2.795 2.017-2.795zm458.404 42.787s.784 1.233 1.28 1.73c.51.51 1.741 1.291 1.741 1.291s-1.252.826-1.741 1.316c-.518.517-1.28 1.705-1.28 1.705s-.767-1.226-1.247-1.705c-.527-.528-1.774-1.316-1.774-1.316s1.255-.773 1.774-1.292c.488-.488 1.247-1.729 1.247-1.729zm-1279.192-3.458s1 1.574 1.633 2.207c.653.652 2.223 1.65 2.223 1.65s-1.598 1.053-2.223 1.678c-.66.66-1.633 2.177-1.633 2.177s-.98-1.564-1.592-2.177c-.673-.673-2.264-1.679-2.264-1.679s1.602-.986 2.264-1.65c.623-.622 1.592-2.206 1.592-2.206zm280.135 32.216s1 1.574 1.633 2.207c.653.652 2.224 1.65 2.224 1.65s-1.599 1.053-2.224 1.678c-.66.66-1.633 2.177-1.633 2.177s-.98-1.564-1.591-2.177c-.674-.673-2.265-1.679-2.265-1.679s1.602-.986 2.265-1.65c.622-.622 1.591-2.206 1.591-2.206zm471.823 14.234s.634.997 1.035 1.398c.413.413 1.409 1.044 1.409 1.044s-1.013.668-1.409 1.064c-.418.419-1.034 1.38-1.034 1.38s-.62-.992-1.009-1.38c-.426-.426-1.434-1.064-1.434-1.064s1.014-.624 1.434-1.044c.395-.395 1.009-1.398 1.009-1.398zm36.013-14.168s.748 1.178 1.221 1.651c.488.488 1.663 1.234 1.663 1.234s-1.195.788-1.663 1.256c-.494.494-1.221 1.628-1.221 1.628s-.733-1.17-1.19-1.628c-.504-.504-1.695-1.256-1.695-1.256s1.198-.738 1.694-1.234c.466-.466 1.19-1.651 1.19-1.651zm367.174-124.522s.748 1.177 1.222 1.65c.488.489 1.663 1.235 1.663 1.235s-1.196.788-1.663 1.256c-.494.494-1.222 1.628-1.222 1.628s-.732-1.17-1.19-1.628c-.504-.504-1.694-1.256-1.694-1.256s1.198-.738 1.694-1.234c.465-.466 1.19-1.651 1.19-1.651zm-59.122 18.113s.748 1.177 1.221 1.651c.489.488 1.664 1.234 1.664 1.234s-1.196.788-1.664 1.256c-.494.494-1.221 1.628-1.221 1.628s-.733-1.17-1.19-1.628c-.504-.504-1.695-1.256-1.695-1.256s1.198-.738 1.694-1.234c.466-.466 1.19-1.651 1.19-1.651zm-202.79-4.302s.594.935.97 1.31c.388.388 1.32.98 1.32.98s-.949.626-1.32.998c-.392.392-.97 1.293-.97 1.293s-.582-.93-.945-1.293c-.4-.4-1.345-.998-1.345-.998s.951-.586 1.345-.98c.37-.369.945-1.31.945-1.31zm116.737 47.077s.594.935.97 1.311c.388.388 1.32.98 1.32.98s-.949.626-1.32.997c-.392.392-.97 1.293-.97 1.293s-.581-.93-.945-1.293c-.4-.4-1.345-.997-1.345-.997s.951-.586 1.345-.98c.37-.37.945-1.31.945-1.31z" fill="#DAE2E6"/><path d="M16.981 44.528V34.39m9.515 15.752l6.304-6.304M5.896 48.984L.7 43.787m131.09 47.472l4.916-3.944m983.15-8.952l-5.519-5.519m-151.362 38.468l-9.519-5.518" stroke="#DAE2E6" stroke-width="2" stroke-linecap="round" fill="#DAE2E6"/><path d="M178.82 19.017s1.266 1.994 2.068 2.795c.827.827 2.816 2.09 2.816 2.09s-2.024 1.335-2.816 2.126c-.837.837-2.068 2.758-2.068 2.758s-1.241-1.982-2.017-2.758c-.852-.852-2.868-2.127-2.868-2.127s2.029-1.249 2.868-2.089c.789-.788 2.017-2.795 2.017-2.795z" fill="#DAE2E6"/><path d="M202.975 51.312l-9.519-5.518m722.559 136.351l-7.267 4.27m364.58-1.349h4.787" stroke="#DAE2E6" stroke-width="2" stroke-linecap="round" fill="#DAE2E6"/><path d="M917.71 167.798a14.601 14.601 0 0 0 2.064-7.508c0-8.101-6.568-14.67-14.67-14.67-6.288 0-11.653 3.959-13.739 9.52m519.998-14.124a14.601 14.601 0 0 0 2.064-7.508c0-8.102-6.568-14.67-14.67-14.67-6.289 0-11.654 3.958-13.74 9.519" stroke="#DAE2E6" stroke-width="2" stroke-linecap="round" stroke-linejoin="round"/><path d="M277.224 31.804s.784 1.233 1.28 1.73c.51.51 1.741 1.291 1.741 1.291s-1.252.826-1.741 1.316c-.518.517-1.28 1.705-1.28 1.705s-.767-1.226-1.247-1.705c-.527-.528-1.774-1.316-1.774-1.316s1.255-.773 1.774-1.292c.488-.488 1.247-1.729 1.247-1.729z" fill="#DAE2E6"/><path d="M291.363 51.016a14.601 14.601 0 0 0 2.064-7.508c0-8.102-6.568-14.67-14.67-14.67-6.289 0-11.654 3.958-13.74 9.519m807.352 6.223a3.98 3.98 0 1 0 3.98-3.98" stroke="#DAE2E6" stroke-width="2" stroke-linecap="round" stroke-linejoin="round"/><ellipse stroke="#DAE2E6" stroke-width="2" stroke-linecap="round" stroke-linejoin="round" cx="1312.013" cy="138.566" rx="3.981" ry="3.981"/><ellipse stroke="#DAE2E6" stroke-width="2" stroke-linecap="round" stroke-linejoin="round" cx="1298.733" cy="3.727" rx="2.768" ry="2.768"/><path d="M333.177 46.106s.748 1.177 1.222 1.65c.488.489 1.663 1.235 1.663 1.235s-1.196.788-1.663 1.256c-.494.494-1.222 1.628-1.222 1.628s-.732-1.17-1.19-1.628c-.504-.504-1.694-1.256-1.694-1.256s1.198-.738 1.694-1.234c.465-.466 1.19-1.651 1.19-1.651z" fill="#DAE2E6"/><ellipse stroke="#DAE2E6" stroke-width="2" stroke-linecap="round" stroke-linejoin="round" cx="492.013" cy="138.566" rx="3.981" ry="3.981"/><ellipse stroke="#DAE2E6" stroke-width="2" stroke-linecap="round" stroke-linejoin="round" cx="358.733" cy="23.727" rx="2.768" ry="2.768"/><path d="M135.836 114.355a6.515 6.515 0 1 0-13.029 0m783.196 61.508c0-3.948-1.037-7.654-2.854-10.86m-3.755-4.886a21.992 21.992 0 0 0-15.454-6.317c-11.445 0-20.854 8.714-21.955 19.869M409.04 165.31a22.22 22.22 0 0 0 .288-3.576c0-12.185-9.878-22.063-22.063-22.063-9.964 0-18.386 6.606-21.124 15.677" stroke="#DAE2E6" stroke-width="2" stroke-linecap="round" stroke-linejoin="round"/><path d="M265.167 47.562s1 1.574 1.633 2.207c.653.652 2.224 1.65 2.224 1.65s-1.599 1.053-2.224 1.678c-.66.66-1.633 2.177-1.633 2.177s-.98-1.564-1.591-2.177c-.674-.673-2.265-1.679-2.265-1.679s1.602-.986 2.265-1.65c.622-.622 1.591-2.206 1.591-2.206z" fill="#DAE2E6"/><path d="M276.04 62.31a22.22 22.22 0 0 0 .288-3.576c0-12.185-9.878-22.063-22.063-22.063-9.964 0-18.386 6.606-21.124 15.677m180.239 118.69a5.561 5.561 0 0 0-11.121 0m468.735 7.338a9.25 9.25 0 0 0-17.059 4.958m-708.088-54.741a9.21 9.21 0 0 0 1.973-5.71 9.25 9.25 0 0 0-17.223-4.689" stroke="#DAE2E6" stroke-width="2" stroke-linecap="round" stroke-linejoin="round"/></g></g><use mask="url(#d)" xlink:href="#a" opacity=".276" stroke-width="3" stroke="#404F54"/><g mask="url(#c)"><path stroke="#404F54" stroke-width="1.5" stroke-linecap="round" fill="#F3F8F8" d="M31 100h22v108H31z"/><path stroke="#404F54" stroke-width="1.5" stroke-linecap="round" fill="#F3F8F8" d="M31 100h18v108H31z"/><path fill="#CFDDE4" d="M38 101h10v106H38z"/><path stroke="#404F54" stroke-width="1.5" stroke-linecap="round" fill="#71D5CA" d="M24 92h7v116h-7z"/><path stroke="#404F54" stroke-width="1.5" stroke-linecap="round" fill="#71D5CA" d="M21 92h7v116h-7z"/><path stroke="#404F54" stroke-width="1.5" stroke-linecap="round" fill="#E0EAEF" d="M53 123h14v85H53z"/><path stroke="#404F54" stroke-width="1.5" stroke-linecap="round" fill="#FFF" d="M64 119.932h14V208H64z"/><path stroke="#404F54" stroke-width="1.5" stroke-linecap="round" fill="#FFF" d="M64 119.932h11V208H64z"/></g><g transform="translate(1116.827 122.957)" mask="url(#c)"><path d="M0 26.473v-4.215M0 6.86C0 3.07 3.06 0 6.87 0h31.817c3.794 0 6.87 3.08 6.87 6.875V77.57a6.862 6.862 0 0 1-6.87 6.875H6.87c-3.794 0-6.87-3.071-6.87-6.852v-43.76" stroke="#404F54" stroke-width="1.5" stroke-linecap="round" fill="#FFF"/><rect stroke="#404F54" stroke-width="1.5" stroke-linecap="round" fill="#85DAD2" x="5.246" y="13.186" width="35.065" height="57.119" rx="3"/><rect fill="#65C7BE" x="5.99" y="46.619" width="33.576" height="22.472" rx="3"/><path d="M19.11 7.24h8.983" stroke="#FF8F5C" stroke-width="1.5" stroke-linecap="round" stroke-linejoin="round"/><path d="M21.673 76.98h1.362" stroke="#FF8F5C" stroke-width="3" stroke-linecap="round" stroke-linejoin="round"/><g transform="translate(13 29)" stroke-linecap="round" stroke-width="1.5"><rect stroke="#404F54" fill="#FFF" width="20" height="26" rx="5"/><path stroke="#FF8F5C" stroke-linejoin="round" d="M5.397 13.002l3.479 3.106 6.219-5.854"/></g></g><g transform="translate(1192.238 88.025)" mask="url(#c)"><path d="M.14 18.314V8.54C.14 4.12 3.72.535 8.134.535h77.55A7.991 7.991 0 0 1 93.68 8.53v103.397a7.996 7.996 0 0 1-7.995 7.996H8.135c-4.416 0-7.996-3.59-7.996-8.009V58.902m0-17.922v-9.847" stroke="#404F54" stroke-width="1.5" stroke-linecap="round" fill="#FFF"/><rect fill="#E0EAEF" x="7.139" y="6.535" width="89.541" height="116.388" rx="8"/><path d="M.14 18.314V8.54C.14 4.12 3.72.535 8.134.535h77.55A7.991 7.991 0 0 1 93.68 8.53v103.397a7.996 7.996 0 0 1-7.995 7.996H8.135c-4.416 0-7.996-3.59-7.996-8.009V58.902m0-17.922v-9.847" stroke="#404F54" stroke-width="1.5" stroke-linecap="round"/><rect stroke="#404F54" stroke-width="1.5" stroke-linecap="round" fill="#FFF" x="11.388" y="14.491" width="71.044" height="91.476" rx="8"/><g transform="translate(19.689 84.281)"><path d="M37.714 4.32A3.996 3.996 0 0 1 41.71.323h3.923c4.374 0 7.92 3.54 7.92 7.923v13.808h-15.84V4.321zM0 8.245C0 3.869 3.555.322 7.92.322c4.374 0 7.92 3.54 7.92 7.923v13.808H0V8.245z" stroke="#404F54" stroke-width="1.5" stroke-linecap="round" fill="#F5F6F7"/><rect fill="#FF8F5C" x="7.543" y=".322" width="38.468" height="21.731" rx="4"/><path d="M19.918.322h14.9v1.886c0 4.11-3.344 7.442-7.45 7.442a7.445 7.445 0 0 1-7.45-7.442V.322z" fill="#F5F6F7"/><path d="M34.697 15.086a3.753 3.753 0 1 0 7.506 0" stroke="#F5F6F7" stroke-width="2" stroke-linecap="round"/><path d="M36.96 15.086a.754.754 0 1 0 0-1.509.754.754 0 0 0 0 1.509zm3.017 0a.754.754 0 1 0 0-1.509.754.754 0 0 0 0 1.509z" fill="#F5F6F7"/><path d="M46.01 6.364v14.405c0 .71-1.346 1.284-3.018 1.284h-32.43c-1.668 0-3.02-.575-3.02-1.286V5.933m0-4.324c0-.71 1.347-1.287 3.02-1.287h32.43c1.667 0 3.019.574 3.019 1.289" stroke="#404F54" stroke-width="1.5" stroke-linecap="round"/></g><g transform="translate(23.46 21.676)"><ellipse stroke="#404F54" stroke-width="1.5" stroke-linecap="round" fill="#F5F6F7" cx="4.848" cy="38.88" rx="4.31" ry="4.31"/><ellipse stroke="#404F54" stroke-width="1.5" stroke-linecap="round" fill="#F5F6F7" cx="42.388" cy="38.88" rx="4.31" ry="4.31"/><path d="M20.668 67.696v16.602" stroke="#404F54" stroke-width="1.5" stroke-linecap="round" fill="#F5F6F7"/><rect stroke="#404F54" stroke-width="1.5" stroke-linecap="round" fill="#F5F6F7" x="19.447" y="52.964" width="8.3" height="14.882" rx="4.15"/><rect stroke="#404F54" stroke-width="1.5" stroke-linecap="round" fill="#F5F6F7" x="6.271" y="9.158" width="34.652" height="50.984" rx="17.326"/><path stroke="#404F54" stroke-width="1.5" stroke-linecap="round" stroke-linejoin="round" fill="#F5F6F7" d="M21.25 38.265v8.62h3.518"/><ellipse fill="#404F54" cx="31.523" cy="40.233" rx="1.573" ry="1.573"/><ellipse fill="#404F54" cx="15.352" cy="40.233" rx="1.573" ry="1.573"/><path d="M21.664 52.626a3.653 3.653 0 0 0 5.707-3.022" stroke="#1EA69A" stroke-width="1.5" stroke-linecap="round" fill="#F5F6F7"/><path d="M35.345 35.755a3.553 3.553 0 1 0-7.105 0m-9.643 0a3.553 3.553 0 0 0-7.105 0" stroke="#404F54" stroke-width="1.5" stroke-linecap="round" fill="#F5F6F7"/><path d="M12.644 21.058s6.9 1.817 11.1 1.817c4.2 0 10.909-1.817 10.909-1.817s1.754 3.906 2.51 5.393c.754 1.488 4.225 7.695 4.225 7.695l2.929.287 1.096-11.558s.088-3.674-1.096-6.19c-.92-1.955-4.12-4.536-5.175-5.422-.96-.807-3.205-2.13-5.756-4.124C29.53 4.126 25.188.322 25.188.322s-.226 2.772 0 3.911c.224 1.133 1.35 2.906 1.35 2.906s-5.093-3.66-7.94-4.946C16.813 1.388 12.644.868 12.644.868l4.069 7.107s-3.707-2.359-6.301-3.034c-2.202-.572-8.087 0-8.087 0l4.916 5.62s-4.269 3.582-4.916 5.329c-.563 1.517 0 6.236 0 6.236l1.182 11.933 2.937.078 3.968-7.686 2.232-5.393z" stroke="#404F54" stroke-width="1.5" stroke-linecap="round" fill="#85DAD2"/><path d="M5.98 33.473s5.251-9.398 6.288-13.453c0 0 11.376 3.961 22.75.027l6.78 13.335 1.778.204s.364-13.946-4.096-16.204c-4.461-2.258-9.151-5.126-9.151-5.126l-.255 2.29-7.295-3.444-1.113 3.569-9.392-3.86.703 3.48s-7.208-1.8-7.102 13.423l.106 5.76z" fill="#65C7BE"/></g></g><g mask="url(#c)"><path d="M1021.31 189.158h61.907m-89.469 6.402h89.205m-20.696 6.264h20.96" stroke="#E0EAEF" stroke-width="2" stroke-linecap="round" stroke-linejoin="round"/><path fill="#FF8F5C" d="M1069.116 188.863h9.554v12.054l-4.722-5.358-4.832 5.358z"/><path fill="#85DAD2" d="M990.444 167.453h93.686v17.392h-93.686z"/><path d="M1007.397 174.13h75.556" stroke="#5AC6BC" stroke-width="2" stroke-linecap="round" stroke-linejoin="round"/><path stroke="#404F54" stroke-width="1.5" stroke-linecap="round" d="M983.128 183.506h101.002v24.107H983.128zm0-18.751h101.002v18.75H983.128z"/><g stroke-linecap="round"><path d="M1007.397 156.533h70.514" stroke="#5AC6BC" stroke-width="2" stroke-linejoin="round"/><path stroke="#404F54" stroke-width="1.5" d="M1000.076 150.998h78.594v13.758h-78.594z"/></g><g stroke-linecap="round"><path d="M950.218 202.185l28.686-38.068" stroke="#5AC6BC" stroke-width="2" stroke-linejoin="round"/><path stroke="#404F54" stroke-width="1.5" d="M943.54 203.267l31.624-41.967 8.99 6.774-31.625 41.968z"/></g></g><g transform="rotate(90 191.883 379.28)" stroke-width="1.485" stroke-linecap="round" mask="url(#c)"><path d="M9.41 37.662a2.476 2.476 0 0 1 3.502.005l5.876 5.875c.968.969 1.106 2.662.316 3.768l-6.135 8.592c-.794 1.112-2.087 1.124-2.893.021l-6.533-8.948c-.804-1.1-.666-2.78.294-3.74l5.573-5.573z" stroke="#404F54"/><rect stroke="#404F54" fill="#FF8F5C" x="3.287" y=".504" width="16.842" height="45.754" rx="7.92"/><path d="M6.893 9.136c0-2.568 2.154-4.65 4.815-4.65m2.703 40.642V9.046M7.63 45.128V14.365" stroke="#FFF"/><rect stroke="#404F54" x="3.287" y=".504" width="16.842" height="45.754" rx="7.92"/></g><g transform="translate(186.07 85.771)" mask="url(#c)"><path d="M195.352 76.165v35.453c0 5.565-4.564 10.076-10.196 10.076H17.163c-5.63 0-10.195-4.504-10.195-10.082V10.396c0-3.483 1.786-6.554 4.503-8.365A10.229 10.229 0 0 1 17.163.314h167.993c5.631 0 10.196 4.53 10.196 10.075v36.737m0 13.177v3.466" stroke="#404F54" stroke-width="1.5" stroke-linecap="round" fill="#F5F6F7"/><path d="M8.665 87.675h185v24.175c0 5.523-4.48 10-9.995 10H18.66a9.992 9.992 0 0 1-9.995-10V87.675z" fill="#E1EBF0"/><path stroke="#404F54" stroke-width="1.5" stroke-linecap="round" fill="#FFF" d="M16.936 11.406h168.419v90.384H16.936z"/><rect fill="#9CBBCA" x="92.207" y="106.45" width="18.818" height="1.864" rx=".932"/><rect stroke="#404F54" stroke-width="1.5" stroke-linecap="round" fill="#FFF" y="112.972" width="206.054" height="9.318" rx="4.659"/><g transform="translate(39.095 19.145)"><rect stroke="#404F54" stroke-linecap="round" fill="#FFF" x=".659" width="122.343" height="73.823" rx="5"/><rect stroke-linecap="round" fill="#F3F8F8" x="42.022" y="12.51" width="21.994" height="30.697" rx="2"/><rect stroke-linecap="round" fill="#F3F8F8" x="68.034" y="12.442" width="21.994" height="30.697" rx="2"/><rect stroke-linecap="round" fill="#F3F8F8" x="94.045" y="12.442" width="21.994" height="30.697" rx="2"/><path d="M94.045 49.732c0-1.104.89-1.999 1.99-1.999h18.013c1.1 0 1.99.892 1.99 2v23.48H94.046v-23.48z" stroke-linecap="round" fill="#F3F8F8"/><rect stroke-linecap="round" fill="#E0EAEF" x="42.022" y="12.442" width="21.994" height="15.766" rx="2"/><rect stroke-linecap="round" fill="#E0EAEF" x="68.034" y="12.442" width="21.994" height="15.766" rx="2"/><rect stroke-linecap="round" fill="#E0EAEF" x="94.045" y="12.442" width="21.994" height="15.766" rx="2"/><rect stroke-linecap="round" fill="#E0EAEF" x="94.045" y="47.733" width="21.994" height="15.766" rx="2"/><ellipse fill="#FFA47B" cx="47.016" cy="27.892" rx="2.488" ry="2.488"/><ellipse fill="#FFA47B" cx="73.028" cy="27.892" rx="2.488" ry="2.488"/><ellipse fill="#FFA47B" cx="99.039" cy="27.892" rx="2.488" ry="2.488"/><ellipse fill="#FFA47B" cx="99.039" cy="63.183" rx="2.488" ry="2.488"/><path d="M67.917 49.732c0-1.104.89-1.999 1.99-1.999H87.92c1.1 0 1.99.892 1.99 2v23.48H67.918v-23.48z" stroke-linecap="round" fill="#F3F8F8"/><rect stroke-linecap="round" fill="#E0EAEF" x="67.917" y="47.733" width="21.994" height="15.766" rx="2"/><ellipse fill="#FFA47B" cx="72.911" cy="63.183" rx="2.488" ry="2.488"/><path d="M41.789 49.732c0-1.104.89-1.999 1.99-1.999h18.013c1.1 0 1.99.892 1.99 2v23.48H41.79v-23.48z" stroke-linecap="round" fill="#F3F8F8"/><rect stroke-linecap="round" fill="#E0EAEF" x="41.789" y="47.733" width="21.994" height="15.766" rx="2"/><ellipse fill="#FFA47B" cx="46.783" cy="63.183" rx="2.488" ry="2.488"/><path d="M34.889 0H5.026A4.997 4.997 0 0 0 .034 5.002v63.82a4.99 4.99 0 0 0 4.992 5.001H34.89V0z" stroke="#E0EAEF" stroke-linecap="round" fill="#71D5CA"/><path d="M34.889 43.126H.034v25.697c0 2.768 2.235 5 4.992 5H34.89V43.126z" stroke="#E0EAEF" stroke-linecap="round" fill="#FFF"/><rect fill="#E0EAEF" x="8.437" y="51.466" width="20.749" height="2.996" rx="1.498"/><rect fill="#E0EAEF" x="8.437" y="56.442" width="14.528" height="2.996" rx="1.498"/><g transform="translate(7.193 15.76)"><ellipse fill="#FFF" cx="10.111" cy="9.831" rx="9.787" ry="9.787"/><ellipse fill="#FFF" cx="11.48" cy="11.2" rx="9.787" ry="9.787"/><ellipse stroke="#404F54" stroke-width=".825" stroke-linecap="round" cx="10.111" cy="9.831" rx="9.787" ry="9.787"/><g transform="translate(5.068 2.363)"><ellipse stroke="#404F54" stroke-width=".55" stroke-linecap="round" fill="#F5F6F7" cx="1.063" cy="8.767" rx=".945" ry=".94"/><ellipse stroke="#404F54" stroke-width=".55" stroke-linecap="round" fill="#F5F6F7" cx="9.296" cy="8.767" rx=".945" ry=".94"/><rect stroke="#404F54" stroke-width=".55" stroke-linecap="round" fill="#FF8F5C" x="1.375" y="10.444" width="7.6" height="3.247" rx="1.623"/><ellipse stroke="#404F54" stroke-width=".55" fill="#FFA47B" cx="5.266" cy="2.135" rx="1.904" ry="1.904"/><path d="M7.077 1.545a1.904 1.904 0 0 1-3.053 2.033 1.904 1.904 0 0 1 3.053-2.033z" fill="#FF8F5C"/><ellipse stroke="#404F54" stroke-width=".55" cx="5.266" cy="2.135" rx="1.904" ry="1.904"/><rect stroke="#404F54" stroke-width=".55" stroke-linecap="round" fill="#F5F6F7" x="4.265" y="11.555" width="1.82" height="3.247" rx=".91"/><rect stroke="#404F54" stroke-width=".55" stroke-linecap="round" fill="#FFF" x="1.375" y="3.02" width="7.6" height="10.101" rx="3.8"/><path stroke="#404F54" stroke-width=".5" stroke-linecap="round" stroke-linejoin="round" d="M4.834 9.152v1.077h.315"/><path d="M4.475 11.026a.631.631 0 1 0 1.262 0" stroke="#FF8F5C" stroke-width=".55" stroke-linecap="round" fill="#F5F6F7"/><path d="M3.99 3.209A3.796 3.796 0 0 0 1.374 6.81v1.246c.3-.066 1.58-.347 3.249-.71 1.914-.417 2.669-1.054 2.669-1.054s.357.928.62 1.398c.226.403.785.998.785.998V7.516s.12.043.277.057V6.81A3.796 3.796 0 0 0 6.54 3.273c-.692-.092-1.492-.066-2.413-.066-.047 0-.093 0-.139.002z" fill="#DAE2E6"/><path d="M7.238 9.249a.44.44 0 0 0-.442-.439.44.44 0 0 0-.44.439m-2.353 0a.44.44 0 0 0-.441-.439.44.44 0 0 0-.441.439" stroke="#404F54" stroke-width=".5" stroke-linecap="round" fill="#F5F6F7"/><path d="M4.287 8.11a.724.724 0 0 0-.725-.722.724.724 0 0 0-.726.722m4.582 0a.724.724 0 0 0-.725-.722.724.724 0 0 0-.726.722" stroke="#404F54" stroke-width=".5" stroke-linecap="round"/><path d="M7.5 5.36s-.94.781-2.854 1.198c-1.914.416-3.225.623-3.225.623l-.09.883H.514S.146 5.516.778 4.4c.632-1.117 1.645-2.047 3.35-2.047 1.704 0 2.993-.09 3.949.648.956.739 1.586 2.078 1.586 3.043v1.933H8.97s-.666-.721-.892-1.124c-.264-.47-.576-1.494-.576-1.494z" stroke="#404F54" stroke-width=".55" fill="#FFA47B"/><path d="M1.477 7.172a64.608 64.608 0 0 0 3.169-.614C6.56 6.14 7.501 5.359 7.501 5.359s.312 1.024.576 1.494c.11.197.325.47.517.697V6.135c0-.742-.485-1.771-1.22-2.34-.735-.567-1.726-.498-3.036-.498s-2.09.715-2.576 1.574c-.231.408-.288 1.386-.285 2.3z" fill="#FF8F5C"/><path d="M7.5 5.36s-.94.781-2.854 1.198c-1.914.416-3.225.623-3.225.623l-.068.883h-.84S.147 5.516.779 4.4c.632-1.117 1.645-2.047 3.35-2.047 1.704 0 2.993-.09 3.949.648.956.739 1.586 2.078 1.586 3.043v1.933H8.97s-.666-.721-.892-1.124c-.264-.47-.576-1.494-.576-1.494z" stroke="#404F54" stroke-width=".55"/><path d="M7.5 6.213s-.94.782-2.854 1.199c-1.914.416-3.225.623-3.225.623l-.068.883h-.84S.147 6.37.779 5.253c.632-1.116 1.645-2.046 3.35-2.046 1.704 0 2.993-.09 3.949.648.956.739 1.586 2.078 1.586 3.043V8.83H8.97s-.666-.721-.892-1.124c-.264-.47-.576-1.494-.576-1.494z"/></g></g><path d="M123.002 8.048V5.002A4.99 4.99 0 0 0 118.01 0H5.956A4.997 4.997 0 0 0 .963 5.002v3.046h122.04z" stroke="#E0EAEF" stroke-linecap="round" fill="#F3FFFD"/><rect stroke="#404F54" stroke-linecap="round" x=".659" width="122.343" height="73.823" rx="5"/></g></g><g transform="translate(95 141)" mask="url(#c)"><rect stroke="#404F54" stroke-width="1.5" stroke-linecap="round" fill="#E0EAEF" y="12.957" width="60" height="54" rx="8"/><rect stroke="#404F54" stroke-width="1.5" stroke-linecap="round" fill="#FFF" x="2" y="6.957" width="56" height="54" rx="8"/><text font-family="TeachableSans-Bold, TeachableSans" font-size="30" font-weight="bold" letter-spacing="1.071"><tspan x="12" y="44.63" fill="#FF8F5C">08</tspan></text><rect stroke="#404F54" stroke-width="1.5" stroke-linecap="round" fill="#71D5CA" x="9" y=".957" width="7" height="15" rx="3.5"/><rect stroke="#404F54" stroke-width="1.5" stroke-linecap="round" fill="#71D5CA" x="44" y=".957" width="7" height="15" rx="3.5"/></g><g transform="translate(1305.738 45.43)" mask="url(#c)"><rect stroke="#404F54" stroke-width="1.5" stroke-linecap="round" fill="#FFF" x="31.721" y="130.764" width="34.637" height="22.697" rx="11.349"/><rect stroke="#404F54" stroke-width="1.5" stroke-linecap="round" fill="#E0EAEF" x="31.721" y="130.764" width="23.937" height="21.509" rx="10.754"/><rect stroke="#404F54" stroke-width="1.5" stroke-linecap="round" fill="#FFF" x="17.455" y="139.564" width="108.186" height="22.588" rx="11.294"/><path d="M18.078 152.324a3.998 3.998 0 0 1 3.997-4.003l98.945.078a4.006 4.006 0 0 1 3.997 4.01v8.993l-106.94-.084v-8.994z" fill="#E0EAEF"/><rect stroke="#404F54" stroke-width="1.5" stroke-linecap="round" fill="#FF8F5C" transform="rotate(-15 93.987 53.721)" x="63.758" y="47.125" width="60.46" height="13.191" rx="6.596"/><path d="M132.194 16.872a21.549 21.549 0 0 1 1.46 3.902l5.549 20.707L31.48 70.346 28.073 57.63c-2.696-10.06 3.275-20.402 13.337-23.098l75.407-20.205a18.818 18.818 0 0 1 15.377 2.545z" fill="#E0EAEF"/><path d="M36.129 24.712l11.499-3.081m10.847-2.907l48.928-13.11c11.434-3.064 23.186 3.721 26.251 15.16l5.549 20.707L12.066 75.548 6.517 54.84c-3.064-11.436 3.727-23.192 15.16-26.256l8.99-2.409" stroke="#404F54" stroke-width="1.5" stroke-linecap="round"/><rect stroke="#404F54" stroke-width="1.5" stroke-linecap="round" fill="#85DAD2" transform="rotate(45 68.385 105.339)" x="-4.007" y="100.353" width="144.784" height="9.972" rx="4.986"/></g><g mask="url(#c)"><path d="M481 198.209c7.14 0 12.928-5.789 12.928-12.929 0-7.14-5.789-12.928-12.929-12.928-.699 0-1.384.055-2.053.162m.054 25.541c.652.101 1.32.154 2 .154m0-4.716a8.213 8.213 0 1 0-1.974-16.187m-.12 15.918c.669.175 1.37.269 2.093.269" stroke="#404F54" stroke-width="1.5" stroke-linecap="round"/><path d="M453.805 167.703h25.061v30.306c0 4.966-4.03 8.991-8.997 8.991h-20.562.562c4.966 0 8.997-4.025 8.997-8.99v-30.307h-5.06z" fill="#E0EAEF"/><path stroke="#404F54" stroke-width="1.5" stroke-linecap="round" fill="#FF8F5C" d="M459 176h11v13.092h-11z"/><path d="M435 175.95v-8.247h43.866v30.306c0 4.966-4.028 8.991-9.01 8.991H444.01c-4.975 0-9.009-4.025-9.009-9v-6.318m0-5.073v-5.265m29.749-6.574v-7.041" stroke="#404F54" stroke-width="1.5" stroke-linecap="round"/></g></g></svg>